<svg width="937" height="937" viewBox="0 0 937 937" fill="none" xmlns="http://www.w3.org/2000/svg">
<g clip-path="url(#clip0_10_427)">
<rect width="937" height="937" fill="white"/>
<path d="M-155.938 -0.0374756H1091.82C1093.7 3.21027 1093.51 11.5795 1092.63 15.3269C1092.57 15.7016 1092.32 16.1388 1092.2 16.5135C1093.51 20.3234 1093.7 47.1173 1092.32 50.7398C1092.32 50.8647 1092.2 51.0521 1092.13 51.177C1093.38 54.2998 1093.7 89.0257 1092.38 92.0861C1092.32 92.3359 1092.2 92.5233 1092.07 92.7731C1093.57 96.0834 1093.82 109.824 1092.38 113.259C1092.26 113.509 1092.13 113.759 1092.01 114.008C1093.45 117.319 1093.7 134.182 1092.38 137.679C1092.26 137.929 1092.13 138.242 1092.07 138.491C1093.38 141.614 1093.63 151.233 1092.45 154.418C1092.32 154.793 1092.01 155.23 1091.82 155.605C1093.7 158.915 1093.7 180.962 1092.57 184.897C1092.45 185.271 1092.26 185.646 1092.13 186.021C1093.45 189.269 1093.82 205.882 1092.38 209.067C1092.26 209.317 1092.13 209.567 1092.01 209.817C1093.63 213.252 1093.76 230.428 1092.57 234.425C1092.38 234.987 1092.07 235.549 1091.82 236.111C1093.76 239.609 1093.7 252.475 1092.57 256.41C1092.38 256.972 1092.07 257.534 1091.82 258.096C1092.32 259.033 1092.7 259.72 1092.76 260.782C1093.26 266.028 1093.7 298.193 1092.51 302.065C1092.38 302.503 1092.2 302.815 1092.01 303.19C1092.51 304.314 1092.76 305.251 1092.82 306.5C1093.32 316.93 1093.7 401.996 1092.26 405.931C1092.26 406.056 1092.13 406.181 1092.13 406.306C1093.63 410.053 1093.82 431.913 1092.13 435.848C1092.13 435.973 1092.01 436.097 1091.95 436.222C1093.57 439.595 1093.76 453.71 1092.32 457.395C1092.2 457.645 1092.07 457.957 1091.95 458.207C1093.38 461.392 1093.63 481.316 1092.32 484.814C1092.2 485.064 1092.07 485.376 1091.95 485.626L1091.76 487.999C1093.07 490.56 1093.26 494.682 1092.45 497.43C1092.26 497.992 1092.01 498.429 1091.7 498.991C1093.63 502.489 1093.57 515.98 1092.45 519.914C1092.26 520.476 1091.95 521.039 1091.7 521.601C1093.32 524.536 1093.51 544.335 1092.38 547.645C1092.2 548.145 1091.95 548.519 1091.7 548.957C1093.51 552.329 1093.63 564.633 1092.38 568.381C1092.26 568.818 1091.95 569.318 1091.7 569.692C1093.45 573.003 1093.51 593.301 1092.38 597.048C1092.2 597.61 1092.01 597.86 1091.76 598.422C1093.51 601.795 1093.51 621.157 1092.32 624.904C1092.2 625.279 1092.07 625.529 1091.88 625.841C1093.26 629.089 1093.63 650.074 1092.26 653.696C1092.01 654.384 1091.95 654.446 1091.63 655.071C1093.45 658.568 1093.38 675.431 1092.13 679.241C1092.01 679.741 1091.95 679.741 1091.76 680.116C1093.2 683.114 1093.51 708.284 1092.2 712.031C1092.07 712.468 1091.95 712.593 1091.76 713.03C1093.32 716.403 1093.45 732.704 1092.32 736.701C1092.2 737.076 1091.95 737.638 1091.76 738.013C1093.01 740.886 1093.38 748.568 1092.07 751.566C1092.01 751.754 1091.88 751.941 1091.82 752.128C1093.26 755.563 1093.38 766.806 1092.26 770.303C1092.13 770.74 1091.82 771.24 1091.57 771.677C1093.38 774.8 1093.32 794.224 1092.32 797.971C1092.2 798.346 1092.01 798.783 1091.88 799.158C1093.38 802.718 1093.51 814.772 1092.32 818.582C1092.2 819.019 1091.88 819.581 1091.63 819.956C1093.26 822.954 1093.32 840.317 1092.32 843.69C1092.2 844.127 1092.01 844.439 1091.82 844.876C1093.26 848.124 1093.51 865.112 1092.2 868.547C1092.07 868.797 1091.95 869.11 1091.88 869.359C1093.45 872.795 1093.57 893.218 1092.26 896.965C1092.13 897.465 1092.07 897.465 1091.88 897.84C1093.2 901.025 1093.51 916.452 1092.2 919.699C1092.07 919.949 1091.95 920.199 1091.82 920.511C1093.26 923.634 1093.51 932.441 1092.26 935.813C1092.13 936.251 1091.88 936.563 1091.63 937H-155.938V-0.0374756Z" fill="#344D27"/>
<path d="M319.92 -0.0374756H346.089C346.839 1.33657 347.276 2.33588 347.463 3.89729C345.777 10.018 339.906 15.1395 335.597 19.5115C330.225 13.1409 325.291 6.39556 319.92 -0.0374756Z" fill="#A5CD89"/>
<path d="M576.929 901.087C565.812 912.205 556.506 923.384 548.324 936.813H532.959C534.458 934.939 536.02 933.128 537.581 931.379C539.143 929.63 540.829 927.881 542.515 926.195C544.202 924.509 545.888 922.885 547.699 921.261C549.448 919.699 551.259 918.138 553.133 916.639C555.007 915.14 556.88 913.704 558.754 912.267C560.69 910.893 562.626 909.519 564.625 908.207C566.624 906.896 568.622 905.647 570.683 904.46C572.744 903.273 574.805 902.149 576.929 901.025V901.087Z" fill="#A5CD89"/>
<path d="M541.953 195.702C542.453 197.95 531.336 228.179 529.774 233.301C524.028 230.24 518.407 226.868 512.724 223.62C509.289 221.809 505.978 219.56 502.606 217.499C515.909 210.566 529.025 203.321 541.953 195.702Z" fill="#A5CD89"/>
<path d="M716.208 -0.0374756H755.868C748.747 3.83484 740.128 6.27065 732.509 8.95629C713.022 15.889 693.723 22.4469 676.423 34.0639C686.103 18.5746 700.968 9.26857 716.208 -0.0374756Z" fill="#A5CD89"/>
<path d="M259.337 -0.0374756H286.506C298.934 11.2047 309.115 23.5711 317.671 37.9986C311.676 42.1832 305.68 46.3678 299.621 50.3651C289.441 31.8779 274.639 14.39 259.337 -0.0374756Z" fill="#A5CD89"/>
<path d="M647.63 682.177C656.561 683.551 665.305 686.174 674.361 686.986C670.739 710.782 661.933 730.643 646.568 749.13C641.946 754.127 636.762 758.499 631.454 762.746C641.946 733.454 646.193 713.218 647.63 682.177Z" fill="#A5CD89"/>
<path d="M127.678 870.234C139.545 876.042 152.224 879.29 163.966 885.598L164.715 885.723C173.521 886.847 182.39 885.723 191.259 887.284C224.673 892.843 262.023 913.704 286.506 936.875H259.337C240.85 920.199 216.866 906.584 193.695 897.715C182.89 893.53 171.648 890.407 160.905 885.91C158.282 884.911 154.535 884.786 151.724 884.287C139.92 882.163 136.485 877.978 127.678 870.234Z" fill="#A5CD89"/>
<path d="M600.6 663.877C606.721 666 612.654 668.936 618.338 671.996C621.523 696.23 620.024 722.024 610.531 744.758C606.659 754.002 596.478 772.926 589.358 779.547C587.922 780.921 585.985 781.608 584.174 782.357C579.365 784.668 574.119 786.292 569.185 788.166C594.167 744.883 603.036 713.842 600.663 663.877H600.6Z" fill="#A5CD89"/>
<path d="M165.777 -0.0374756H224.424C250.468 19.0743 260.649 38.5607 281.696 61.4823C275.576 63.8557 269.58 66.8536 263.521 69.6017C258.775 65.8543 253.341 62.1069 249.531 57.2978C245.971 52.8633 243.473 47.8668 239.601 43.5573C218.74 20.0111 194.757 9.64331 165.714 -0.0374756H165.777Z" fill="#A5CD89"/>
<path d="M716.52 936.813C741.315 922.01 770.919 913.391 791.28 891.969C796.839 886.098 801.648 879.228 806.395 872.67C809.518 868.423 816.763 859.116 817.7 854.182C817.7 853.995 817.7 853.808 817.7 853.683C819.573 855.619 822.883 860.178 822.759 862.989C822.759 863.114 822.759 863.301 822.696 863.426C823.446 868.048 819.698 874.169 818.949 878.853C818.262 883.1 818.949 887.847 817.637 891.969C816.7 894.842 815.139 897.59 813.39 900.088C799.525 919.387 777.353 927.444 756.804 936.875H716.457L716.52 936.813Z" fill="#A5CD89"/>
<path d="M482.245 -0.0374756H506.103C498.234 12.4539 491.801 25.6322 484.306 38.3109C461.572 76.7842 437.276 91.3991 395.805 105.951C405.61 96.7704 416.853 89.0882 426.721 79.7822C440.149 67.1034 452.578 52.6135 462.071 36.687C469.191 24.6954 475.25 12.0167 482.307 -0.0374756L482.245 -0.0374756Z" fill="#A5CD89"/>
<path d="M471.815 226.056C472.814 226.056 473.501 226.056 474.375 226.555C481.683 230.115 488.615 234.987 495.798 238.922C524.028 254.536 550.26 269.338 564.313 299.942C569.184 310.56 571.121 322.239 574.993 333.231C571.308 339.227 567.498 345.161 564.375 351.531L560.628 359.276C550.323 321.365 544.452 289.262 511.475 263.842C500.857 255.66 488.928 249.227 478.56 240.795C475.25 238.11 467.817 232.614 467.38 228.304C468.692 228.117 470.628 226.743 471.815 226.118V226.056Z" fill="#A5CD89"/>
<path d="M98.7609 670.685C102.446 674.307 105.194 680.553 107.88 685.05C114.125 695.355 121.932 705.348 131.238 713.03C163.528 739.762 191.634 723.648 216.429 772.427C213.993 777.048 211.995 781.983 209.934 786.792C209.684 786.979 209.309 786.792 208.997 786.792C195.444 766.868 176.769 757.5 155.347 748.069C145.416 743.697 135.673 739.075 127.678 731.58C112.189 717.028 104.569 697.728 93.3896 680.178L98.636 670.622L98.7609 670.685Z" fill="#A5CD89"/>
<path d="M382.876 284.702C384.5 286.451 384.875 294.508 385.624 297.194C387.685 304.376 390.746 311.496 394.306 318.054C401.176 330.671 411.169 340.164 421.225 350.157C426.971 355.903 432.529 361.711 436.714 368.707C443.397 379.824 446.644 393.252 451.454 405.306C453.14 409.553 455.763 413.426 457.325 417.61C457.887 419.047 458.074 420.358 458.074 421.857C457.012 423.731 455.701 423.731 453.765 424.418L452.703 424.918C448.955 423.169 437.338 406.493 433.778 402.183C422.037 388.068 409.046 374.952 397.554 360.65C394.056 356.278 390.746 351.718 388.06 346.722C377.505 327.11 376.568 305.75 382.939 284.702H382.876Z" fill="#A5CD89"/>
<path d="M111.939 627.402C114.375 629.963 116.374 633.773 118.31 636.771C122.807 643.703 127.241 650.699 132.612 657.007C144.854 671.309 162.779 682.302 180.517 688.423C190.697 691.983 201.127 694.543 210.995 698.978C226.047 705.723 235.666 717.902 241.349 733.141C238.914 736.139 236.915 739.2 234.979 742.51L231.918 747.694C214.868 721.025 196.693 714.592 168.9 704.037C159.031 700.289 149.663 696.042 141.918 688.672C127.491 674.932 118.497 655.508 109.004 638.332C109.753 634.585 110.752 630.962 111.939 627.34V627.402Z" fill="#A5CD89"/>
<path d="M-26.2151 792.288C-20.0319 788.728 -13.8487 785.23 -8.04019 781.046C-5.60438 798.721 -2.41909 817.77 4.63851 834.321C8.51083 843.377 14.6316 851.559 20.1902 859.616C38.6774 886.473 60.2249 916.264 85.6448 936.813H50.1694C34.93 913.454 24.4373 887.847 10.6344 863.801C0.891117 846.813 -11.163 831.698 -23.5294 816.584C-24.154 808.464 -25.0909 800.345 -26.2151 792.288Z" fill="#A5CD89"/>
<path d="M80.7733 703.724C88.7677 718.214 94.8885 733.016 105.943 745.758C128.99 772.302 164.403 769.803 187.137 796.785C191.696 802.218 206.686 821.767 206.186 828.076C204.562 828.138 203.75 827.264 202.376 826.327C189.948 819.144 178.393 810.588 165.465 804.092C156.096 799.345 146.29 795.348 136.922 790.664C97.1994 770.74 90.0169 751.066 73.8406 712.343C76.4013 709.72 78.5248 706.66 80.7733 703.724Z" fill="#A5CD89"/>
<path d="M807.457 -0.0374756H840.871C840.871 0.274808 840.871 0.524635 840.746 0.836918C840.309 2.46079 837.373 5.20889 836.249 6.45802C816.45 27.2561 784.598 37.3116 758.428 47.1173C751.558 49.7405 744.813 53.0507 737.755 55.2367C721.829 60.2332 705.215 62.9189 689.289 67.9779C679.296 71.1631 669.615 75.7225 659.809 79.5948C667.616 66.7912 679.046 62.7939 691.475 56.0486C698.657 52.1763 704.778 47.2422 712.335 43.8071C724.327 38.3734 737.318 34.3762 749.622 29.6919C757.679 26.5691 765.548 23.1964 773.355 19.5115C781.162 15.8265 788.845 11.8918 796.339 7.6447C799.212 6.02082 805.895 2.77308 807.332 -0.0374756L807.457 -0.0374756Z" fill="#A5CD89"/>
<path d="M442.647 234.8C444.708 236.049 447.394 243.044 449.018 245.417C451.579 249.29 454.577 253.099 457.887 256.41C468.629 267.152 483.494 273.46 495.111 283.203C522.28 305.938 532.21 342.662 535.271 376.576C531.96 378.887 528.4 380.948 524.965 383.072L514.535 388.755C512.661 377.825 512.411 366.708 510.788 355.778C506.978 329.047 492.987 308.561 473.876 290.386C466.381 283.266 457.637 277.457 450.454 269.963C441.398 260.594 436.402 250.788 436.652 237.735L442.647 234.8Z" fill="#A5CD89"/>
<path d="M405.173 256.347C408.171 258.033 414.042 267.277 416.853 270.462C419.976 274.022 423.348 277.52 426.971 280.58C456.95 306.125 478.435 319.741 482.37 362.961C483.744 377.95 484.993 391.503 489.989 405.868L484.743 408.554L478.935 411.365C473.626 399.935 470.128 387.506 466.756 375.39C463.445 363.648 460.76 350.657 453.952 340.351C439.899 319.116 413.667 309.81 404.299 284.578C400.739 275.022 400.989 265.653 405.298 256.41L405.173 256.347Z" fill="#A5CD89"/>
<path d="M804.147 814.398C806.395 817.895 806.645 823.391 807.145 827.513C806.395 831.948 803.46 836.507 801.336 840.379C790.156 860.74 775.479 874.293 756.617 887.597C739.504 899.588 720.58 906.958 702.467 917.076C692.224 922.76 683.106 929.38 674.174 936.875H634.015C652.502 917.576 682.356 900.088 707.214 890.595C716.77 886.91 727.762 884.974 736.756 880.039C759.365 867.673 784.223 845.001 799.088 823.891C800.836 821.393 804.209 817.395 804.209 814.398H804.147Z" fill="#A5CD89"/>
<path d="M115.374 562.26C119.809 567.007 123.056 573.752 126.304 579.373C135.923 596.049 145.478 612.413 160.718 624.592C175.333 636.271 193.695 644.016 211.37 649.824C226.172 654.696 242.286 658.256 254.902 667.874C262.147 673.37 266.957 680.116 271.641 687.673C268.893 691.67 266.394 695.855 263.834 699.977C262.46 702.663 260.648 705.161 259.087 707.722C241.287 679.803 218.24 676.243 190.385 664.502C176.394 658.631 163.903 651.198 152.848 640.706C133.05 621.969 116.186 589.803 115.374 562.198V562.26Z" fill="#A5CD89"/>
<path d="M885.715 623.03C887.214 624.529 884.965 633.148 884.528 635.522C881.655 652.135 878.595 668.186 873.224 684.238C868.352 698.853 861.981 712.905 856.673 727.333C848.928 748.568 842.932 775.987 845.243 798.596C846.242 808.277 848.803 817.395 852.051 826.577C853.675 831.136 861.731 842.253 862.169 845.126C862.169 845.314 862.169 845.563 862.231 845.751C862.169 849.248 852.301 862.989 849.552 865.799C848.553 864.176 847.242 863.301 845.743 862.177C844.993 858.929 839.872 854.12 837.873 851.122C830.441 839.817 826.943 827.014 825.569 813.711C824.008 798.346 822.759 782.045 825.819 766.868C828.879 751.566 835.062 737.451 841.183 723.148C850.489 701.289 859.92 678.991 862.856 655.195C863.355 651.261 864.167 646.077 862.981 642.267C869.539 638.957 881.218 628.901 885.652 623.093L885.715 623.03Z" fill="#A5CD89"/>
<path d="M807.394 352.156L808.893 352.405L809.143 352.905C794.965 372.704 783.411 392.815 774.605 415.549C768.609 430.976 763.8 446.84 757.741 462.204C744.625 495.494 720.642 528.721 686.978 543.398H686.791C686.791 543.335 686.791 542.586 686.791 542.586C719.705 505.362 716.707 479.255 733.321 436.972C742.439 413.863 757.491 392.94 775.354 375.827C781.287 370.143 787.783 364.335 794.653 359.9C798.525 357.402 803.21 355.591 806.77 352.78L807.457 352.218L807.394 352.156Z" fill="#A5CD89"/>
<path d="M50.1694 -0.0374756H85.6448C108.566 17.5129 134.923 25.3824 161.467 35.6253C166.151 37.4365 187.949 45.9931 189.635 49.7405L188.136 51.3644C189.885 54.4248 212.307 63.7933 217.428 66.7912C225.485 71.413 232.73 76.9716 239.663 83.0924C233.979 87.4643 228.046 91.4616 222.238 95.5212C214.493 88.5261 205.624 83.0924 196.443 78.2832C179.142 69.227 161.53 64.3554 142.73 59.6087C100.01 48.8661 75.6518 37.3741 50.1694 0.0874378V-0.0374756Z" fill="#A5CD89"/>
<path d="M-7.60278 -0.0374756H16.6929C25.0621 21.0104 38.3029 42.9952 56.0406 57.4851C73.6534 71.8502 100.884 81.9057 122.932 86.7773C151.412 93.0854 175.708 96.7079 199.628 114.695C190.885 122.752 182.89 130.934 176.145 140.802C152.973 112.822 94.8262 99.9557 61.7241 83.9043C26.561 66.9161 5.07592 36.3123 -7.60278 -0.0374756Z" fill="#A5CD89"/>
<path d="M19.0037 764.245L25.3742 760.31C35.867 793.724 55.978 826.327 75.9641 854.869C82.647 864.425 89.3923 874.543 98.0738 882.475C101.759 885.848 105.818 888.409 110.19 890.72C123.181 897.59 137.484 900.9 151.599 904.835C177.519 912.08 202.376 920.886 224.299 936.813H164.465C145.728 930.754 127.428 926.257 109.628 917.513C103.008 914.266 97.0745 909.581 91.3285 905.022C70.5304 888.596 55.7282 869.859 43.6116 846.188C29.996 819.581 24.937 793.162 19.0037 764.182V764.245Z" fill="#A5CD89"/>
<path d="M361.703 -0.0374756H385.374C372.446 30.1291 349.025 51.4268 323.168 70.5386C316.297 75.5976 309.427 81.2811 301.87 85.2783C295 88.9633 287.692 91.8363 280.635 95.209C268.018 101.142 255.34 108.013 243.972 116.069C242.286 117.256 240.662 118.505 239.038 119.754C237.415 121.004 235.791 122.315 234.229 123.627C232.668 124.938 231.106 126.312 229.607 127.686C228.108 129.06 226.61 130.497 225.173 131.933C223.737 133.37 222.3 134.869 220.864 136.368C219.489 137.867 218.115 139.428 216.741 140.99C215.43 142.551 214.118 144.175 212.869 145.799C211.62 147.423 210.371 149.047 209.184 150.733C207.997 152.419 206.811 154.106 205.687 155.854C204.562 157.603 203.438 159.29 202.376 161.101C201.315 162.85 200.315 164.661 199.316 166.472C198.317 168.283 197.38 170.094 196.443 171.968C195.506 173.842 194.632 175.653 193.82 177.589C193.008 179.463 192.196 181.399 191.446 183.273C190.697 185.147 189.947 187.145 189.323 189.081C188.636 191.017 188.011 192.954 187.387 194.952C184.701 203.946 183.265 213.315 181.703 222.558C179.205 221.122 176.832 219.56 174.458 217.936C172.147 216.25 169.899 214.501 167.713 212.628C167.713 201.323 170.336 189.643 173.396 178.776C182.39 147.11 195.881 129.685 221.863 110.074C232.043 102.391 242.786 95.209 253.903 89.0257C262.397 84.3415 271.016 79.8446 279.76 75.5976C284.569 73.2867 290.253 71.1631 294.687 68.2901C298.372 65.8543 300.933 61.9195 304.368 59.2339C309.927 54.9244 315.985 51.177 321.606 46.8675C337.47 34.626 352.959 18.3248 361.641 0.0249811L361.703 -0.0374756Z" fill="#A5CD89"/>
<path d="M928.935 779.609C929.809 777.361 928.935 774.675 928.748 772.302C927.936 761.871 928.623 751.816 930.496 741.511C934.431 719.901 942.113 698.915 949.483 678.304C956.416 658.693 963.036 638.957 973.342 620.782C978.775 611.226 985.833 602.919 992.953 594.613C1012.5 571.753 1034.8 561.885 1063.15 554.515C1072.65 552.017 1082.08 549.644 1091.88 548.832C1093.7 552.204 1093.82 564.508 1092.57 568.256C1092.45 568.693 1092.13 569.193 1091.88 569.567C1071.96 570.504 1043.54 581.309 1027.62 593.176C1023.06 596.611 1019.56 601.733 1015.44 605.667C1008.01 612.787 1000.51 619.533 994.265 627.777C974.841 653.259 964.098 691.233 961.787 722.899C961.35 729.019 961.225 735.14 961.662 741.323C962.037 746.32 963.911 752.565 963.161 757.5C963.161 757.624 963.161 757.749 963.099 757.874C960.725 761.06 934.244 777.423 928.997 779.609H928.935Z" fill="#A5CD89"/>
<path d="M808.394 936.813C837.936 916.264 852.301 882.038 872.162 853.371C901.329 811.212 967.658 764.682 1014.75 744.446C1017.62 743.197 1020.62 741.885 1023.74 741.635C1028.49 741.323 1033.99 742.885 1038.8 743.447C1055.16 745.383 1077.02 745.945 1092.13 751.941C1093.57 755.376 1093.7 766.618 1092.57 770.116C1092.45 770.553 1092.13 771.053 1091.88 771.49C1074.9 767.055 1057.35 766.743 1039.98 764.682C1033.8 763.933 1027.74 761.996 1021.68 761.309C1021.5 761.434 1021.31 761.559 1021.12 761.684C1018.87 763.183 1015.81 764.057 1013.31 765.307C1005.94 768.992 998.699 772.926 991.516 776.986C947.672 802.593 906.388 833.384 878.158 876.292C867.665 892.281 854.612 924.571 841.371 936.75H808.456L808.394 936.813Z" fill="#A5CD89"/>
<path d="M948.984 286.326H950.857C953.855 289.137 965.347 302.877 966.097 306.25C959.726 309.997 950.732 311.871 943.8 314.619C925.562 321.802 909.074 331.857 893.959 344.286C892.585 345.41 891.211 346.597 889.837 347.784C888.463 348.97 887.151 350.157 885.777 351.406C884.466 352.655 883.154 353.905 881.843 355.154C880.531 356.403 879.282 357.714 878.033 359.026C876.784 360.338 875.534 361.649 874.285 362.961C873.036 364.272 871.85 365.646 870.663 367.02C869.476 368.394 868.289 369.769 867.165 371.205C866.041 372.579 864.917 374.016 863.793 375.452C862.668 376.889 861.607 378.325 860.545 379.762C859.483 381.198 858.421 382.697 857.422 384.196C856.423 385.695 855.423 387.194 854.424 388.693C853.425 390.192 852.488 391.753 851.551 393.315C850.614 394.876 849.677 396.438 848.803 397.999C847.929 399.56 847.054 401.184 846.18 402.746C845.305 404.37 844.493 405.931 843.682 407.555C842.87 409.179 842.12 410.803 841.308 412.426C834.875 426.292 830.378 440.844 824.445 454.835C809.58 489.81 785.784 514.356 752.807 532.718C748.622 534.966 744.438 537.09 740.066 539.026C754.618 524.349 768.421 509.547 778.477 491.309C781.725 485.376 784.348 478.943 787.096 472.76C805.645 430.476 810.142 398.124 843.931 362.961C854.736 351.719 867.665 342.038 880.531 333.294C901.204 319.304 923.751 309.498 942.8 292.822C944.861 291.073 947.859 288.825 948.984 286.389V286.326Z" fill="#A5CD89"/>
<path d="M-65.4377 -0.0374756H-41.6417C-38.2066 20.948 -25.7153 46.0555 -12.4745 62.6066C6.5748 86.3401 21.0023 97.5198 48.046 111.073C63.6602 118.88 79.4617 125.188 95.8878 130.872C122.619 140.178 141.856 146.111 163.154 165.473C161.03 172.78 158.969 180.15 156.97 187.52C127.491 160.539 104.444 159.04 68.7192 146.423C63.91 144.737 59.2258 142.926 54.5415 140.99C49.8573 139.054 45.2355 136.992 40.6137 134.806C36.0544 132.62 31.495 130.31 27.0606 127.936C22.6262 125.563 18.1917 123.002 13.8822 120.317C-17.7833 101.017 -43.3905 68.3526 -56.2566 33.6891C-60.3163 22.8217 -62.6896 11.2672 -65.3753 0.0249811L-65.4377 -0.0374756Z" fill="#A5CD89"/>
<path d="M423.286 -0.0375189H450.392C425.159 45.7432 410.107 68.5399 366.45 98.5816C359.143 103.641 351.773 109.449 344.028 113.821C326.353 123.814 307.678 130.934 290.878 142.738C265.395 160.664 240.35 185.396 229.358 215.188C224.736 227.68 222.488 240.733 220.177 253.786C214.118 250.039 208.622 245.542 203.063 241.17C204.687 230.115 205.687 219.31 208.56 208.443C219.927 165.285 250.406 142.551 288.816 123.564C300.996 117.568 314.236 112.822 325.978 106.139C330.787 103.453 334.41 98.5816 338.907 95.3338C375.631 68.8522 403.237 41.059 423.161 -0.0999756L423.286 -0.0375189Z" fill="#A5CD89"/>
<path d="M42.6748 745.633L54.4791 734.141C57.9142 743.072 61.2244 752.066 65.7213 760.56C80.0863 787.604 104.632 804.967 132.05 817.146C147.977 824.266 164.59 829.637 180.954 835.633C230.544 853.87 321.669 886.16 346.027 936.813H319.92C304.618 921.136 288.754 906.459 269.767 895.404C254.403 886.41 237.914 880.352 221.363 874.044C206.811 868.485 192.134 863.176 177.394 858.117C144.417 847.062 106.443 837.756 80.7734 812.899C61.4743 794.224 51.1689 770.678 42.6748 745.633Z" fill="#A5CD89"/>
<path d="M705.84 690.733C712.21 690.858 718.581 691.108 724.952 691.108C718.394 725.771 703.904 756.687 674.112 777.048C654.688 790.352 633.765 798.846 612.092 807.652C596.603 813.96 580.489 819.144 565.25 825.89C553.071 831.261 541.766 837.756 530.524 844.939C492.488 869.359 472.252 898.089 450.33 936.875H423.473C436.652 910.268 450.142 883.287 471.502 862.177C486.804 847 505.416 834.321 524.59 824.578C545.826 813.835 568.872 805.216 591.044 796.41C623.522 783.481 663.244 769.679 685.666 741.198C697.471 726.271 702.53 709.22 705.777 690.796L705.84 690.733Z" fill="#A5CD89"/>
<path d="M541.141 440.407C542.266 442.468 538.268 460.518 537.581 464.141C528.525 469.637 518.844 474.196 509.726 479.63C491.988 490.185 474.5 503.676 459.885 518.29C445.395 532.78 431.342 549.644 422.036 568.006C411.606 588.679 405.923 610.726 398.116 632.399C386.936 663.315 363.077 687.735 335.596 705.098L335.222 704.724C335.409 703.162 345.589 689.172 347.276 686.299C351.398 679.366 354.896 672.184 357.769 664.689C366.825 640.893 367.574 614.848 375.256 590.553C398.053 518.353 477.998 473.259 541.204 440.469L541.141 440.407Z" fill="#A5CD89"/>
<path d="M754.743 688.173C760.864 687.236 767.11 686.424 773.168 685.05C770.545 727.645 759.24 766.243 726.388 795.348C693.348 824.64 649.753 838.943 610.093 856.681C580.926 869.734 546.825 889.658 524.778 912.892C518.157 919.887 510.787 928.194 506.228 936.75H482.307C496.86 910.956 515.284 888.783 539.393 871.358C549.635 863.926 561.003 858.055 572.182 852.246C585.798 845.126 599.601 838.506 613.716 832.448C669.615 808.464 721.079 789.54 744.313 728.207C749.122 715.529 752.994 701.538 754.806 688.11L754.743 688.173Z" fill="#A5CD89"/>
<path d="M532.772 -0.0374756H548.324C542.516 9.64331 537.332 19.6364 532.71 29.9417C525.153 46.8675 518.72 64.6676 507.977 79.8446C481.558 117.319 441.086 127.499 400.489 142.301C372.384 152.544 343.404 164.286 319.42 182.461C283.071 210.004 270.579 243.231 264.458 287.388C259.899 284.39 255.402 281.33 251.093 277.957C253.341 245.417 259.212 213.252 279.885 186.895C298.372 163.287 326.853 149.796 353.584 137.804C361.079 134.432 369.073 130.185 377.005 128.186C379.816 127.437 382.689 127.624 385.5 127.249C397.179 125.688 425.472 115.195 436.464 110.323C507.04 79.0327 492.488 53.363 532.772 -0.0374756Z" fill="#A5CD89"/>
<path d="M804.459 675.431C809.393 673.995 822.883 669.685 826.319 666.313C828.505 671.622 817.637 728.082 815.201 737.451C812.391 748.256 808.831 758.873 804.646 769.241C783.036 821.205 742.627 852.933 691.6 873.856C682.918 877.416 673.487 880.102 665.118 884.287C658.685 887.472 652.814 892.094 646.881 896.091C628.768 908.27 611.155 920.074 596.853 936.813H570.059C588.046 908.52 615.153 885.598 644.819 870.234C659.622 862.552 675.985 857.305 691.1 850.06C746.811 823.204 779.538 788.54 795.59 728.27C797.713 720.4 806.208 682.676 804.958 676.556C804.833 675.931 804.771 675.931 804.521 675.431H804.459Z" fill="#A5CD89"/>
<path d="M104.507 232.676C107.567 234.3 111.814 240.483 114.375 243.231C121.37 250.726 129.052 257.659 136.672 264.466C182.39 305.188 235.978 337.978 273.764 387.131C277.824 392.503 281.634 397.999 285.194 403.62C288.754 409.303 292.064 415.112 295.187 421.045C304.056 438.096 311.613 455.959 324.167 470.698C333.286 481.316 344.028 489.56 355.333 497.742L347.963 505.175L341.717 511.545C333.098 507.173 324.479 502.864 316.547 497.367C268.393 464.016 269.642 416.111 233.73 375.702C229.17 370.58 224.361 365.709 219.302 361.087C214.243 356.465 208.997 352.031 203.501 347.909C195.069 341.6 186.2 335.792 177.956 329.296C149.413 306.75 111.315 269.963 104.569 232.738L104.507 232.676Z" fill="#A5CD89"/>
<path d="M1091.82 498.866C1093.76 502.364 1093.7 515.855 1092.57 519.789C1092.38 520.352 1092.07 520.914 1091.82 521.476C1089.76 521.726 1087.64 521.913 1085.58 522.038C1036.61 526.16 995.202 547.083 963.536 584.744C961.288 587.43 959.164 590.241 957.103 593.051C955.042 595.862 953.106 598.797 951.232 601.795C949.358 604.793 947.609 607.791 945.923 610.914C944.237 613.974 942.675 617.159 941.239 620.345C930.684 643.391 924.501 668.936 916.943 693.107C909.573 716.59 899.018 739.574 897.145 764.37C896.457 773.738 897.457 783.606 900.142 792.6C900.892 795.036 903.078 798.346 903.14 800.72C903.14 800.907 903.14 801.094 903.14 801.282C901.891 803.468 884.341 818.582 881.593 820.081C881.905 816.459 878.033 810.525 876.784 806.903C874.16 799.283 872.849 790.664 872.662 782.607C871.85 744.446 891.461 708.346 903.453 672.996C913.696 642.767 917.63 617.846 932.932 588.679C936.617 581.622 940.739 574.252 946.36 568.568C950.17 564.633 954.792 561.386 958.789 557.638C965.16 551.642 971.281 545.522 978.088 540.025C1011 513.544 1049.6 499.491 1091.82 498.866Z" fill="#A5CD89"/>
<path d="M548.386 620.594C556.006 628.339 563.626 636.146 571.933 643.204C581.551 680.74 573.619 723.523 554.07 756.688C542.828 775.737 523.778 799.47 505.354 811.837C477.998 830.199 435.777 835.82 416.228 863.426C403.924 880.789 394.431 915.702 385.624 936.813H362.078C364.889 929.942 367.512 922.947 369.261 915.702C371.946 904.522 372.883 892.906 375.007 881.663C380.753 851.122 397.928 831.698 426.096 819.894C444.021 812.399 462.883 807.028 480.933 799.72C487.241 797.159 494.174 794.849 499.795 790.976C508.352 785.043 515.721 776.424 522.155 768.304C530.649 757.499 537.894 745.883 543.078 733.141C543.765 731.393 544.452 729.644 545.076 727.895C545.701 726.146 546.325 724.397 546.887 722.586C547.45 720.837 548.012 719.026 548.511 717.277C549.011 715.466 549.511 713.717 549.948 711.906C550.385 710.095 550.822 708.284 551.259 706.472C551.634 704.661 552.009 702.85 552.384 700.976C552.696 699.165 553.008 697.291 553.32 695.48C553.57 693.669 553.82 691.795 554.07 689.921C554.257 688.048 554.507 686.236 554.632 684.363C554.819 682.489 554.944 680.678 555.007 678.804C555.132 676.93 555.194 675.057 555.194 673.245C555.194 671.372 555.194 669.498 555.194 667.687C555.194 665.813 555.132 663.939 555.007 662.128C554.882 660.317 554.819 658.381 554.632 656.57C554.507 654.696 554.32 652.885 554.07 651.011C553.883 649.137 553.633 647.326 553.32 645.452C552.071 637.145 549.573 629.026 548.324 620.719L548.386 620.594Z" fill="#A5CD89"/>
<path d="M480.996 535.966C480.996 536.215 481.183 536.715 481.183 536.965C481.12 539.088 478.747 542.961 477.873 544.959C473.001 555.827 470.503 566.569 469.254 578.436C467.442 595.924 466.943 613.787 463.82 631.087C455.076 679.928 426.846 715.716 383.376 738.825C361.578 750.442 338.969 760.31 320.607 777.236C303.681 792.85 290.066 813.71 285.881 836.632C284.257 845.438 284.07 854.432 283.695 863.426L273.14 858.055C272.515 857.68 271.828 857.243 271.328 856.743C268.455 853.683 267.956 840.692 267.831 836.132C266.519 797.909 289.316 764.744 320.419 744.321C331.599 736.951 343.841 731.205 355.583 724.772C377.193 712.968 398.99 697.728 413.23 677.243C423.848 662.003 429.844 644.89 435.714 627.465C446.644 594.925 457.012 561.51 480.996 535.966Z" fill="#A5CD89"/>
<path d="M878.657 -0.0374756H901.766C901.829 0.712005 901.829 1.27411 901.579 1.96114C898.893 8.76892 894.958 15.2644 891.211 21.5101C884.403 32.8147 876.034 44.2443 865.729 52.6135C857.172 59.4837 846.492 64.2929 836.374 68.3526C828.817 71.413 821.135 74.2235 813.328 76.6593C805.52 79.0951 797.651 81.2187 789.656 83.0299C752.432 91.1493 717.332 93.4602 681.794 109.574C637.637 129.685 600.912 162.6 583.175 208.318C575.68 227.68 570.996 247.853 563.751 267.34C559.191 261.344 553.883 255.848 548.511 250.601C553.258 220.185 568.81 185.084 587.796 160.788C634.139 101.642 685.853 84.404 755.118 64.3554C773.48 59.0465 791.093 51.9265 810.08 49.6156C834.001 46.6801 856.797 31.8779 871.475 13.0784C873.661 10.2679 879.157 3.52256 878.72 -0.0374756H878.657Z" fill="#A5CD89"/>
<path d="M569.996 -0.0374756H596.79C591.419 6.95767 586.485 14.0777 582.363 21.8848C564.063 56.2984 556.943 94.6468 529.837 124.251C510.35 145.487 478.997 161.913 452.328 171.843C415.104 185.709 376.755 194.64 347.713 223.87C315.548 256.222 308.615 286.014 308.678 330.733C301.682 323.738 294.313 317.118 287.005 310.497C289.691 244.543 313.424 206.694 374.132 179.963C386.561 174.466 399.615 170.157 412.356 165.41C425.284 160.539 438.025 155.355 450.704 149.921C473.626 140.24 494.361 130.122 512.161 112.385C535.333 89.338 542.016 58.9841 554.195 29.8168C558.567 19.3241 564.063 9.70577 570.059 0.0249811L569.996 -0.0374756Z" fill="#A5CD89"/>
<path d="M555.007 380.636C555.007 384.196 549.198 402.933 548.012 407.617C532.647 414.238 517.845 422.295 502.981 429.852C436.339 463.828 362.141 510.046 339.282 585.993C334.16 603.044 332.099 620.657 328.664 638.02C327.852 642.204 326.915 646.327 325.853 650.449C324.792 654.571 323.605 658.631 322.293 662.69C320.982 666.75 319.545 670.747 318.046 674.682C316.485 678.617 314.861 682.552 313.112 686.424C305.118 703.599 294.625 719.651 283.008 734.64C275.513 744.321 267.519 753.502 260.586 763.558C242.848 789.228 235.354 812.336 241.037 843.565C237.165 842.253 233.355 840.629 229.608 839.068C227.921 838.506 225.985 838.069 224.986 836.57C219.302 828.201 220.926 807.34 222.737 798.034C223.612 793.6 225.486 789.352 227.172 785.23C237.04 760.747 253.216 741.261 268.268 719.963C277.075 707.472 285.631 694.168 292.314 680.428C310.114 643.766 310.676 601.358 325.479 563.696C346.714 509.796 405.298 465.39 454.202 437.347C488.178 417.86 522.217 402.746 555.194 380.573L555.007 380.636Z" fill="#A5CD89"/>
<path d="M497.172 556.514C497.422 556.701 497.859 557.076 498.109 557.326C501.107 560.823 503.043 568.631 504.729 573.127C515.659 602.107 525.465 633.148 524.653 664.439C524.59 667.562 524.34 670.685 524.091 673.808C523.778 676.93 523.404 680.053 522.904 683.114C522.404 686.174 521.78 689.297 521.093 692.295C520.406 695.355 519.594 698.353 518.657 701.351C505.478 746.195 473.001 770.053 431.03 786.792C408.733 795.661 380.94 803.53 363.265 820.456C340.843 841.941 335.222 866.237 334.722 896.091L334.472 898.339L333.785 898.589C328.726 894.529 323.667 890.47 318.795 886.16C318.296 877.104 316.172 868.11 315.922 859.054C315.61 846.875 319.982 835.695 325.666 825.078C357.019 766.056 420.725 771.989 462.196 727.645C488.927 699.102 502.793 655.195 501.856 616.535C501.356 596.424 497.859 576.563 497.234 556.514H497.172Z" fill="#A5CD89"/>
<path d="M-105.972 325.549C-100.164 323.051 -92.9813 320.99 -87.6725 317.68C-86.8606 315.619 -86.4858 313.37 -84.7995 311.871L-83.6128 311.996C-83.0507 319.428 -78.7412 328.172 -78.6788 333.793H-79.4282C-79.7405 333.793 -80.0528 333.793 -80.3651 333.793C-80.6774 333.793 -80.9897 333.793 -81.3019 333.856C-81.6142 333.856 -81.9265 333.918 -82.2388 333.981C-82.5511 333.981 -82.8633 334.106 -83.1132 334.168C-83.4255 334.231 -83.7377 334.293 -83.9876 334.356C-84.2999 334.418 -84.5497 334.543 -84.862 334.605C-85.1742 334.668 -85.4241 334.793 -85.7364 334.918C-86.0486 335.043 -86.2985 335.167 -86.6108 335.23C-86.8606 335.355 -87.1729 335.48 -87.4227 335.605C-87.6725 335.73 -87.9848 335.854 -88.2346 336.042C-88.4845 336.229 -88.7343 336.354 -89.0466 336.479C-89.2964 336.666 -89.5462 336.791 -89.796 336.979C-90.0459 337.166 -90.2957 337.353 -90.5455 337.541C-90.7954 337.728 -91.0452 337.916 -91.2325 338.103C-91.4824 338.29 -91.6697 338.478 -91.9196 338.727C-92.1694 338.915 -92.3568 339.165 -92.5441 339.352C-94.7926 341.788 -95.1673 345.598 -94.9175 348.783C-94.2929 359.026 -86.236 368.394 -78.8037 374.765C-63.4393 387.881 -41.9542 392.877 -23.2172 399.123C-13.5364 402.433 -3.9181 405.993 5.57532 409.866C24.2499 417.548 41.6753 428.29 58.1638 439.845C79.4616 454.834 97.6364 472.197 111.877 494.057C120.496 507.298 128.24 521.288 137.421 534.217C175.895 588.679 227.109 623.655 295.437 622.531C293.563 631.462 291.502 640.456 288.691 649.2C262.085 641.58 234.854 635.709 209.684 623.905C167.213 603.918 140.294 566.007 113.126 529.283C106.693 520.601 100.572 511.545 93.5143 503.363C79.5865 487.187 62.8481 473.634 46.1097 460.58C25.9362 444.841 3.07704 433.662 -20.4067 423.731C-48.6371 411.802 -103.037 400.247 -118.401 372.454C-122.773 364.585 -123.835 355.841 -121.212 347.159C-120.212 343.849 -118.589 340.726 -116.84 337.728C-113.654 333.169 -110.719 328.36 -105.972 325.299V325.549Z" fill="#A5CD89"/>
<path d="M633.952 -0.0374756H674.237C666.117 7.51978 657.186 11.5795 649.691 20.3234C632.516 40.372 620.399 68.54 610.531 92.9605C608.22 98.7065 606.596 104.765 604.16 110.448C600.413 119.192 592.793 127.124 586.672 134.369C561.752 163.661 540.767 178.651 506.041 194.578C494.112 200.074 482.12 205.32 469.691 209.567C463.758 210.754 457.137 214.501 451.454 216.875C429.531 226.056 405.111 234.737 387.311 251.101C386.749 251.663 386.124 252.225 385.562 252.787C385 253.349 384.438 253.911 383.876 254.536C383.313 255.098 382.751 255.723 382.189 256.285C381.627 256.909 381.127 257.471 380.565 258.096C380.003 258.721 379.504 259.345 379.004 259.907C378.504 260.469 378.005 261.156 377.442 261.781C376.943 262.405 376.443 263.03 375.944 263.717C375.444 264.342 375.007 265.029 374.507 265.653C374.007 266.34 373.57 266.965 373.133 267.652C372.696 268.339 372.259 268.963 371.759 269.65C371.322 270.337 370.885 271.025 370.447 271.712C370.01 272.399 369.635 273.086 369.198 273.773C368.823 274.46 368.386 275.147 368.012 275.896C367.637 276.583 367.262 277.333 366.887 278.02C366.513 278.769 366.138 279.456 365.826 280.206C365.451 280.955 365.139 281.642 364.764 282.392C364.452 283.141 364.077 283.891 363.764 284.64C363.452 285.39 363.14 286.139 362.828 286.889C362.515 287.638 362.266 288.387 361.953 289.137C361.641 289.886 361.391 290.636 361.141 291.448C360.891 292.197 360.642 293.009 360.392 293.759C360.142 294.508 359.892 295.32 359.705 296.07C359.455 296.819 359.268 297.631 359.08 298.381C358.893 299.192 358.706 299.942 358.518 300.754C358.331 301.566 358.143 302.315 357.956 303.127C357.769 303.939 357.644 304.689 357.456 305.501C357.331 306.313 357.144 307.062 357.019 307.874C356.894 308.686 356.769 309.498 356.644 310.247C356.52 311.059 356.457 311.871 356.332 312.683C356.27 313.495 356.145 314.307 356.082 315.119C356.02 315.931 355.957 316.743 355.895 317.555C355.832 318.367 355.832 319.179 355.77 319.991C355.458 329.047 357.269 338.29 359.767 346.972C371.634 388.381 402.987 407.18 430.968 437.034C425.347 439.845 419.913 443.405 414.479 446.59C396.117 428.54 366.45 399.873 353.272 378.637C349.275 372.267 346.277 365.147 344.091 357.902C335.347 328.61 338.969 289.574 353.647 262.655C376.006 221.621 427.22 204.383 469.254 191.892C482.744 188.769 506.166 176.34 518.47 169.095C535.083 159.29 554.195 146.673 565.999 131.122C571.246 124.189 574.368 114.196 577.991 106.201C594.854 68.415 604.91 31.3158 633.827 -0.0374756L633.952 -0.0374756Z" fill="#A5CD89"/>
<path d="M59.7879 487.312C65.0967 491.559 69.781 496.68 74.2779 501.739C78.4625 506.486 83.3341 511.483 86.3945 517.041C92.4528 527.846 96.2001 553.703 97.6367 566.694C103.008 614.536 95.2633 663.128 64.4722 701.538C36.0544 737.014 0.454056 763.808 -40.1428 784.044C-48.7618 788.353 -57.6931 793.287 -66.9367 795.91C-57.6306 803.967 -47.7 811.712 -39.5182 820.956C-16.3468 847.312 -2.29402 884.349 9.38538 917.076C11.6963 923.634 14.5068 930.192 16.5679 936.813H-7.66531C-18.158 909.394 -27.7139 880.477 -42.3912 854.932C-66.1872 813.461 -110.282 784.044 -155.875 771.677V751.941C-140.698 756.438 -125.833 761.122 -111.843 768.617C-102.849 773.488 -94.3552 779.422 -85.299 784.044C-24.0914 760.685 42.3 716.341 69.9059 654.821C93.4521 602.357 75.4645 539.463 59.7879 487.25V487.312Z" fill="#A5CD89"/>
<path d="M914.695 30.129L916.443 30.6287C919.941 35.875 920.69 44.3692 921.253 50.5524C922.065 59.3588 920.628 86.2151 915.132 92.898C912.009 97.2075 905.014 101.142 900.455 103.953C877.158 117.943 849.865 126.874 823.508 132.933C808.831 136.305 794.091 138.866 779.538 142.801C764.237 146.923 748.997 151.857 734.632 158.602C684.917 182.024 656.624 208.505 625.833 253.474C613.903 270.837 601.724 289.574 587.484 305.188C585.236 300.566 582.862 295.945 580.489 291.385C588.546 279.956 593.105 266.215 597.415 253.037C606.034 226.805 614.403 200.511 633.14 179.463C664.493 144.237 713.959 126.312 759.552 119.692C806.957 112.822 830.503 116.507 875.534 93.4601C883.404 89.4004 893.959 84.2165 899.643 77.3463C906.013 69.6641 915.632 40.1221 914.632 30.1915L914.695 30.129Z" fill="#A5CD89"/>
<path d="M54.7289 205.632C60.1626 207.506 65.2216 210.192 70.8427 211.566C71.7171 268.027 95.4507 309.061 141.169 341.288C161.842 355.841 183.639 368.769 200.565 387.943C209.809 398.374 217.741 410.053 223.362 422.857C229.108 435.848 233.417 449.526 240.288 462.017C258.15 494.682 291.502 520.851 327.04 531.281L318.234 545.584C311.238 544.522 303.931 542.274 297.186 540.025C263.709 528.783 240.1 505.737 222.55 475.633C216.367 465.077 211.308 453.898 204.812 443.467C196.193 429.54 185.326 415.986 173.397 404.744C136.547 369.831 81.2106 354.779 57.477 306.812C41.1134 273.773 43.2993 239.734 54.7289 205.695V205.632Z" fill="#A5CD89"/>
<path d="M-113.779 -0.0374756H-97.4781C-96.6662 4.27204 -96.1665 8.644 -95.3546 12.9535C-87.8598 52.9882 -65.4378 93.023 -35.646 120.754C-12.4746 142.301 25.4366 160.539 54.9162 171.156C75.9016 178.714 97.0744 184.709 116.873 195.202C144.916 210.004 170.523 231.864 195.007 251.788C204.75 259.72 214.805 267.34 224.611 275.209C260.211 303.877 295.437 334.855 324.292 370.518C328.476 375.639 332.411 380.948 336.096 386.382C339.781 391.816 343.279 397.437 346.526 403.183C361.079 429.227 366.637 445.966 392.182 463.391C387.186 467.076 382.439 470.948 377.755 475.008C352.897 459.082 344.215 439.907 330.912 414.737C327.727 408.554 324.292 402.558 320.607 396.625C316.922 390.754 313.05 385.008 308.927 379.387C289.691 353.78 263.896 332.045 239.226 311.871L178.955 262.655C154.597 242.981 130.364 223.557 102.196 209.442C80.5859 198.637 57.6018 192.704 34.8051 185.022C10.2597 176.715 -14.2858 164.411 -34.8341 148.547C-44.5148 141.115 -52.197 131.996 -59.8167 122.503C-88.297 87.152 -107.846 45.1812 -113.779 -0.0374756Z" fill="#A5CD89"/>
<path d="M1021.62 761.372C1027.68 762.059 1033.74 763.995 1039.92 764.744C1057.28 766.806 1074.83 767.055 1091.82 771.552C1093.63 774.675 1093.57 794.099 1092.57 797.846C1092.45 798.221 1092.26 798.658 1092.13 799.033C1093.63 802.593 1093.76 814.647 1092.57 818.457C1092.45 818.894 1092.13 819.456 1091.88 819.831C1060.41 808.964 1023.87 813.461 994.14 827.888C959.226 844.876 934.493 875.23 916.568 908.894C912.946 915.702 906.076 932.128 901.829 936.875H841.371C854.611 924.758 867.665 892.406 878.158 876.417C906.388 833.509 947.672 802.718 991.516 777.111C998.699 772.989 1005.94 769.116 1013.31 765.431C1015.81 764.182 1018.87 763.308 1021.12 761.809C1021.31 761.684 1021.5 761.559 1021.68 761.434L1021.62 761.372Z" fill="#344D27"/>
<path d="M878.72 936.813C883.654 932.753 890.836 912.205 893.647 905.522C906.95 874.044 924.188 852.808 950.732 831.698C962.349 822.454 974.653 813.96 988.019 807.402C1013.31 794.911 1038.55 792.288 1066.4 794.661C1074.83 795.348 1084.08 796.223 1092.13 798.971C1093.63 802.531 1093.76 814.585 1092.57 818.395C1092.45 818.832 1092.13 819.394 1091.88 819.769C1060.41 808.901 1023.87 813.398 994.14 827.826C959.226 844.814 934.494 875.168 916.568 908.832C912.946 915.64 906.076 932.066 901.829 936.813H878.72Z" fill="#A5CD89"/>
<path d="M-155.938 361.524C-148.068 384.258 -133.453 402.371 -111.468 412.926C-95.1672 420.796 -76.9298 423.481 -59.8167 429.102C-24.6536 440.657 -3.35585 456.708 17.9419 486.625C27.1855 499.616 32.0571 506.923 37.4908 522.225C52.6053 565.195 65.284 593.801 44.1112 638.02C24.1251 679.803 -13.8486 711.719 -52.5092 735.702C-61.6279 741.386 -71.9333 748.069 -82.1137 751.566C-91.4822 754.814 -102.537 754.439 -112.28 756.5C-117.464 754.689 -122.586 752.878 -127.457 750.379C-70.5592 723.523 -12.7868 691.483 9.63515 628.776C20.0654 599.609 16.8177 577.187 13.0078 547.395C12.3208 542.211 12.5081 536.903 11.946 531.719C11.1341 524.411 7.8239 516.542 4.70107 509.859C-12.3496 473.946 -40.6425 459.956 -76.4926 447.34C-106.035 436.909 -133.453 429.727 -155.938 406.243V361.399V361.524Z" fill="#A5CD89"/>
<path d="M781.787 646.451C812.328 638.395 847.679 612.725 868.664 589.553C880.906 576.063 891.399 560.761 902.328 546.146C913.633 531.032 925 516.292 935.243 500.428C947.859 480.879 959.102 459.331 974.091 441.531C978.401 436.41 983.834 431.788 989.206 427.728C993.952 424.168 1017.06 410.678 1018.5 407.867C1018.56 407.742 1018.62 407.555 1018.62 407.43C1021.37 409.991 1027.49 419.234 1027.68 422.919C1027.55 423.044 1027.37 423.231 1027.24 423.356C1025.06 425.48 1021.75 427.041 1019.18 428.915C1012.38 434.036 1006.19 439.657 1000.76 446.215C989.955 459.144 979.587 476.757 970.094 490.997C959.102 507.485 947.734 523.599 936.367 539.838C908.699 579.436 881.78 616.16 840.184 642.454C833.689 646.576 826.319 651.323 819.136 654.134C817.762 655.758 813.765 657.194 811.704 658.193C791.655 667.687 769.546 674.057 747.623 677.43C694.535 685.549 634.889 673.808 591.232 641.642C574.618 629.401 552.134 608.853 541.142 591.427C527.588 569.942 517.408 530.407 513.598 505.237C520.406 500.865 527.276 496.618 534.271 492.496C534.146 512.607 535.833 531.219 542.016 550.456C554.32 588.679 583.924 618.221 619.15 636.209C668.928 661.691 729.136 663.315 781.725 646.451H781.787Z" fill="#A5CD89"/>
<path d="M12.5081 189.519C16.6927 191.58 20.7524 193.516 25.1243 195.077C19.5032 211.004 13.7572 226.68 12.1333 243.606C7.0119 296.819 25.7489 342.725 70.3429 373.266C95.3881 390.442 122.12 403.433 143.605 425.542C146.29 428.29 148.851 431.101 151.349 434.036C153.848 436.909 156.221 439.907 158.532 442.968C160.843 446.028 163.029 449.151 165.152 452.336C167.276 455.522 169.274 458.769 171.21 462.079C181.953 480.504 190.26 499.491 204 516.105C232.168 550.268 265.02 565.508 308.553 569.755C306.367 577.437 304.181 585.119 302.182 592.864C297.435 592.926 292.814 592.739 288.129 592.427C229.732 587.18 190.947 557.201 159.968 508.984C144.479 484.876 130.863 459.893 110.752 439.095C92.8274 420.546 70.4679 409.429 48.9828 395.751C40.9259 390.504 33.1812 384.883 25.7489 378.762C0.391479 358.089 -19.2199 328.485 -22.5301 295.508C-25.5905 265.029 -16.8466 238.047 -1.98187 211.816C2.3901 204.133 6.82453 196.451 12.4456 189.581L12.5081 189.519Z" fill="#A5CD89"/>
<path d="M985.958 -0.0374756H1010.38C1012.94 2.39833 1014.56 5.70854 1016.19 8.83137C1038.98 52.2388 1048.41 120.941 1033.42 168.158C1026.3 190.705 1007.07 213.564 990.58 230.178C942.55 278.707 904.952 296.757 841.058 316.618C819.323 323.363 796.777 329.234 776.478 339.789C683.855 387.943 698.782 442.468 671.301 529.533C664.618 515.293 660.746 487.312 659.747 471.386C658.248 446.215 665.805 420.296 676.235 397.624C699.719 346.597 739.691 317.929 793.029 302.753C813.952 296.819 835.562 293.009 856.36 286.389C868.914 282.392 881.093 277.02 893.022 271.524C930.184 254.473 954.417 238.36 981.836 207.381C994.514 193.016 1012.44 169.782 1017.87 151.233C1022.56 135.494 1022.25 113.696 1021.25 97.3949C1019.37 67.9779 1011.19 39.8723 996.138 14.4525C993.328 9.70577 990.017 3.64747 985.895 -0.0374756L985.958 -0.0374756Z" fill="#A5CD89"/>
<path d="M901.829 936.813C906.076 932.066 912.946 915.64 916.568 908.832C934.494 875.23 959.226 844.814 994.14 827.826C1023.81 813.398 1060.41 808.901 1091.88 819.769C1093.51 822.767 1093.57 840.13 1092.57 843.502C1092.45 843.939 1092.26 844.252 1092.07 844.689C1093.51 847.937 1093.76 864.925 1092.45 868.36C1092.32 868.61 1092.2 868.922 1092.13 869.172C1093.7 872.607 1093.82 893.03 1092.51 896.778C1092.38 897.278 1092.32 897.278 1092.13 897.652C1093.45 900.838 1093.76 916.264 1092.45 919.512C1092.32 919.762 1092.2 920.012 1092.07 920.324C1093.51 923.447 1093.76 932.253 1092.51 935.626C1092.38 936.063 1092.13 936.375 1091.88 936.813H901.891H901.829Z" fill="#344D27"/>
<path d="M933.369 922.135C938.366 924.384 947.235 931.441 949.983 936.063V936.813C950.045 936.813 926.249 936.813 926.249 936.813C928.435 934.002 933.494 925.508 933.369 922.135Z" fill="#A5CD89"/>
<path d="M941.114 85.0284C941.551 85.3407 941.926 85.8404 942.301 86.2776C944.112 94.8966 941.364 115.257 937.491 122.94C934.868 128.186 930.996 133.12 927.436 137.804C901.704 171.781 861.107 190.893 820.51 200.698C809.393 203.384 797.838 204.633 786.596 206.757C775.354 208.88 763.987 212.19 753.119 215.813C684.354 238.922 639.573 282.329 607.72 346.847C598.414 365.646 591.981 384.883 587.047 405.244C576.679 448.089 575.43 490.934 589.733 533.093C600.225 564.071 618.962 586.805 648.504 601.358C681.606 617.659 728.262 616.847 762.675 604.98C821.447 584.744 838.123 547.77 872.911 501.552C876.409 496.868 879.844 492.121 883.654 487.624C888.088 482.44 895.271 476.569 898.269 470.573C900.142 467.576 899.393 460.456 901.142 456.458C909.573 437.222 923.751 417.923 938.116 402.746C945.673 394.814 954.355 387.631 963.286 381.26C969.719 376.701 996.013 360.65 999.136 356.528C1000.45 358.401 1007.13 381.947 1006.82 384.133C1005.01 386.257 1001.32 387.693 998.761 388.755C996.95 391.129 982.023 398.998 978.4 401.559C965.285 410.678 951.856 422.294 941.926 434.911C929.559 450.587 920.003 468.637 909.074 485.376C900.205 498.991 889.837 511.358 880.031 524.286C861.544 548.644 845.056 572.94 821.072 592.489C786.534 620.657 731.384 636.021 687.227 631.524C649.816 627.714 611.905 607.416 588.171 578.124C559.816 543.086 552.821 486.937 557.38 443.467C561.752 401.559 573.619 361.899 594.292 325.174C603.598 308.686 614.153 292.447 626.52 278.082C665.93 232.301 722.89 200.573 779.601 181.462C793.154 176.902 807.144 173.467 820.947 169.72C859.046 159.289 895.583 147.11 926.624 121.878C929.31 119.692 932.183 117.256 934.056 114.383C937.929 108.45 940.427 92.6482 941.114 85.5906C941.114 85.4032 941.114 85.2783 941.114 85.0909V85.0284Z" fill="#A5CD89"/>
<path d="M925.687 -0.0374756H950.732C951.169 0.274808 951.607 0.587091 951.981 0.899374C955.854 4.20958 959.476 8.70646 962.599 12.7037C980.774 35.9376 990.642 65.7294 992.766 94.9591C993.89 110.074 994.452 129.31 989.768 143.863C986.395 154.293 978.713 163.849 972.217 172.53C944.424 209.754 912.571 229.366 869.539 245.854C857.36 250.539 844.993 255.036 832.502 258.721C803.522 267.34 776.291 270.213 747.686 282.079C719.83 293.634 692.349 312.121 672.613 335.043C640.822 371.954 622.397 424.231 626.02 473.009C628.019 500.178 636.138 532.156 657.748 550.581C675.736 565.945 701.405 567.194 723.952 565.383C749.997 563.322 773.605 554.141 795.215 539.588C823.633 520.414 844.618 496.556 857.672 464.64C861.294 455.709 864.167 446.465 867.54 437.472C875.784 415.362 886.277 393.564 901.704 375.514C930.434 341.913 973.092 320.365 1016.19 311.996C1030.43 309.186 1049.35 307.749 1064.09 306.625C1062.53 311.621 1051.97 318.804 1047.54 321.115C1035.11 327.61 1019.56 329.671 1006.13 333.544C964.972 345.348 929.684 370.268 908.512 407.992C906.326 411.864 904.389 415.862 902.703 419.921C901.017 423.981 899.518 428.165 898.269 432.475C896.457 439.095 895.271 445.841 892.648 452.211C890.462 457.707 887.151 463.079 883.841 468.013C876.659 478.818 867.478 488.624 859.296 498.742C828.692 536.715 796.589 572.69 746.499 582.621C715.583 588.742 676.235 588.242 649.191 569.942C628.581 555.952 616.214 528.908 611.78 505.05C600.35 443.905 618.525 378.325 653.314 327.548C689.226 275.147 738.442 249.165 799.4 235.049C811.142 232.301 823.133 230.553 834.938 228.304C887.526 218.498 921.44 200.948 952.106 156.104C956.666 149.421 961.038 142.301 963.973 134.744C970.219 118.443 970.406 97.6448 967.158 80.5941C962.661 56.7356 949.421 32.5025 932.745 14.9521C929.934 11.9542 926.936 8.58155 923.501 6.27065C924.063 5.70854 924.625 5.02151 925 4.27204C925.812 2.77307 925.937 1.5864 925.562 0.0249811L925.687 -0.0374756Z" fill="#A5CD89"/>
</g>
<defs>
<clipPath id="clip0_10_427">
<rect width="937" height="937" fill="white"/>
</clipPath>
</defs>
</svg>
