<svg width="400" height="400" viewBox="0 0 400 400" fill="none" xmlns="http://www.w3.org/2000/svg">
<g clip-path="url(#clip0_2262_2464)">
<rect width="400" height="400" rx="200" fill="white"/>
<path d="M-66.5688 -0.0161133H466.093C466.893 1.37033 466.813 4.94309 466.439 6.54284C466.413 6.70281 466.306 6.88945 466.253 7.04942C466.813 8.67583 466.893 20.114 466.306 21.6604C466.306 21.7137 466.253 21.7937 466.226 21.8471C466.759 23.1802 466.893 38.0045 466.333 39.3109C466.306 39.4176 466.253 39.4976 466.199 39.6042C466.839 41.0173 466.946 46.883 466.333 48.3495C466.279 48.4561 466.226 48.5628 466.173 48.6694C466.786 50.0825 466.893 57.2814 466.333 58.7745C466.279 58.8811 466.226 59.0144 466.199 59.1211C466.759 60.4542 466.866 64.5602 466.359 65.92C466.306 66.08 466.173 66.2666 466.093 66.4266C466.893 67.8397 466.893 77.2515 466.413 78.9313C466.359 79.0912 466.279 79.2512 466.226 79.4112C466.786 80.7976 466.946 87.8898 466.333 89.2496C466.279 89.3562 466.226 89.4629 466.173 89.5696C466.866 91.036 466.919 98.3681 466.413 100.075C466.333 100.314 466.199 100.554 466.093 100.794C466.919 102.288 466.893 107.78 466.413 109.46C466.333 109.7 466.199 109.94 466.093 110.18C466.306 110.58 466.466 110.873 466.493 111.326C466.706 113.566 466.893 127.297 466.386 128.95C466.333 129.137 466.253 129.27 466.173 129.43C466.386 129.91 466.493 130.31 466.519 130.843C466.733 135.296 466.893 171.61 466.279 173.289C466.279 173.343 466.226 173.396 466.226 173.449C466.866 175.049 466.946 184.381 466.226 186.061C466.226 186.114 466.173 186.167 466.146 186.221C466.839 187.661 466.919 193.686 466.306 195.259C466.253 195.366 466.199 195.499 466.146 195.606C466.759 196.966 466.866 205.471 466.306 206.964C466.253 207.071 466.199 207.204 466.146 207.311L466.066 208.324C466.626 209.417 466.706 211.177 466.359 212.35C466.279 212.59 466.173 212.777 466.039 213.016C466.866 214.51 466.839 220.269 466.359 221.948C466.279 222.188 466.146 222.428 466.039 222.668C466.733 223.921 466.813 232.373 466.333 233.786C466.253 234 466.146 234.16 466.039 234.346C466.813 235.786 466.866 241.039 466.333 242.638C466.279 242.825 466.146 243.038 466.039 243.198C466.786 244.611 466.813 253.277 466.333 254.876C466.253 255.116 466.173 255.223 466.066 255.463C466.813 256.903 466.813 265.168 466.306 266.768C466.253 266.928 466.199 267.034 466.119 267.168C466.706 268.554 466.866 277.513 466.279 279.059C466.173 279.353 466.146 279.379 466.013 279.646C466.786 281.139 466.759 288.338 466.226 289.964C466.173 290.177 466.146 290.177 466.066 290.337C466.679 291.617 466.813 302.362 466.253 303.962C466.199 304.149 466.146 304.202 466.066 304.388C466.733 305.828 466.786 312.787 466.306 314.494C466.253 314.654 466.146 314.893 466.066 315.053C466.599 316.28 466.759 319.559 466.199 320.839C466.173 320.919 466.119 320.999 466.093 321.079C466.706 322.546 466.759 327.345 466.279 328.838C466.226 329.025 466.093 329.238 465.986 329.424C466.759 330.758 466.733 339.05 466.306 340.649C466.253 340.809 466.173 340.996 466.119 341.156C466.759 342.676 466.813 347.822 466.306 349.448C466.253 349.635 466.119 349.875 466.013 350.035C466.706 351.314 466.733 358.726 466.306 360.166C466.253 360.353 466.173 360.486 466.093 360.673C466.706 362.059 466.813 369.311 466.253 370.778C466.199 370.885 466.146 371.018 466.119 371.124C466.786 372.591 466.839 381.31 466.279 382.909C466.226 383.123 466.199 383.123 466.119 383.283C466.679 384.642 466.813 391.228 466.253 392.614C466.199 392.721 466.146 392.828 466.093 392.961C466.706 394.294 466.813 398.054 466.279 399.493C466.226 399.68 466.119 399.813 466.013 400H-66.5688V-0.0161133Z" fill="#344D27"/>
<path d="M136.572 -0.0161133H147.743C148.063 0.57046 148.25 0.997058 148.33 1.66362C147.61 4.27653 145.104 6.46285 143.264 8.32922C140.971 5.60965 138.865 2.73011 136.572 -0.0161133Z" fill="#A5CD89"/>
<path d="M246.287 384.669C241.542 389.415 237.569 394.187 234.076 399.92H227.517C228.157 399.12 228.824 398.347 229.49 397.6C230.157 396.854 230.877 396.107 231.596 395.387C232.316 394.667 233.036 393.974 233.809 393.281C234.556 392.614 235.329 391.948 236.129 391.308C236.929 390.668 237.729 390.055 238.529 389.442C239.355 388.855 240.182 388.268 241.035 387.709C241.888 387.149 242.741 386.615 243.621 386.109C244.501 385.602 245.381 385.122 246.287 384.642V384.669Z" fill="#A5CD89"/>
<path d="M231.357 83.5439C231.57 84.5038 226.824 97.4084 226.158 99.5947C223.705 98.2883 221.305 96.8485 218.879 95.462C217.412 94.6888 215.999 93.729 214.56 92.8491C220.239 89.8896 225.838 86.7968 231.357 83.5439Z" fill="#A5CD89"/>
<path d="M305.745 -0.0161133H322.675C319.636 1.63696 315.956 2.67679 312.704 3.82327C304.385 6.7828 296.146 9.58235 288.761 14.5416C292.893 7.92928 299.239 3.95658 305.745 -0.0161133Z" fill="#A5CD89"/>
<path d="M110.709 -0.0161133H122.308C127.613 4.78312 131.959 10.0623 135.612 16.2213C133.053 18.0077 130.493 19.7941 127.907 21.5004C123.561 13.6084 117.242 6.1429 110.709 -0.0161133Z" fill="#A5CD89"/>
<path d="M276.47 291.217C280.282 291.804 284.015 292.924 287.881 293.27C286.335 303.429 282.575 311.907 276.016 319.799C274.043 321.932 271.83 323.799 269.564 325.612C274.043 313.107 275.856 304.468 276.47 291.217Z" fill="#A5CD89"/>
<path d="M54.5049 371.498C59.5707 373.977 64.9832 375.364 69.9957 378.057L70.3157 378.11C74.0751 378.59 77.8612 378.11 81.6472 378.777C95.9116 381.15 111.856 390.055 122.307 399.947H110.709C102.817 392.828 92.5788 387.015 82.687 383.229C78.0744 381.443 73.2752 380.11 68.6893 378.19C67.5695 377.763 65.9697 377.71 64.7699 377.497C59.7307 376.59 58.2643 374.804 54.5049 371.498Z" fill="#A5CD89"/>
<path d="M256.393 283.405C259.006 284.312 261.538 285.565 263.965 286.871C265.325 297.216 264.685 308.228 260.632 317.933C258.979 321.879 254.633 329.958 251.593 332.784C250.98 333.371 250.154 333.664 249.38 333.984C247.327 334.97 245.088 335.664 242.981 336.463C253.646 317.986 257.432 304.735 256.419 283.405H256.393Z" fill="#A5CD89"/>
<path d="M70.7688 -0.0161133H95.8048C106.923 8.14258 111.269 16.4612 120.254 26.2464C117.641 27.2595 115.082 28.5393 112.496 29.7125C110.469 28.1127 108.15 26.513 106.523 24.46C105.003 22.5669 103.937 20.4339 102.284 18.5942C93.3786 8.54252 83.1402 4.11656 70.7422 -0.0161133H70.7688Z" fill="#A5CD89"/>
<path d="M305.878 399.92C316.463 393.601 329.101 389.922 337.793 380.776C340.166 378.27 342.219 375.337 344.245 372.538C345.579 370.725 348.671 366.752 349.071 364.646C349.071 364.566 349.071 364.486 349.071 364.432C349.871 365.259 351.284 367.205 351.231 368.405C351.231 368.458 351.231 368.538 351.204 368.592C351.524 370.565 349.925 373.178 349.605 375.177C349.311 376.99 349.605 379.017 349.045 380.776C348.645 382.003 347.978 383.176 347.232 384.243C341.313 392.481 331.847 395.921 323.075 399.947H305.852L305.878 399.92Z" fill="#A5CD89"/>
<path d="M205.868 -0.0161133H216.053C212.693 5.31637 209.947 10.9421 206.747 16.3546C197.042 32.7786 186.671 39.0176 168.967 45.23C173.153 41.3106 177.952 38.0311 182.165 34.0584C187.897 28.646 193.203 22.4603 197.256 15.6614C200.295 10.5422 202.881 5.12973 205.894 -0.0161133L205.868 -0.0161133Z" fill="#A5CD89"/>
<path d="M201.415 96.502C201.841 96.502 202.134 96.5019 202.508 96.7152C205.627 98.235 208.587 100.315 211.653 101.994C223.704 108.66 234.902 114.979 240.902 128.044C242.981 132.576 243.808 137.562 245.461 142.255C243.888 144.814 242.261 147.347 240.928 150.067L239.328 153.373C234.929 137.189 232.423 123.484 218.345 112.633C213.813 109.14 208.72 106.394 204.294 102.794C202.881 101.648 199.708 99.3015 199.521 97.4618C200.081 97.3818 200.908 96.7952 201.415 96.5286V96.502Z" fill="#A5CD89"/>
<path d="M42.1601 286.312C43.7332 287.858 44.9064 290.524 46.0529 292.444C48.7191 296.843 52.0519 301.109 56.0246 304.389C69.8091 315.8 81.8071 308.921 92.3921 329.745C91.3523 331.718 90.4991 333.824 89.6192 335.877C89.5126 335.957 89.3526 335.877 89.2193 335.877C83.4335 327.372 75.4615 323.372 66.3163 319.346C62.077 317.48 57.9176 315.507 54.5048 312.307C47.8926 306.095 44.6398 297.856 39.8672 290.364L42.1068 286.285L42.1601 286.312Z" fill="#A5CD89"/>
<path d="M163.447 121.538C164.14 122.284 164.3 125.724 164.62 126.87C165.5 129.936 166.807 132.976 168.326 135.776C171.259 141.161 175.525 145.214 179.818 149.48C182.271 151.933 184.644 154.413 186.43 157.399C189.283 162.145 190.67 167.877 192.723 173.023C193.442 174.836 194.562 176.489 195.229 178.275C195.469 178.889 195.549 179.449 195.549 180.088C195.096 180.888 194.536 180.888 193.709 181.182L193.256 181.395C191.656 180.648 186.697 173.53 185.177 171.69C180.165 165.664 174.619 160.065 169.713 153.959C168.22 152.093 166.807 150.147 165.66 148.014C161.154 139.642 160.754 130.523 163.474 121.538H163.447Z" fill="#A5CD89"/>
<path d="M47.7858 267.835C48.8257 268.928 49.6789 270.554 50.5054 271.834C52.4251 274.793 54.3181 277.78 56.6111 280.473C61.8369 286.578 69.489 291.271 77.0612 293.884C81.4071 295.403 85.8598 296.497 90.0724 298.39C96.498 301.269 100.604 306.468 103.03 312.974C101.99 314.254 101.137 315.56 100.311 316.973L99.0043 319.186C91.7255 307.801 83.9667 305.055 72.1019 300.549C67.8893 298.95 63.8899 297.136 60.5838 293.99C54.4248 288.125 50.5854 279.833 46.5327 272.5C46.8527 270.901 47.2793 269.354 47.7858 267.808V267.835Z" fill="#A5CD89"/>
<path d="M-11.1914 338.223C-8.55183 336.703 -5.91225 335.21 -3.43265 333.424C-2.39281 340.969 -1.03303 349.101 1.97982 356.167C3.63289 360.033 6.2458 363.526 8.61876 366.965C16.5108 378.43 25.7094 391.148 36.561 399.92H21.4167C14.9111 389.948 10.4318 379.017 4.53941 368.752C0.380079 361.499 -4.76577 355.047 -10.0449 348.595C-10.3115 345.129 -10.7115 341.663 -11.1914 338.223Z" fill="#A5CD89"/>
<path d="M34.4815 300.416C37.8943 306.602 40.5072 312.921 45.2264 318.36C55.0649 329.691 70.1825 328.625 79.8876 340.143C81.8339 342.463 88.2329 350.808 88.0196 353.501C87.3264 353.528 86.9798 353.154 86.3932 352.754C81.0874 349.688 76.1548 346.035 70.6357 343.262C66.6364 341.236 62.4504 339.53 58.451 337.53C41.4937 329.025 38.4275 320.626 31.522 304.095C32.6151 302.976 33.5217 301.669 34.4815 300.416Z" fill="#A5CD89"/>
<path d="M344.698 -0.0161133H358.963C358.963 0.117199 358.963 0.223848 358.909 0.35716C358.723 1.05038 357.47 2.22353 356.99 2.75678C348.538 11.6354 334.94 15.928 323.768 20.114C320.836 21.2338 317.956 22.6469 314.943 23.5801C308.144 25.7131 301.052 26.8596 294.253 29.0192C289.987 30.379 285.854 32.3254 281.668 33.9784C285.001 28.5127 289.88 26.8063 295.186 23.9267C298.252 22.2737 300.865 20.1673 304.092 18.7009C309.211 16.3813 314.757 14.6749 320.009 12.6752C323.448 11.3421 326.808 9.9023 330.141 8.32922C333.474 6.75614 336.753 5.07641 339.952 3.26336C341.179 2.57014 344.032 1.18369 344.645 -0.0161133L344.698 -0.0161133Z" fill="#A5CD89"/>
<path d="M188.963 100.235C189.843 100.768 190.99 103.754 191.683 104.767C192.776 106.42 194.056 108.047 195.469 109.46C200.055 114.046 206.401 116.739 211.36 120.898C222.958 130.603 227.197 146.281 228.504 160.758C227.091 161.745 225.571 162.625 224.104 163.531L219.652 165.957C218.852 161.292 218.745 156.546 218.052 151.88C216.426 140.468 210.453 131.723 202.295 123.964C199.095 120.925 195.362 118.445 192.296 115.246C188.43 111.246 186.297 107.06 186.404 101.488L188.963 100.235Z" fill="#A5CD89"/>
<path d="M172.966 109.433C174.246 110.153 176.752 114.099 177.952 115.459C179.285 116.979 180.725 118.472 182.271 119.778C195.069 130.683 204.241 136.495 205.921 154.946C206.507 161.345 207.04 167.131 209.173 173.263L206.934 174.409L204.454 175.609C202.188 170.73 200.695 165.424 199.255 160.252C197.842 155.239 196.695 149.693 193.789 145.294C187.79 136.229 176.592 132.256 172.593 121.485C171.073 117.405 171.179 113.406 173.019 109.46L172.966 109.433Z" fill="#A5CD89"/>
<path d="M343.286 347.662C344.245 349.155 344.352 351.501 344.565 353.261C344.245 355.154 342.992 357.1 342.086 358.753C337.313 367.445 331.048 373.231 322.995 378.91C315.69 384.029 307.611 387.175 299.879 391.495C295.507 393.921 291.614 396.747 287.801 399.947H270.657C278.549 391.708 291.294 384.242 301.906 380.19C305.985 378.617 310.677 377.79 314.517 375.684C324.169 370.405 334.78 360.726 341.126 351.714C341.872 350.648 343.312 348.941 343.312 347.662H343.286Z" fill="#A5CD89"/>
<path d="M49.2524 240.025C51.1455 242.052 52.5319 244.931 53.9184 247.331C58.0244 254.45 62.1037 261.435 68.6093 266.635C74.8483 271.62 82.6871 274.927 90.2325 277.406C96.5515 279.486 103.43 281.006 108.816 285.112C111.909 287.458 113.962 290.337 115.962 293.564C114.789 295.27 113.722 297.056 112.629 298.816C112.042 299.963 111.269 301.029 110.603 302.122C103.004 290.204 93.1654 288.684 81.274 283.672C75.3016 281.166 69.9691 277.993 65.2499 273.513C56.7979 265.515 49.5991 251.784 49.2524 239.999V240.025Z" fill="#A5CD89"/>
<path d="M378.107 265.968C378.747 266.608 377.787 270.287 377.6 271.3C376.374 278.393 375.067 285.245 372.774 292.097C370.695 298.336 367.975 304.335 365.709 310.494C362.403 319.559 359.843 331.264 360.829 340.916C361.256 345.049 362.349 348.941 363.736 352.861C364.429 354.807 367.868 359.553 368.055 360.78C368.055 360.86 368.055 360.966 368.082 361.046C368.055 362.539 363.842 368.405 362.669 369.605C362.243 368.912 361.683 368.538 361.043 368.058C360.723 366.672 358.536 364.619 357.683 363.339C354.51 358.513 353.017 353.047 352.431 347.368C351.764 340.809 351.231 333.851 352.537 327.372C353.844 320.839 356.483 314.814 359.096 308.708C363.069 299.376 367.095 289.858 368.348 279.699C368.562 278.019 368.908 275.806 368.402 274.18C371.201 272.767 376.187 268.474 378.08 265.995L378.107 265.968Z" fill="#A5CD89"/>
<path d="M344.672 150.333L345.311 150.44L345.418 150.653C339.366 159.105 334.433 167.69 330.674 177.396C328.114 183.981 326.061 190.753 323.475 197.312C317.876 211.523 307.638 225.708 293.266 231.974H293.187C293.187 231.947 293.187 231.627 293.187 231.627C307.238 215.736 305.958 204.591 313.05 186.541C316.943 176.676 323.368 167.744 330.994 160.438C333.527 158.012 336.3 155.532 339.232 153.639C340.886 152.573 342.885 151.8 344.405 150.6L344.698 150.36L344.672 150.333Z" fill="#A5CD89"/>
<path d="M21.417 -0.0161133H36.5612C46.3463 7.47602 57.5979 10.8355 68.9294 15.2081C70.9291 15.9813 80.2343 19.6341 80.9541 21.2338L80.3142 21.927C81.0608 23.2335 90.6326 27.2329 92.8189 28.5127C96.2584 30.4857 99.3512 32.8586 102.311 35.4715C99.8845 37.3379 97.3515 39.0443 94.8719 40.7774C91.5658 37.7912 87.7797 35.4715 83.8603 33.4185C76.4749 29.5525 68.9561 27.4728 60.9307 25.4465C42.6936 20.8605 32.2953 15.9547 21.417 0.0372115V-0.0161133Z" fill="#A5CD89"/>
<path d="M-3.24561 -0.0161133H7.12607C10.6988 8.96912 16.3513 18.3543 23.9234 24.54C31.4422 30.6723 43.067 34.965 52.4788 37.0446C64.6369 39.7375 75.0085 41.2839 85.2202 48.9627C81.4875 52.4022 78.0747 55.8949 75.1952 60.1076C65.3034 48.1628 40.4807 42.6704 26.3497 35.8182C11.3387 28.566 2.16686 15.5014 -3.24561 -0.0161133Z" fill="#A5CD89"/>
<path d="M8.1123 326.252L10.8319 324.572C15.3111 338.836 23.8964 352.754 32.4284 364.939C35.2813 369.018 38.1608 373.338 41.8669 376.724C43.44 378.163 45.173 379.257 47.0394 380.243C52.5852 383.176 58.6909 384.589 64.7166 386.269C75.7815 389.362 86.3931 393.121 95.7516 399.92H70.209C62.2103 397.334 54.3982 395.414 46.7994 391.681C43.9732 390.295 41.4403 388.295 38.9874 386.349C30.1088 379.337 23.7898 371.338 18.6173 361.233C12.8049 349.875 10.6452 338.596 8.1123 326.225V326.252Z" fill="#A5CD89"/>
<path d="M154.409 -0.0161133H164.514C158.995 12.8618 148.997 21.9537 137.958 30.1124C135.026 32.2721 132.093 34.6983 128.867 36.4047C125.934 37.9778 122.814 39.2043 119.801 40.644C114.416 43.177 109.003 46.1098 104.15 49.5493C103.431 50.0559 102.737 50.5891 102.044 51.1224C101.351 51.6556 100.658 52.2155 99.9912 52.7754C99.3246 53.3353 98.658 53.9219 98.0181 54.5085C97.3782 55.0951 96.7383 55.7083 96.1251 56.3215C95.5119 56.9348 94.8986 57.5747 94.2854 58.2146C93.6988 58.8545 93.1123 59.521 92.5257 60.1876C91.9658 60.8541 91.4059 61.5474 90.8726 62.2406C90.3394 62.9338 89.8061 63.627 89.2995 64.3469C88.7929 65.0668 88.2864 65.7867 87.8064 66.5332C87.3265 67.2798 86.8466 67.9997 86.3933 68.7729C85.9401 69.5194 85.5135 70.2926 85.0869 71.0658C84.6603 71.8391 84.2603 72.6123 83.8604 73.4121C83.4605 74.212 83.0872 74.9852 82.7406 75.8118C82.394 76.6116 82.0474 77.4382 81.7274 78.238C81.4075 79.0379 81.0875 79.8911 80.8209 80.7176C80.5276 81.5442 80.261 82.3707 79.9944 83.2239C78.8479 87.0633 78.2346 91.0626 77.5681 95.0087C76.5016 94.3954 75.4884 93.7289 74.4752 93.0357C73.4887 92.3158 72.5289 91.5692 71.5957 90.7694C71.5957 85.9435 72.7155 80.9576 74.022 76.3183C77.8614 62.8005 83.6204 55.3617 94.712 46.9897C99.058 43.7102 103.644 40.644 108.39 38.0045C112.016 36.0048 115.695 34.0851 119.428 32.2721C121.481 31.2855 123.907 30.379 125.8 29.1526C127.373 28.1127 128.467 26.433 129.933 25.2865C132.306 23.4468 134.892 21.8471 137.292 20.0073C144.064 14.7815 150.676 7.82263 154.382 0.0105491L154.409 -0.0161133Z" fill="#A5CD89"/>
<path d="M396.557 332.811C396.93 331.851 396.557 330.704 396.477 329.691C396.13 325.239 396.424 320.946 397.224 316.547C398.903 307.322 402.183 298.363 405.329 289.564C408.289 281.192 411.115 272.767 415.514 265.008C417.834 260.929 420.847 257.383 423.886 253.837C432.231 244.078 441.75 239.866 453.855 236.72C457.907 235.653 461.933 234.64 466.119 234.293C466.892 235.733 466.946 240.985 466.413 242.585C466.359 242.772 466.226 242.985 466.119 243.145C457.614 243.545 445.483 248.158 438.684 253.224C436.737 254.69 435.244 256.876 433.484 258.556C430.312 261.596 427.112 264.475 424.446 267.995C416.154 278.873 411.568 295.084 410.581 308.601C410.395 311.214 410.342 313.827 410.528 316.467C410.688 318.6 411.488 321.266 411.168 323.372C411.168 323.426 411.168 323.479 411.141 323.532C410.128 324.892 398.823 331.878 396.584 332.811H396.557Z" fill="#A5CD89"/>
<path d="M345.099 399.92C357.71 391.148 363.842 376.537 372.321 364.299C384.772 346.302 413.088 326.438 433.191 317.8C434.418 317.267 435.697 316.707 437.031 316.6C439.057 316.467 441.403 317.133 443.456 317.373C450.442 318.2 459.774 318.44 466.226 320.999C466.839 322.466 466.892 327.265 466.413 328.758C466.359 328.945 466.226 329.158 466.119 329.345C458.867 327.452 451.375 327.318 443.963 326.438C441.323 326.118 438.737 325.292 436.151 324.999C436.071 325.052 435.991 325.105 435.911 325.159C434.951 325.798 433.644 326.172 432.578 326.705C429.432 328.278 426.339 329.958 423.273 331.691C404.556 342.622 386.932 355.767 374.881 374.084C370.401 380.91 364.829 394.694 359.176 399.893H345.125L345.099 399.92Z" fill="#A5CD89"/>
<path d="M405.115 122.231H405.915C407.195 123.431 412.101 129.296 412.421 130.736C409.701 132.336 405.862 133.136 402.902 134.309C395.117 137.375 388.078 141.668 381.626 146.974C381.039 147.454 380.453 147.96 379.866 148.467C379.28 148.973 378.72 149.48 378.133 150.013C377.573 150.546 377.013 151.08 376.453 151.613C375.893 152.146 375.36 152.706 374.827 153.266C374.294 153.826 373.76 154.386 373.227 154.946C372.694 155.506 372.187 156.092 371.681 156.679C371.174 157.265 370.668 157.852 370.188 158.465C369.708 159.052 369.228 159.665 368.748 160.278C368.268 160.891 367.815 161.505 367.361 162.118C366.908 162.731 366.455 163.371 366.028 164.011C365.602 164.651 365.175 165.291 364.749 165.931C364.322 166.571 363.922 167.237 363.522 167.904C363.122 168.57 362.722 169.237 362.349 169.903C361.976 170.57 361.602 171.263 361.229 171.93C360.856 172.623 360.509 173.289 360.163 173.983C359.816 174.676 359.496 175.369 359.149 176.062C356.403 181.981 354.484 188.194 351.951 194.166C345.605 209.097 335.447 219.575 321.369 227.414C319.582 228.374 317.796 229.28 315.93 230.107C322.142 223.841 328.034 217.522 332.327 209.737C333.714 207.204 334.833 204.458 336.006 201.818C343.925 183.768 345.845 169.957 360.269 154.946C364.882 150.146 370.401 146.014 375.893 142.281C384.719 136.309 394.344 132.123 402.476 125.004C403.356 124.257 404.636 123.297 405.115 122.258V122.231Z" fill="#A5CD89"/>
<path d="M-27.9351 -0.0161133H-17.7767C-16.3103 8.94245 -10.9778 19.6607 -5.32534 26.7263C2.80669 36.858 8.96571 41.6306 20.5105 47.4163C27.1761 50.7491 33.9217 53.442 40.9339 55.8683C52.3454 59.841 60.5574 62.3739 69.6493 70.6392C68.7428 73.7587 67.8629 76.9049 67.0098 80.0511C54.4251 68.5329 44.5867 67.893 29.3358 62.5072C27.2828 61.7873 25.2831 61.0141 23.2834 60.1876C21.2837 59.3611 19.3107 58.4812 17.3377 57.548C15.3913 56.6148 13.445 55.6283 11.552 54.6151C9.65893 53.602 7.7659 52.5088 5.92619 51.3623C-7.59165 43.1236 -18.5232 29.1792 -24.0157 14.3816C-25.7487 9.74233 -26.7619 4.80978 -27.9084 0.0105491L-27.9351 -0.0161133Z" fill="#A5CD89"/>
<path d="M180.698 -0.0160622H192.27C181.498 19.5275 175.072 29.2593 156.435 42.0839C153.316 44.2435 150.17 46.7231 146.864 48.5895C139.318 52.8555 131.346 55.895 124.174 60.9342C113.296 68.5863 102.604 79.1446 97.9114 91.8626C95.9384 97.1951 94.9785 102.767 93.992 108.34C91.4058 106.74 89.0595 104.821 86.6865 102.954C87.3797 98.2349 87.8063 93.6223 89.0328 88.983C93.8854 70.5593 106.897 60.8542 123.294 52.7488C128.493 50.1892 134.146 48.1629 139.158 45.31C141.211 44.1635 142.758 42.0839 144.677 40.6974C160.355 29.3926 172.14 17.5278 180.645 -0.0427246L180.698 -0.0160622Z" fill="#A5CD89"/>
<path d="M18.2173 318.306L23.2565 313.4C24.7229 317.213 26.136 321.053 28.0557 324.679C34.1881 336.223 44.6664 343.636 56.3712 348.835C63.1701 351.874 70.2623 354.167 77.2478 356.727C98.4178 364.512 137.318 378.297 147.717 399.92H136.572C130.039 393.228 123.267 386.962 115.162 382.243C108.603 378.403 101.564 375.817 94.4984 373.124C88.2861 370.751 82.0204 368.485 75.7281 366.325C61.6503 361.606 45.4396 357.633 34.4813 347.022C26.2427 339.05 21.8434 328.998 18.2173 318.306Z" fill="#A5CD89"/>
<path d="M301.319 294.87C304.039 294.923 306.758 295.03 309.478 295.03C306.678 309.828 300.493 323.026 287.775 331.718C279.483 337.397 270.551 341.023 261.299 344.782C254.686 347.475 247.808 349.688 241.302 352.568C236.103 354.861 231.277 357.633 226.478 360.7C210.24 371.125 201.602 383.389 192.243 399.947H180.778C186.404 388.588 192.163 377.07 201.282 368.058C207.814 361.579 215.759 356.167 223.945 352.008C233.01 347.422 242.848 343.742 252.314 339.983C266.178 334.464 283.135 328.571 292.707 316.413C297.746 310.041 299.906 302.762 301.292 294.897L301.319 294.87Z" fill="#A5CD89"/>
<path d="M231.01 188.007C231.49 188.887 229.783 196.592 229.49 198.139C225.624 200.485 221.491 202.431 217.599 204.751C210.027 209.257 202.561 215.016 196.322 221.255C190.136 227.441 184.137 234.64 180.165 242.478C175.712 251.304 173.286 260.715 169.953 269.967C165.18 283.165 154.995 293.59 143.264 301.002L143.104 300.842C143.184 300.176 147.53 294.203 148.25 292.977C150.01 290.017 151.503 286.951 152.729 283.752C156.595 273.593 156.915 262.475 160.195 252.103C169.926 221.282 204.054 202.031 231.037 188.034L231.01 188.007Z" fill="#A5CD89"/>
<path d="M322.195 293.777C324.808 293.377 327.475 293.03 330.061 292.444C328.941 310.628 324.115 327.105 310.091 339.53C295.986 352.034 277.376 358.14 260.445 365.712C247.994 371.285 233.436 379.79 224.024 389.708C221.198 392.694 218.052 396.241 216.106 399.893H205.894C212.106 388.882 219.972 379.417 230.263 371.978C234.636 368.805 239.489 366.299 244.261 363.819C250.074 360.78 255.966 357.953 261.992 355.367C285.855 345.129 307.824 337.05 317.743 310.868C319.796 305.455 321.449 299.483 322.222 293.75L322.195 293.777Z" fill="#A5CD89"/>
<path d="M227.437 -0.0161133H234.076C231.597 4.11656 229.384 8.38254 227.411 12.7818C224.185 20.0073 221.438 27.6061 216.852 34.0851C205.574 50.0825 188.297 54.4285 170.966 60.7475C158.968 65.1201 146.597 70.1327 136.359 77.8914C120.841 89.6495 115.509 103.834 112.896 122.684C110.949 121.404 109.03 120.098 107.19 118.658C108.15 104.767 110.656 91.036 119.481 79.7844C127.373 69.7061 139.531 63.947 150.943 58.8278C154.142 57.388 157.555 55.575 160.941 54.7218C162.141 54.4018 163.368 54.4818 164.567 54.3219C169.553 53.6553 181.631 49.176 186.324 47.0963C216.452 33.7385 210.24 22.7802 227.437 -0.0161133Z" fill="#A5CD89"/>
<path d="M343.418 288.338C345.525 287.725 351.284 285.885 352.75 284.445C353.683 286.711 349.044 310.814 348.004 314.814C346.805 319.426 345.285 323.959 343.498 328.385C334.273 350.568 317.023 364.112 295.24 373.044C291.533 374.564 287.507 375.71 283.935 377.497C281.188 378.857 278.682 380.83 276.149 382.536C268.417 387.735 260.898 392.774 254.793 399.92H243.354C251.033 387.842 262.605 378.057 275.269 371.498C281.588 368.218 288.574 365.979 295.026 362.886C318.809 351.421 332.78 336.623 339.632 310.894C340.539 307.535 344.165 291.431 343.632 288.818C343.578 288.551 343.552 288.551 343.445 288.338H343.418Z" fill="#A5CD89"/>
<path d="M44.6133 99.3281C45.9197 100.021 47.7328 102.661 48.8259 103.834C51.8121 107.034 55.0916 109.993 58.3444 112.899C77.8613 130.283 100.738 144.281 116.868 165.264C118.601 167.557 120.228 169.904 121.748 172.303C123.267 174.729 124.68 177.209 126.014 179.742C129.8 187.021 133.026 194.646 138.385 200.939C142.278 205.471 146.864 208.991 151.689 212.483L148.543 215.656L145.877 218.376C142.198 216.509 138.518 214.67 135.132 212.323C114.575 198.086 115.109 177.636 99.7778 160.385C97.8314 158.199 95.7784 156.119 93.6188 154.146C91.4591 152.173 89.2195 150.28 86.8732 148.52C83.2738 145.827 79.4877 143.348 75.9683 140.575C63.7835 130.95 47.5195 115.246 44.6399 99.3548L44.6133 99.3281Z" fill="#A5CD89"/>
<path d="M466.092 212.963C466.919 214.456 466.892 220.215 466.412 221.895C466.332 222.135 466.199 222.375 466.092 222.615C465.212 222.722 464.306 222.802 463.426 222.855C442.523 224.615 424.846 233.547 411.328 249.624C410.368 250.77 409.461 251.97 408.581 253.17C407.702 254.37 406.875 255.623 406.075 256.903C405.275 258.183 404.529 259.462 403.809 260.795C403.089 262.102 402.422 263.462 401.809 264.821C397.303 274.66 394.664 285.565 391.438 295.883C388.291 305.908 383.785 315.72 382.986 326.305C382.692 330.304 383.119 334.517 384.265 338.356C384.585 339.396 385.518 340.809 385.545 341.822C385.545 341.902 385.545 341.982 385.545 342.062C385.012 342.996 377.52 349.448 376.347 350.088C376.48 348.541 374.827 346.009 374.294 344.462C373.174 341.209 372.614 337.53 372.534 334.09C372.187 317.8 380.559 302.389 385.678 287.298C390.051 274.393 391.731 263.755 398.263 251.304C399.836 248.291 401.596 245.145 403.996 242.718C405.622 241.039 407.595 239.652 409.301 238.052C412.021 235.493 414.634 232.88 417.54 230.534C431.591 219.229 448.068 213.23 466.092 212.963Z" fill="#A5CD89"/>
<path d="M234.103 264.928C237.356 268.234 240.608 271.567 244.155 274.58C248.261 290.604 244.874 308.868 236.529 323.026C231.73 331.158 223.598 341.289 215.732 346.568C204.054 354.407 186.03 356.807 177.685 368.592C172.433 376.004 168.38 390.908 164.621 399.92H154.569C155.769 396.987 156.888 394.001 157.635 390.908C158.782 386.135 159.181 381.176 160.088 376.377C162.541 363.339 169.873 355.047 181.898 350.008C189.55 346.808 197.602 344.515 205.307 341.396C208 340.303 210.96 339.316 213.359 337.663C217.012 335.13 220.158 331.451 222.905 327.985C226.531 323.372 229.623 318.413 231.836 312.974C232.13 312.227 232.423 311.481 232.69 310.734C232.956 309.988 233.223 309.241 233.463 308.468C233.703 307.721 233.943 306.948 234.156 306.202C234.369 305.428 234.583 304.682 234.769 303.909C234.956 303.135 235.143 302.362 235.329 301.589C235.489 300.816 235.649 300.043 235.809 299.243C235.942 298.47 236.076 297.67 236.209 296.896C236.316 296.123 236.422 295.323 236.529 294.523C236.609 293.724 236.716 292.95 236.769 292.151C236.849 291.351 236.902 290.577 236.929 289.778C236.982 288.978 237.009 288.178 237.009 287.405C237.009 286.605 237.009 285.805 237.009 285.032C237.009 284.232 236.982 283.432 236.929 282.659C236.876 281.885 236.849 281.059 236.769 280.286C236.716 279.486 236.636 278.713 236.529 277.913C236.449 277.113 236.342 276.34 236.209 275.54C235.676 271.994 234.609 268.528 234.076 264.982L234.103 264.928Z" fill="#A5CD89"/>
<path d="M205.334 228.801C205.334 228.907 205.414 229.121 205.414 229.227C205.388 230.134 204.374 231.787 204.001 232.64C201.921 237.279 200.855 241.865 200.322 246.931C199.549 254.397 199.335 262.022 198.002 269.408C194.269 290.258 182.218 305.535 163.661 315.4C154.356 320.359 144.704 324.572 136.865 331.798C129.64 338.463 123.827 347.368 122.041 357.154C121.348 360.913 121.268 364.752 121.108 368.592L116.602 366.299C116.335 366.139 116.042 365.952 115.829 365.739C114.602 364.432 114.389 358.887 114.335 356.94C113.776 340.623 123.507 326.465 136.785 317.747C141.558 314.6 146.784 312.147 151.796 309.401C161.021 304.362 170.327 297.856 176.406 289.111C180.938 282.606 183.498 275.3 186.004 267.861C190.67 253.97 195.096 239.706 205.334 228.801Z" fill="#A5CD89"/>
<path d="M375.094 -0.0161133H384.959C384.985 0.303836 384.985 0.543797 384.879 0.837084C383.732 3.74329 382.053 6.51618 380.453 9.18242C377.547 14.0083 373.974 18.8875 369.575 22.4603C365.922 25.3932 361.363 27.4462 357.043 29.1792C353.817 30.4857 350.538 31.6855 347.205 32.7253C343.872 33.7652 340.513 34.6717 337.1 35.4449C321.209 38.911 306.225 39.8975 291.054 46.7764C272.204 55.3617 256.526 69.4128 248.954 88.9297C245.754 97.195 243.755 105.807 240.662 114.126C238.716 111.566 236.449 109.22 234.156 106.98C236.183 93.9955 242.822 79.0113 250.927 68.6396C270.71 43.3903 292.787 36.0315 322.355 27.4728C330.194 25.2065 337.713 22.167 345.818 21.1805C356.03 19.9274 365.762 13.6084 372.028 5.58299C372.961 4.38318 375.307 1.50364 375.12 -0.0161133H375.094Z" fill="#A5CD89"/>
<path d="M243.328 -0.0161133H254.766C252.473 2.97008 250.367 6.00959 248.607 9.34239C240.795 24.0334 237.755 40.4041 226.184 53.0421C217.865 62.1073 204.481 69.1195 193.096 73.3588C177.205 79.2779 160.834 83.0906 148.436 95.5686C134.705 109.38 131.746 122.098 131.772 141.188C128.786 138.202 125.64 135.376 122.521 132.549C123.667 104.394 133.799 88.2364 159.715 76.8249C165.02 74.4786 170.593 72.6389 176.032 70.6126C181.551 68.5329 186.99 66.3199 192.403 64.0003C202.188 59.8676 211.04 55.5483 218.638 47.9762C228.53 38.1378 231.383 25.1799 236.582 12.7285C238.449 8.24923 240.795 4.14322 243.355 0.0105491L243.328 -0.0161133Z" fill="#A5CD89"/>
<path d="M236.929 162.491C236.929 164.011 234.45 172.01 233.943 174.009C227.384 176.836 221.065 180.275 214.719 183.501C186.271 198.006 154.596 217.736 144.837 250.157C142.651 257.436 141.771 264.955 140.305 272.367C139.958 274.153 139.558 275.913 139.105 277.673C138.652 279.433 138.145 281.166 137.585 282.899C137.025 284.632 136.412 286.338 135.772 288.018C135.106 289.698 134.412 291.377 133.666 293.03C130.253 300.363 125.774 307.215 120.814 313.614C117.615 317.746 114.202 321.666 111.243 325.958C103.671 336.917 100.471 346.782 102.897 360.113C101.244 359.553 99.6179 358.86 98.0181 358.193C97.2983 357.953 96.4717 357.767 96.0451 357.127C93.6189 353.554 94.3121 344.649 95.0853 340.676C95.4585 338.783 96.2584 336.97 96.9783 335.21C101.191 324.759 108.097 316.44 114.522 307.348C118.282 302.016 121.934 296.337 124.787 290.471C132.386 274.82 132.626 256.716 138.945 240.639C148.01 217.629 173.019 198.672 193.896 186.701C208.401 178.382 222.931 171.93 237.009 162.465L236.929 162.491Z" fill="#A5CD89"/>
<path d="M212.24 237.573C212.347 237.652 212.533 237.812 212.64 237.919C213.92 239.412 214.746 242.745 215.466 244.665C220.132 257.036 224.318 270.287 223.971 283.645C223.945 284.978 223.838 286.311 223.731 287.645C223.598 288.978 223.438 290.311 223.225 291.617C223.012 292.924 222.745 294.257 222.452 295.537C222.158 296.843 221.812 298.123 221.412 299.403C215.786 318.546 201.922 328.731 184.004 335.877C174.486 339.663 162.621 343.022 155.076 350.248C145.504 359.42 143.104 369.791 142.891 382.536L142.784 383.496L142.491 383.602C140.331 381.869 138.172 380.136 136.092 378.297C135.879 374.431 134.972 370.591 134.866 366.725C134.732 361.526 136.599 356.753 139.025 352.221C152.409 327.025 179.605 329.558 197.309 310.627C208.72 298.443 214.639 279.699 214.24 263.195C214.026 254.61 212.533 246.131 212.267 237.573H212.24Z" fill="#A5CD89"/>
<path d="M-45.2392 138.975C-42.7596 137.909 -39.6934 137.029 -37.4271 135.616C-37.0805 134.736 -36.9205 133.776 -36.2006 133.136L-35.694 133.189C-35.4541 136.362 -33.6144 140.095 -33.5877 142.494H-33.9077C-34.041 142.494 -34.1743 142.494 -34.3076 142.494C-34.4409 142.494 -34.5742 142.494 -34.7075 142.521C-34.8408 142.521 -34.9742 142.548 -35.1075 142.574C-35.2408 142.574 -35.3741 142.628 -35.4807 142.654C-35.6141 142.681 -35.7474 142.708 -35.854 142.734C-35.9873 142.761 -36.094 142.814 -36.2273 142.841C-36.3606 142.868 -36.4673 142.921 -36.6006 142.974C-36.7339 143.028 -36.8405 143.081 -36.9738 143.108C-37.0805 143.161 -37.2138 143.214 -37.3205 143.268C-37.4271 143.321 -37.5604 143.374 -37.6671 143.454C-37.7737 143.534 -37.8804 143.588 -38.0137 143.641C-38.1203 143.721 -38.227 143.774 -38.3336 143.854C-38.4403 143.934 -38.5469 144.014 -38.6536 144.094C-38.7602 144.174 -38.8669 144.254 -38.9469 144.334C-39.0535 144.414 -39.1335 144.494 -39.2401 144.601C-39.3468 144.681 -39.4268 144.787 -39.5068 144.867C-40.4666 145.907 -40.6266 147.534 -40.5199 148.893C-40.2533 153.266 -36.8139 157.265 -33.641 159.985C-27.0821 165.584 -17.9102 167.717 -9.9115 170.383C-5.77883 171.796 -1.67281 173.316 2.37987 174.969C10.3519 178.249 17.7907 182.835 24.8296 187.767C33.9215 194.166 41.6802 201.578 47.7593 210.91C51.4387 216.563 54.7448 222.535 58.6642 228.054C75.0882 251.304 96.9514 266.235 126.12 265.755C125.32 269.567 124.44 273.407 123.241 277.14C111.882 273.887 100.258 271.381 89.5126 266.341C71.3822 257.809 59.8907 241.625 48.2925 225.948C45.5463 222.242 42.9334 218.376 39.9205 214.883C33.9748 207.977 26.8293 202.192 19.6838 196.619C11.0718 189.9 1.31337 185.128 -8.71169 180.888C-20.7631 175.796 -43.9861 170.863 -50.545 158.999C-52.4114 155.639 -52.8646 151.906 -51.7448 148.2C-51.3182 146.787 -50.625 145.454 -49.8784 144.174C-48.5187 142.228 -47.2655 140.175 -45.2392 138.868V138.975Z" fill="#A5CD89"/>
<path d="M270.63 -0.0161133H287.828C284.362 3.21004 280.549 4.94309 277.349 8.67583C270.017 17.2345 264.845 29.2592 260.632 39.6842C259.645 42.1371 258.952 44.7234 257.912 47.1497C256.313 50.8824 253.06 54.2685 250.447 57.3614C239.809 69.866 230.85 76.265 216.026 83.0639C210.933 85.4102 205.814 87.6499 200.508 89.4629C197.975 89.9695 195.149 91.5692 192.723 92.5824C183.364 96.5018 172.939 100.208 165.341 107.193C165.101 107.433 164.834 107.673 164.594 107.913C164.354 108.153 164.114 108.393 163.874 108.66C163.634 108.9 163.394 109.166 163.154 109.406C162.914 109.673 162.701 109.913 162.461 110.18C162.221 110.446 162.008 110.713 161.794 110.953C161.581 111.193 161.368 111.486 161.128 111.753C160.915 112.019 160.701 112.286 160.488 112.579C160.275 112.846 160.088 113.139 159.875 113.406C159.661 113.699 159.475 113.966 159.288 114.259C159.102 114.552 158.915 114.819 158.702 115.112C158.515 115.405 158.328 115.699 158.142 115.992C157.955 116.285 157.795 116.579 157.608 116.872C157.449 117.165 157.262 117.458 157.102 117.778C156.942 118.072 156.782 118.392 156.622 118.685C156.462 119.005 156.302 119.298 156.169 119.618C156.009 119.938 155.875 120.231 155.715 120.551C155.582 120.871 155.422 121.191 155.289 121.511C155.156 121.831 155.022 122.151 154.889 122.471C154.756 122.791 154.649 123.111 154.516 123.431C154.382 123.751 154.276 124.071 154.169 124.417C154.062 124.737 153.956 125.084 153.849 125.404C153.742 125.724 153.636 126.07 153.556 126.39C153.449 126.71 153.369 127.057 153.289 127.377C153.209 127.723 153.129 128.043 153.049 128.39C152.969 128.737 152.889 129.057 152.809 129.403C152.729 129.75 152.676 130.07 152.596 130.416C152.543 130.763 152.463 131.083 152.409 131.43C152.356 131.776 152.303 132.123 152.249 132.443C152.196 132.789 152.169 133.136 152.116 133.483C152.089 133.829 152.036 134.176 152.009 134.522C151.983 134.869 151.956 135.216 151.929 135.562C151.903 135.909 151.903 136.255 151.876 136.602C151.743 140.468 152.516 144.414 153.582 148.12C158.648 165.797 172.033 173.823 183.978 186.567C181.578 187.767 179.258 189.287 176.939 190.647C169.1 182.941 156.435 170.703 150.81 161.638C149.103 158.918 147.823 155.879 146.89 152.786C143.157 140.281 144.704 123.617 150.97 112.126C160.515 94.6087 182.378 87.2499 200.322 81.9174C206.081 80.5843 216.079 75.2785 221.332 72.1857C228.424 67.9997 236.583 62.6139 241.622 55.9749C243.861 53.0154 245.194 48.7494 246.741 45.3366C253.94 29.2059 258.232 13.3684 270.577 -0.0161133L270.63 -0.0161133Z" fill="#A5CD89"/>
<path d="M25.5228 208.031C27.7891 209.844 29.7888 212.03 31.7085 214.19C33.4949 216.216 35.5745 218.349 36.881 220.722C39.4672 225.334 41.067 236.373 41.6802 241.918C43.9732 262.342 40.667 283.085 27.5225 299.483C15.3911 314.627 0.193512 326.065 -17.1371 334.704C-20.8165 336.543 -24.6292 338.65 -28.5752 339.769C-24.6025 343.209 -20.3632 346.515 -16.8704 350.461C-6.97868 361.713 -0.979629 377.523 4.00624 391.495C4.99275 394.294 6.19256 397.094 7.07242 399.92H-3.2726C-7.75188 388.215 -11.8312 375.87 -18.0969 364.965C-28.2553 347.262 -47.0789 334.704 -66.5425 329.424V320.999C-60.0635 322.919 -53.7179 324.919 -47.7455 328.118C-43.9061 330.198 -40.28 332.731 -36.414 334.704C-10.2848 324.732 18.0573 305.802 29.8421 279.539C39.8938 257.143 32.2151 230.294 25.5228 208.004V208.031Z" fill="#A5CD89"/>
<path d="M390.478 12.8618L391.224 13.0751C392.717 15.3148 393.037 18.9408 393.277 21.5804C393.624 25.3398 393.011 36.8047 390.664 39.6575C389.331 41.4972 386.345 43.177 384.399 44.3768C374.454 50.3492 362.802 54.1619 351.551 56.7481C345.285 58.1879 338.993 59.2811 332.78 60.9608C326.248 62.7205 319.742 64.8268 313.61 67.7064C292.387 77.7048 280.309 89.0096 267.164 108.207C262.072 115.619 256.872 123.617 250.793 130.283C249.833 128.31 248.82 126.337 247.807 124.391C251.247 119.511 253.193 113.646 255.033 108.02C258.712 96.8217 262.285 85.5968 270.284 76.6116C283.668 61.574 304.785 53.9219 324.248 51.0957C344.485 48.1628 354.537 49.7359 373.76 39.8975C377.12 38.1644 381.626 35.9515 384.052 33.0186C386.772 29.7391 390.878 17.1278 390.451 12.8885L390.478 12.8618Z" fill="#A5CD89"/>
<path d="M23.3632 87.7832C25.6828 88.5831 27.8425 89.7296 30.2421 90.3161C30.6153 114.419 40.7471 131.936 60.2639 145.694C69.0892 151.906 78.3944 157.425 85.6199 165.611C89.5659 170.063 92.952 175.049 95.3516 180.515C97.8046 186.061 99.6443 191.9 102.577 197.232C110.203 211.177 124.44 222.348 139.611 226.801L135.852 232.907C132.866 232.453 129.746 231.494 126.867 230.534C112.576 225.734 102.497 215.896 95.005 203.045C92.3655 198.539 90.2058 193.766 87.4329 189.314C83.7535 183.368 79.1142 177.582 74.0217 172.783C58.2909 157.879 34.668 151.453 24.5363 130.976C17.5508 116.872 18.4839 102.341 23.3632 87.8099V87.7832Z" fill="#A5CD89"/>
<path d="M-48.5718 -0.0161133H-41.6129C-41.2663 1.82359 -41.053 3.68996 -40.7064 5.52967C-37.5069 22.6203 -27.9351 39.7109 -15.2171 51.549C-5.32536 60.7475 10.8587 68.5329 23.4434 73.0655C32.4019 76.2917 41.4405 78.8513 49.8925 83.3306C61.8639 89.6495 72.7955 98.9814 83.2471 107.487C87.4065 110.873 91.6991 114.126 95.8851 117.485C111.083 129.723 126.12 142.948 138.438 158.172C140.225 160.358 141.904 162.625 143.477 164.944C145.051 167.264 146.544 169.663 147.93 172.116C154.142 183.235 156.515 190.38 167.42 197.819C165.287 199.392 163.261 201.045 161.261 202.778C150.65 195.979 146.944 187.794 141.265 177.049C139.905 174.409 138.438 171.85 136.865 169.317C135.292 166.811 133.639 164.358 131.879 161.958C123.667 151.026 112.656 141.748 102.124 133.136L76.3949 112.126C65.9966 103.727 55.6515 95.4353 43.6268 89.4096C34.4016 84.797 24.5898 82.2641 14.8581 78.9846C4.37975 75.4385 -6.09857 70.186 -14.8705 63.4137C-19.0032 60.2409 -22.2827 56.3482 -25.5355 52.2955C-37.6935 37.2046 -46.0388 19.2875 -48.5718 -0.0161133Z" fill="#A5CD89"/>
<path d="M436.124 325.025C438.71 325.319 441.296 326.145 443.936 326.465C451.348 327.345 458.84 327.452 466.092 329.371C466.866 330.704 466.839 338.996 466.412 340.596C466.359 340.756 466.279 340.943 466.226 341.103C466.866 342.623 466.919 347.768 466.412 349.395C466.359 349.581 466.226 349.821 466.119 349.981C452.681 345.342 437.084 347.262 424.392 353.421C409.488 360.673 398.93 373.631 391.278 388.002C389.731 390.908 386.798 397.92 384.985 399.947H359.176C364.829 394.774 370.401 380.963 374.88 374.138C386.932 355.82 404.556 342.676 423.273 331.744C426.339 329.985 429.432 328.332 432.578 326.758C433.644 326.225 434.951 325.852 435.911 325.212C435.991 325.159 436.071 325.105 436.151 325.052L436.124 325.025Z" fill="#344D27"/>
<path d="M375.12 399.92C377.226 398.187 380.293 389.415 381.492 386.562C387.172 373.124 394.53 364.059 405.862 355.047C410.821 351.101 416.074 347.475 421.779 344.676C432.578 339.343 443.349 338.223 455.241 339.236C458.84 339.53 462.786 339.903 466.226 341.076C466.865 342.596 466.919 347.742 466.412 349.368C466.359 349.555 466.226 349.795 466.119 349.955C452.681 345.315 437.084 347.235 424.392 353.394C409.488 360.646 398.93 373.604 391.278 387.975C389.731 390.882 386.798 397.894 384.985 399.92H375.12Z" fill="#A5CD89"/>
<path d="M-66.5688 154.333C-63.2094 164.038 -56.9704 171.77 -47.5852 176.276C-40.6263 179.635 -32.8409 180.782 -25.5354 183.181C-10.5245 188.114 -1.4326 194.966 7.65928 207.737C11.6053 213.283 13.685 216.403 16.0046 222.935C22.4569 241.279 27.8694 253.49 18.8308 272.367C10.2989 290.204 -5.91188 303.829 -22.4159 314.067C-26.3086 316.493 -30.7079 319.346 -35.0539 320.839C-39.0532 322.226 -43.7725 322.066 -47.9318 322.946C-50.1448 322.172 -52.3311 321.399 -54.4108 320.333C-30.1213 308.868 -5.45862 295.19 4.11319 268.421C8.56581 255.97 7.17936 246.398 5.55295 233.68C5.25967 231.467 5.33965 229.201 5.09969 226.988C4.75308 223.868 3.33998 220.509 2.00686 217.656C-5.27198 202.325 -17.3501 196.353 -32.6543 190.967C-45.2656 186.514 -56.9704 183.448 -66.5688 173.423V154.279V154.333Z" fill="#A5CD89"/>
<path d="M333.74 275.966C346.778 272.527 361.869 261.569 370.828 251.677C376.054 245.918 380.533 239.386 385.199 233.147C390.025 226.694 394.877 220.402 399.25 213.63C404.636 205.284 409.435 196.086 415.834 188.487C417.674 186.301 419.993 184.328 422.286 182.595C424.312 181.075 434.178 175.316 434.791 174.116C434.817 174.063 434.844 173.983 434.844 173.929C436.017 175.023 438.63 178.969 438.71 180.542C438.657 180.595 438.577 180.675 438.524 180.728C437.59 181.635 436.177 182.301 435.084 183.101C432.178 185.288 429.538 187.687 427.219 190.487C422.606 196.006 418.18 203.525 414.127 209.604C409.435 216.643 404.582 223.522 399.73 230.454C387.918 247.358 376.427 263.035 358.67 274.26C355.897 276.02 352.751 278.046 349.684 279.246C349.098 279.939 347.391 280.552 346.512 280.979C337.953 285.032 328.514 287.751 319.156 289.191C296.493 292.657 271.03 287.645 252.393 273.913C245.301 268.688 235.703 259.916 231.01 252.477C225.224 243.305 220.878 226.428 219.252 215.683C222.158 213.816 225.091 212.003 228.077 210.244C228.024 218.829 228.744 226.774 231.383 234.986C236.636 251.304 249.274 263.915 264.311 271.594C285.561 282.472 311.264 283.165 333.714 275.966H333.74Z" fill="#A5CD89"/>
<path d="M5.33926 80.9043C7.12564 81.7842 8.85869 82.6107 10.7251 83.2772C8.32545 90.0762 5.87251 96.7684 5.17929 103.994C2.99297 126.71 10.9917 146.307 30.0286 159.345C40.7203 166.677 52.1318 172.223 61.3036 181.662C62.4501 182.835 63.5433 184.034 64.6098 185.288C65.6763 186.514 66.6895 187.794 67.676 189.1C68.6625 190.407 69.5956 191.74 70.5022 193.1C71.4087 194.459 72.2619 195.846 73.0884 197.259C77.6744 205.124 81.2205 213.23 87.0862 220.322C99.1109 234.906 113.135 241.412 131.719 243.225C130.786 246.504 129.853 249.784 128.999 253.09C126.973 253.117 125 253.037 123 252.903C98.0711 250.664 81.5137 237.866 68.2892 217.282C61.6769 206.991 55.8645 196.326 47.2792 187.447C39.6271 179.529 30.082 174.783 20.9101 168.944C17.4707 166.704 14.1645 164.304 10.9917 161.691C0.166751 152.866 -8.20524 140.228 -9.61835 126.15C-10.9248 113.139 -7.19207 101.621 -0.846418 90.4228C1.01995 87.1433 2.91298 83.8638 5.3126 80.931L5.33926 80.9043Z" fill="#A5CD89"/>
<path d="M420.9 -0.0161133H431.325C432.418 1.02372 433.111 2.43683 433.804 3.76995C443.536 22.3003 447.562 51.629 441.163 71.7857C438.124 81.4109 429.912 91.1693 422.873 98.2615C402.369 118.978 386.319 126.684 359.043 135.162C349.764 138.042 340.139 140.548 331.474 145.054C291.934 165.611 298.306 188.887 286.575 226.054C283.722 219.975 282.069 208.031 281.642 201.232C281.002 190.487 284.228 179.422 288.681 169.743C298.706 147.96 315.77 135.722 338.54 129.243C347.472 126.71 356.697 125.084 365.575 122.258C370.934 120.551 376.134 118.258 381.226 115.912C397.09 108.633 407.435 101.754 419.14 88.5297C424.552 82.3974 432.205 72.479 434.524 64.5602C436.524 57.8413 436.391 48.5361 435.964 41.5772C435.164 29.0192 431.671 17.0212 425.246 6.16956C424.046 4.14322 422.633 1.55697 420.873 -0.0161133L420.9 -0.0161133Z" fill="#A5CD89"/>
<path d="M384.985 399.92C386.798 397.894 389.731 390.881 391.278 387.975C398.93 373.631 409.488 360.646 424.392 353.394C437.057 347.235 452.681 345.315 466.119 349.955C466.812 351.234 466.839 358.647 466.412 360.086C466.359 360.273 466.279 360.406 466.199 360.593C466.812 361.979 466.919 369.232 466.359 370.698C466.306 370.805 466.252 370.938 466.226 371.045C466.892 372.511 466.946 381.23 466.386 382.829C466.332 383.043 466.306 383.043 466.226 383.203C466.786 384.562 466.919 391.148 466.359 392.534C466.306 392.641 466.252 392.748 466.199 392.881C466.812 394.214 466.919 397.974 466.386 399.413C466.332 399.6 466.226 399.733 466.119 399.92H385.012H384.985Z" fill="#344D27"/>
<path d="M398.45 393.654C400.583 394.614 404.369 397.627 405.542 399.6V399.92C405.569 399.92 395.41 399.92 395.41 399.92C396.343 398.72 398.503 395.094 398.45 393.654Z" fill="#A5CD89"/>
<path d="M401.756 36.2981C401.943 36.4314 402.103 36.6447 402.263 36.8313C403.036 40.5108 401.863 49.2027 400.21 52.4822C399.09 54.7218 397.437 56.8281 395.917 58.8278C384.932 73.3322 367.602 81.4909 350.271 85.6769C345.525 86.8233 340.593 87.3566 335.793 88.2631C330.994 89.1696 326.142 90.5827 321.502 92.1292C292.147 101.994 273.03 120.525 259.432 148.067C255.46 156.092 252.713 164.304 250.607 172.996C246.181 191.287 245.648 209.577 251.753 227.574C256.233 240.799 264.231 250.504 276.843 256.716C290.974 263.675 310.891 263.328 325.582 258.263C350.671 249.624 357.79 233.84 372.641 214.11C374.134 212.11 375.6 210.084 377.227 208.164C379.12 205.951 382.186 203.445 383.466 200.885C384.266 199.605 383.946 196.566 384.692 194.859C388.292 186.647 394.344 178.409 400.476 171.93C403.702 168.544 407.409 165.477 411.221 162.758C413.968 160.812 425.192 153.959 426.526 152.2C427.085 152.999 429.938 163.051 429.805 163.984C429.032 164.891 427.459 165.504 426.366 165.957C425.592 166.971 419.22 170.33 417.674 171.423C412.074 175.316 406.342 180.275 402.103 185.661C396.824 192.353 392.744 200.059 388.078 207.204C384.292 213.016 379.866 218.296 375.68 223.815C367.788 234.213 360.749 244.585 350.511 252.93C335.767 264.955 312.224 271.514 293.373 269.594C277.403 267.968 261.219 259.302 251.087 246.798C238.982 231.84 235.996 207.871 237.942 189.314C239.809 171.423 244.875 154.493 253.7 138.815C257.673 131.776 262.178 124.844 267.458 118.712C284.282 99.168 308.598 85.6235 332.807 77.4648C338.593 75.5185 344.565 74.0521 350.458 72.4523C366.722 67.9997 382.319 62.8005 395.57 52.0289C396.717 51.0957 397.943 50.0559 398.743 48.8294C400.396 46.2965 401.463 39.5509 401.756 36.5381C401.756 36.4581 401.756 36.4047 401.756 36.3248V36.2981Z" fill="#A5CD89"/>
<path d="M395.171 -0.0161133H405.862C406.049 0.117199 406.236 0.250511 406.396 0.383823C408.049 1.79693 409.595 3.71662 410.928 5.42302C418.687 15.3414 422.9 28.0594 423.806 40.5374C424.286 46.9897 424.526 55.2017 422.526 61.4141C421.087 65.8667 417.807 69.946 415.034 73.6521C403.169 89.5429 389.572 97.9149 371.201 104.954C366.002 106.953 360.723 108.873 355.39 110.446C343.019 114.126 331.394 115.352 319.183 120.418C307.291 125.35 295.56 133.243 287.135 143.028C273.563 158.785 265.698 181.102 267.244 201.925C268.098 213.523 271.564 227.174 280.789 235.04C288.468 241.599 299.426 242.132 309.051 241.359C320.169 240.479 330.248 236.559 339.473 230.347C351.604 222.162 360.563 211.977 366.135 198.352C367.682 194.539 368.908 190.593 370.348 186.754C373.867 177.316 378.347 168.01 384.932 160.305C397.197 145.961 415.407 136.762 433.805 133.189C439.884 131.989 447.962 131.376 454.255 130.896C453.588 133.029 449.082 136.095 447.189 137.082C441.883 139.855 435.244 140.735 429.512 142.388C411.941 147.427 396.877 158.065 387.839 174.169C386.905 175.822 386.079 177.529 385.359 179.262C384.639 180.995 383.999 182.781 383.466 184.621C382.693 187.447 382.186 190.327 381.066 193.046C380.133 195.393 378.72 197.686 377.307 199.792C374.241 204.405 370.321 208.591 366.829 212.91C353.764 229.121 340.06 244.478 318.676 248.717C305.478 251.33 288.681 251.117 277.136 243.305C268.338 237.333 263.058 225.788 261.165 215.603C256.286 189.5 264.045 161.505 278.896 139.828C294.227 117.458 315.237 106.367 341.259 100.341C346.272 99.168 351.391 98.4215 356.43 97.4616C378.88 93.2756 393.358 85.7835 406.449 66.6399C408.395 63.787 410.262 60.7475 411.515 57.5213C414.181 50.5625 414.261 41.6839 412.875 34.405C410.955 24.22 405.302 13.875 398.184 6.38286C396.984 5.10307 395.704 3.6633 394.238 2.67679C394.477 2.43683 394.717 2.14354 394.877 1.82359C395.224 1.18369 395.277 0.677109 395.117 0.0105491L395.171 -0.0161133Z" fill="#A5CD89"/>
</g>
<defs>
<clipPath id="clip0_2262_2464">
<rect width="400" height="400" rx="200" fill="white"/>
</clipPath>
</defs>
</svg>
