<svg width="367" height="355" viewBox="0 0 367 355" fill="none" xmlns="http://www.w3.org/2000/svg">
<path fill-rule="evenodd" clip-rule="evenodd" d="M332.178 31.5632C329.561 28.2442 328 24.0544 328 19.5C328 8.73045 336.73 0 347.5 0C358.27 0 367 8.73045 367 19.5C367 27.2479 362.481 33.9404 355.936 37.086L343.268 71.3623C347.088 75.136 349.537 79.568 350.5 84C353 95.5 354 114 354 141.5C354 161.185 350.798 181.003 348.691 190.926C358.173 200.808 364 214.223 364 229H0C0 207.229 12.6496 188.412 31 179.499V159.5C31 97.368 81.368 47 143.5 47C205.303 47 255.466 96.8358 255.996 158.514C258.803 153.28 261.944 146.306 264.5 138C269.279 122.467 270.569 112.962 272.412 99.376C272.883 95.9064 273.39 92.1702 274 88C275.201 79.791 278.648 73.9872 283.697 69.9145L271.45 36.7774C265.238 33.5166 261 27.0032 261 19.5C261 8.73045 269.73 0 280.5 0C291.27 0 300 8.73045 300 19.5C300 24.2541 298.299 28.6108 295.472 31.9946L305.823 61.7933C308.769 61.403 311.839 61.1505 315 61C317.374 61 319.641 61.1543 321.798 61.445L332.178 31.5632ZM216 174H191V157.5C191 131.266 169.734 110 143.5 110C117.266 110 96 131.266 96 157.5V174H71V157.5C71 117.459 103.459 85 143.5 85C183.541 85 216 117.459 216 157.5V174Z" fill="#1E3116"/>
<path d="M324.218 354.889C316.661 354.889 309.963 353.3 304.123 350.123C298.37 346.86 293.904 342.394 290.727 336.727C287.635 331.059 286.09 324.618 286.09 317.405C286.09 310.879 287.421 304.696 290.083 298.856C292.831 292.931 296.996 288.122 302.577 284.43C308.245 280.651 315.244 278.762 323.573 278.762C330.357 278.762 336.583 280.093 342.251 282.755C348.004 285.417 352.599 289.668 356.034 295.507C359.554 301.347 361.315 308.732 361.315 317.663V321.398H308.76C309.018 323.202 309.49 324.962 310.177 326.679C310.864 328.311 311.637 329.685 312.496 330.801C315.416 334.494 319.709 336.34 325.377 336.34C328.554 336.34 331.259 335.567 333.492 334.022C335.81 332.476 337.442 330.501 338.387 328.096H360.156C357.923 335.997 353.801 342.437 347.79 347.418C341.779 352.399 333.921 354.889 324.218 354.889ZM339.417 306.07C338.816 303.408 337.657 301.218 335.939 299.501C333.105 296.667 329.241 295.25 324.346 295.25C319.452 295.25 315.587 296.667 312.753 299.501C310.95 301.304 309.834 303.494 309.404 306.07H339.417Z" fill="#F6F6F6"/>
<path d="M268.629 353.343C263.305 353.343 259.14 352.098 256.134 349.608C253.215 347.031 251.755 343.425 251.755 338.788V297.182H241.708V280.308H251.755V255.061H273.395V280.308H286.018V297.182H273.395V331.445C273.395 334.365 274.855 335.825 277.774 335.825H285.889V353.343H268.629Z" fill="#F6F6F6"/>
<path d="M239.605 353.343H217.965V280.308H239.605V353.343ZM228.785 275.284C225.35 275.284 222.431 274.297 220.026 272.322C217.708 270.261 216.548 267.556 216.548 264.206C216.548 260.857 217.708 258.152 220.026 256.091C222.431 254.03 225.35 253 228.785 253C232.22 253 235.097 254.03 237.416 256.091C239.82 258.152 241.022 260.857 241.022 264.206C241.022 267.556 239.82 270.261 237.416 272.322C235.097 274.297 232.22 275.284 228.785 275.284Z" fill="#F6F6F6"/>
<path d="M172.862 353.343V280.308H194.502V288.165C196.82 284.644 199.482 282.197 202.488 280.823C205.493 279.449 209.057 278.762 213.179 278.762H216.399V299.372H212.277C206.782 299.372 202.66 300.66 199.912 303.236C198.022 305.039 196.648 307.487 195.79 310.578C194.931 313.67 194.502 317.663 194.502 322.558V353.343H172.862Z" fill="#F6F6F6"/>
<path d="M132.23 354.889C124.673 354.889 117.975 353.3 112.136 350.123C106.382 346.86 101.917 342.394 98.7393 336.727C95.6479 331.059 94.1022 324.618 94.1022 317.405C94.1022 310.879 95.4332 304.696 98.0953 298.856C100.843 292.931 105.008 288.122 110.59 284.43C116.258 280.651 123.256 278.762 131.586 278.762C138.37 278.762 144.596 280.093 150.263 282.755C156.017 285.417 160.611 289.668 164.046 295.507C167.567 301.347 169.327 308.732 169.327 317.663V321.398H116.773C117.03 323.202 117.503 324.962 118.19 326.679C118.877 328.311 119.65 329.685 120.508 330.801C123.428 334.494 127.722 336.34 133.389 336.34C136.567 336.34 139.272 335.567 141.504 334.022C143.823 332.476 145.454 330.501 146.399 328.096H168.168C165.935 335.997 161.813 342.437 155.802 347.418C149.791 352.399 141.934 354.889 132.23 354.889ZM147.43 306.07C146.828 303.408 145.669 301.218 143.952 299.501C141.118 296.667 137.254 295.25 132.359 295.25C127.464 295.25 123.6 296.667 120.766 299.501C118.963 301.304 117.846 303.494 117.417 306.07H147.43Z" fill="#F6F6F6"/>
<path d="M28.7422 353.343H5.68518V255.061H29.1286L66.87 314.7V255.061H89.927V353.343H66.4836L28.7422 293.318V353.343Z" fill="#F6F6F6"/>
</svg>
