<svg width="337" height="210" viewBox="0 0 337 210" fill="none" xmlns="http://www.w3.org/2000/svg">
<path fill-rule="evenodd" clip-rule="evenodd" d="M305.067 28.9444C302.668 25.9008 301.236 22.0586 301.236 17.8821C301.236 8.00609 309.242 0 319.118 0C328.994 0 337 8.00609 337 17.8821C337 24.9871 332.856 31.1244 326.854 34.009L315.237 65.4414C318.74 68.902 320.985 72.9663 321.869 77.0306C324.162 87.5764 325.079 104.541 325.079 129.76C325.079 147.811 322.142 165.985 320.21 175.085C328.905 184.147 334.249 196.449 334.249 210H0.449768C0.449768 190.035 12.0498 172.78 28.8777 164.606V146.266C28.8777 89.2894 75.0667 43.1004 132.044 43.1004C188.719 43.1004 234.72 88.8014 235.206 145.362C237.78 140.562 240.661 134.167 243.004 126.55C247.387 112.306 248.57 103.589 250.26 91.1308C250.692 87.9491 251.157 84.5229 251.716 80.6987C252.818 73.1707 255.978 67.8485 260.608 64.1138L249.378 33.726C243.681 30.7358 239.795 24.7628 239.795 17.8821C239.795 8.00609 247.801 0 257.677 0C267.553 0 275.559 8.00609 275.559 17.8821C275.559 22.2417 273.999 26.237 271.406 29.34L280.899 56.6663C283.6 56.3084 286.416 56.0769 289.314 55.9389C291.492 55.9389 293.571 56.0803 295.548 56.3469L305.067 28.9444ZM198.528 159.563H175.603V144.432C175.603 120.375 156.101 100.873 132.044 100.873C107.987 100.873 88.4847 120.375 88.4847 144.432V159.563H65.5589V144.432C65.5589 107.714 95.3251 77.9476 132.044 77.9476C168.762 77.9476 198.528 107.714 198.528 144.432V159.563Z" fill="#2F4225"/>
</svg>
