<svg width="400" height="400" viewBox="0 0 400 400" fill="none" xmlns="http://www.w3.org/2000/svg">
<g clip-path="url(#clip0_2262_3535)">
<rect width="400" height="400" rx="200" transform="matrix(1 0 0 -1 0 400)" fill="white"/>
<path d="M400 400.017H0V0.0169678H400V400.017Z" fill="#C5D9DC"/>
<path d="M19.2222 342.943C19.2222 342.906 19.2222 342.832 19.2222 342.795V342.758C19.2222 342.535 19.2222 342.276 19.1852 342.054C18.963 335.647 15.5926 330.054 10.5926 326.758C7.03704 323.721 4.92593 319.276 4.92593 314.573V313.943C4.92593 309.165 7.11111 304.721 10.7407 301.684C15.7407 298.276 19.0741 292.61 19.2222 286.165V285.795C19.2222 285.758 19.2222 285.684 19.2222 285.647V285.61C19.2222 285.387 19.2222 285.128 19.1852 284.906C18.963 278.498 15.5926 272.906 10.5926 269.61C7.03704 266.573 4.92593 262.128 4.92593 257.424V256.795C4.92593 252.017 7.11111 247.573 10.7407 244.535C15.7407 241.128 19.0741 235.461 19.2222 229.017V228.647C19.2222 228.61 19.2222 228.535 19.2222 228.498V228.461C19.2222 228.239 19.2222 227.98 19.1852 227.758C18.963 221.35 15.5926 215.758 10.5926 212.461C7.03704 209.424 4.92593 204.98 4.92593 200.276V199.647C4.92593 194.869 7.11111 190.424 10.7407 187.387C15.7407 183.98 19.0741 178.313 19.2222 171.869V171.498C19.2222 171.461 19.2222 171.387 19.2222 171.35V171.313C19.2222 171.091 19.2222 170.832 19.1852 170.61C18.963 164.202 15.5926 158.647 10.5926 155.313C7.03704 152.276 4.92593 147.832 4.92593 143.128V142.498C4.92593 137.721 7.11111 133.276 10.7407 130.239C15.7407 126.869 19.0741 121.165 19.2222 114.721V114.35C19.2222 114.313 19.2222 114.239 19.2222 114.202V114.165C19.2222 113.943 19.2222 113.721 19.1852 113.461C18.963 107.091 15.5926 101.498 10.5926 98.1651C7.03704 95.1281 4.92593 90.6836 4.92593 85.9799V85.3503C4.92593 80.5725 7.11111 76.1281 10.7407 73.091C15.7407 69.7207 19.0741 64.017 19.2222 57.5725V57.2021C19.2222 57.1651 19.2222 57.091 19.2222 57.054V57.017C19.2222 56.7947 19.2222 56.5725 19.1852 56.3132C18.963 49.9429 15.5926 44.3503 10.5926 41.017C7.03704 37.9799 4.92593 33.5355 4.92593 28.8318V28.2021C4.92593 23.1281 7.40741 18.3873 11.4815 15.3503C16.1852 11.8318 19.2222 6.23915 19.2222 -0.0941805H0V400.017H19.2593C19.2593 393.721 16.2222 388.091 11.5185 384.61C7.44444 381.535 4.96296 376.795 4.96296 371.684V371.054C4.96296 366.276 7.14815 361.832 10.7778 358.795C15.7778 355.387 19.1111 349.721 19.2593 343.276V342.943H19.2222Z" fill="#6E9BA2"/>
<path d="M44.9259 343.128V342.535C44.9259 337.758 47.1111 333.313 50.7407 330.276C55.7407 326.906 59.1111 321.239 59.2222 314.795V314.424C59.2222 314.387 59.2222 314.313 59.2222 314.276V314.239C59.2222 314.017 59.2222 313.795 59.1852 313.535C58.9629 307.165 55.5926 301.535 50.5926 298.239C47.037 295.202 44.9259 290.758 44.9259 286.054V285.424C44.9259 280.647 47.1111 276.202 50.7407 273.165C55.7407 269.795 59.1111 264.128 59.2222 257.647V257.276C59.2222 257.239 59.2222 257.165 59.2222 257.128V257.091C59.2222 256.869 59.2222 256.647 59.1852 256.387C58.9629 250.017 55.5926 244.424 50.5926 241.091C47.037 238.054 44.9259 233.61 44.9259 228.906V228.313C44.9259 223.535 47.1111 219.091 50.7407 216.054C55.7407 212.684 59.1111 207.017 59.2222 200.535V200.165C59.2222 200.128 59.2222 200.054 59.2222 200.017V199.98C59.2222 199.758 59.2222 199.498 59.1852 199.276C58.9629 192.869 55.5926 187.313 50.5926 183.98C47.037 180.943 44.9259 176.498 44.9259 171.795V171.202C44.9259 166.424 47.1111 161.98 50.7407 158.943C55.7407 155.573 59.1111 149.869 59.2222 143.424V143.054C59.2222 143.017 59.2222 142.943 59.2222 142.906V142.832C59.2222 142.61 59.2222 142.35 59.1852 142.128C58.9629 135.721 55.5926 130.165 50.5926 126.832C47.037 123.795 44.9259 119.35 44.9259 114.647V114.054C44.9259 109.276 47.1111 104.832 50.7407 101.795C55.7407 98.4244 59.1111 92.7577 59.2222 86.2762V85.9059C59.2222 85.8688 59.2222 85.7947 59.2222 85.7577V85.6836C59.2222 85.4614 59.2222 85.2021 59.1852 84.9799C58.9629 78.5725 55.5926 73.0169 50.5926 69.6836C47.037 66.6466 44.9259 62.2392 44.9259 57.4984V56.9058C44.9259 56.6095 44.9259 56.2762 44.9629 55.9799C44.9629 55.9429 44.9629 55.9429 44.9629 55.9058C45 55.6096 45 55.3503 45.037 55.054C45.037 55.0169 45.037 54.9799 45.074 54.9429C45.1111 54.6836 45.1481 54.4243 45.1851 54.1281C45.1851 54.091 45.1852 54.054 45.2222 54.0169C45.2592 53.7577 45.3333 53.4984 45.4074 53.2392C45.4074 53.2021 45.4074 53.1651 45.4444 53.1281C45.5185 52.8688 45.5926 52.6095 45.6666 52.3503C45.6666 52.3132 45.7037 52.3132 45.7037 52.2762C45.7777 52.0169 45.8889 51.7577 45.9629 51.4614C45.9629 51.4244 45.9629 51.4244 46 51.3873C46.1111 51.1281 46.2222 50.8318 46.3333 50.5725C46.3333 50.5725 46.3333 50.5725 46.3333 50.5355C47.3703 48.2021 48.9629 46.1281 50.9629 44.4984C55.3703 41.4243 58.4814 36.5725 59.1481 30.9799V30.9429C59.1851 30.6095 59.2222 30.2762 59.2222 29.9058C59.2222 29.7947 59.2222 29.6836 59.2222 29.5725C59.2222 29.4244 59.2592 29.2762 59.2592 29.091V28.7207C59.2592 28.6836 59.2592 28.6466 59.2592 28.6095V28.5725C59.2592 28.3503 59.2592 28.091 59.2222 27.8688C59.1851 27.091 59.1111 26.3133 59 25.5355C59 25.4984 59 25.4614 58.9629 25.4243C58.9259 25.1281 58.8518 24.7947 58.7777 24.4984C58.7407 24.4243 58.7407 24.3133 58.7037 24.2392C58.6296 23.9799 58.5926 23.7206 58.5185 23.4614C58.4814 23.3503 58.4444 23.2762 58.4444 23.1651C58.3703 22.9058 58.2963 22.6466 58.1852 22.3873C58.1481 22.3133 58.1481 22.2021 58.1111 22.1281C58 21.7947 57.8889 21.4984 57.7407 21.1651C57.7037 21.054 57.6296 20.9429 57.5926 20.8318C57.5185 20.6466 57.4074 20.4243 57.2963 20.2392C57.2222 20.091 57.1481 19.9429 57.074 19.7947C57 19.6466 56.9259 19.4984 56.8148 19.3503C56.7407 19.2021 56.6296 19.017 56.5555 18.8688C56.4814 18.7577 56.4074 18.6096 56.3333 18.4984C56.2222 18.3503 56.1111 18.1651 56 18.0169C55.9259 17.9429 55.8889 17.8318 55.8148 17.7577C55.5185 17.3503 55.2222 16.9429 54.9259 16.5355L54.8889 16.4984C54.7407 16.3132 54.5555 16.1281 54.4074 15.9429C54.3333 15.8688 54.2963 15.8318 54.2222 15.7577C54.074 15.5725 53.8889 15.3873 53.7407 15.2392C53.6666 15.1651 53.6296 15.1281 53.5555 15.054C53.3703 14.8688 53.1852 14.6836 53 14.5354C52.9629 14.4984 52.9259 14.4984 52.9259 14.4614C52.1851 13.7947 51.4444 13.2021 50.5926 12.6466C47.037 9.60953 44.9259 5.16508 44.9259 0.461375V0.128078H35.074V0.498448C35.074 5.27623 32.8889 9.72066 29.2592 12.7577C29.1111 12.8688 28.9629 12.9799 28.7777 13.091C28.7407 13.1281 28.7407 13.1281 28.7037 13.1651C28.4814 13.3132 28.2592 13.4984 28.037 13.6466C28 13.6836 27.9629 13.7207 27.9259 13.7207C27.7037 13.9058 27.4814 14.054 27.2963 14.2392L27.2592 14.2762C26.5926 14.8688 26 15.4614 25.4444 16.1281C25.4074 16.1651 25.3703 16.2022 25.3703 16.2392C25.2222 16.4244 25.074 16.6095 24.9259 16.7577C24.8518 16.8317 24.7777 16.9058 24.7407 17.017C24.6296 17.1651 24.4814 17.3503 24.3703 17.5355C24.2963 17.6466 24.2222 17.7577 24.1481 17.8318C24.037 17.9799 23.9259 18.1651 23.8148 18.3133C23.7407 18.4244 23.6666 18.5725 23.5926 18.6836C23.4814 18.8318 23.4074 18.9799 23.2963 19.1651C23.1851 19.3503 23.074 19.5355 23 19.7206C22.9259 19.9058 22.8148 20.054 22.7407 20.2392C22.6296 20.4614 22.5185 20.6836 22.4074 20.9429C22.3703 21.054 22.3333 21.1651 22.2592 21.2762C22.1851 21.4984 22.074 21.7206 22 21.9058C21.9629 22.0169 21.9259 22.1281 21.8889 22.2392C21.8148 22.4614 21.7407 22.6836 21.6666 22.9429C21.6296 23.054 21.5926 23.1281 21.5926 23.2392C21.5185 23.4984 21.4444 23.7947 21.3703 24.054C21.3703 24.1281 21.3333 24.1651 21.3333 24.2392C21.074 25.3133 20.9259 26.4244 20.8518 27.5725C20.8518 27.7947 20.8148 28.017 20.8148 28.2392C20.8148 28.3503 20.8148 28.4984 20.8148 28.6095C20.8148 28.6466 20.8148 28.7206 20.8148 28.7577V28.7947C20.8148 28.9799 20.8148 29.1651 20.8148 29.3132C20.8148 29.3873 20.8148 29.4614 20.8148 29.5355C21.074 35.8688 24.3703 41.4244 29.3333 44.7207C30.7407 45.9429 31.9629 47.3503 32.8889 48.9429C32.8889 48.9429 32.8889 48.9799 32.9259 48.9799C33.074 49.2392 33.2222 49.4984 33.3333 49.7577C33.3703 49.7947 33.3703 49.8318 33.3703 49.8318C33.4814 50.054 33.5926 50.3132 33.7037 50.5725C33.7037 50.6095 33.7407 50.6466 33.7407 50.7207C33.8518 50.9429 33.9259 51.2021 34.037 51.4244C34.074 51.4614 34.074 51.5355 34.1111 51.5725C34.1851 51.7947 34.2963 52.054 34.3703 52.2762C34.4074 52.3503 34.4074 52.3873 34.4444 52.4614C34.5185 52.6836 34.5926 52.9429 34.6296 53.1651C34.6296 53.2392 34.6666 53.2762 34.6666 53.3503C34.7407 53.5725 34.7777 53.8318 34.8148 54.054C34.8148 54.1281 34.8518 54.1651 34.8518 54.2392C34.8889 54.4984 34.9259 54.7207 34.9629 54.9799C34.9629 55.054 34.9629 55.091 35 55.1651C35.037 55.4244 35.037 55.6836 35.074 55.9799C35.074 56.0169 35.074 56.054 35.074 56.091C35.1111 56.3873 35.1111 56.7207 35.1111 57.017V57.6466C35.1111 62.4243 32.9259 66.8688 29.2963 69.9058C26.8889 71.5355 24.8518 73.7207 23.3703 76.2392C21.8889 78.7577 21 81.6466 20.8148 84.7577C20.8148 84.9799 20.7777 85.2021 20.7777 85.4244C20.7777 85.5355 20.7777 85.6836 20.7777 85.7947C20.7777 85.8318 20.7777 85.9058 20.7777 85.9429V85.9799C20.7777 86.2021 20.7777 86.4244 20.7777 86.6836C21.037 93.054 24.3703 98.6466 29.3703 101.98C32.9259 105.054 35.037 109.461 35.037 114.165V114.795C35.037 119.573 32.8518 124.017 29.2222 127.054C26.8148 128.684 24.7777 130.869 23.2963 133.387C21.8148 135.906 20.9259 138.832 20.7407 141.906C20.7407 142.128 20.7037 142.35 20.7037 142.573C20.7037 142.684 20.7037 142.832 20.7037 142.943C20.7037 142.98 20.7037 143.054 20.7037 143.091V143.128C20.7037 143.35 20.7037 143.573 20.7037 143.832C20.9629 150.202 24.2963 155.795 29.2963 159.128C32.8518 162.165 34.9629 166.61 34.9629 171.313V171.906C34.9629 176.684 32.7777 181.128 29.1481 184.165C26.7407 185.795 24.7037 187.98 23.2222 190.498C21.7407 193.017 20.8518 195.906 20.6666 199.017C20.6666 199.239 20.6296 199.461 20.6296 199.684C20.6296 199.795 20.6296 199.943 20.6296 200.054C20.6296 200.091 20.6296 200.165 20.6296 200.202V200.239C20.6296 200.461 20.6296 200.721 20.6296 200.943C20.8889 207.35 24.2222 212.906 29.2222 216.239C32.7777 219.276 34.8889 223.721 34.8889 228.424V228.906C34.8889 233.684 32.7037 238.128 29.074 241.165C26.6666 242.795 24.6296 244.98 23.1481 247.498C21.6666 250.017 20.7777 252.943 20.5926 256.017C20.5926 256.239 20.5555 256.461 20.5555 256.684C20.5555 256.795 20.5555 256.943 20.5555 257.054C20.5555 257.091 20.5555 257.165 20.5555 257.202V257.239C20.5555 257.461 20.5555 257.721 20.5555 257.943C20.8148 264.35 24.1481 269.906 29.1481 273.239C32.7037 276.276 34.8148 280.721 34.8148 285.424V286.017C34.8148 290.795 32.6296 295.239 29 298.276C24.1852 301.535 20.8889 306.943 20.5555 313.128C20.5555 313.35 20.5185 313.573 20.5185 313.795C20.5185 313.906 20.5185 314.054 20.5185 314.165C20.5185 314.202 20.5185 314.276 20.5185 314.313V314.35C20.5185 314.573 20.5185 314.832 20.5185 315.054C20.7777 321.461 24.1111 327.054 29.1111 330.35C32.6666 333.387 34.7777 337.832 34.7777 342.535V343.128C34.7777 343.461 34.7777 343.758 34.7407 344.054C34.7407 344.091 34.7407 344.091 34.7407 344.128C34.7037 344.424 34.7037 344.684 34.6666 344.98C34.6666 345.017 34.6666 345.054 34.6666 345.091C34.6296 345.35 34.5926 345.61 34.5555 345.906C34.5555 345.943 34.5555 345.98 34.5185 346.017C34.4814 346.276 34.4074 346.535 34.3703 346.795C34.3703 346.832 34.3333 346.869 34.3333 346.906C34.2592 347.165 34.1851 347.424 34.1111 347.684C34.1111 347.721 34.074 347.758 34.074 347.758C34 348.017 33.8889 348.276 33.8148 348.535C33.8148 348.573 33.8148 348.573 33.7777 348.61C33.6666 348.869 33.5555 349.165 33.4444 349.424C33.4444 349.424 33.4444 349.424 33.4444 349.461C32.4074 351.795 30.8148 353.869 28.8148 355.498C24.1481 358.721 20.9629 363.943 20.5555 369.943C20.5555 370.054 20.5555 370.128 20.5185 370.239C20.5185 370.461 20.4814 370.647 20.4814 370.869C20.4814 370.98 20.4814 371.128 20.4814 371.239V371.35V371.387C20.4814 371.61 20.4814 371.869 20.4814 372.091C20.5185 372.869 20.5926 373.647 20.7037 374.387C20.7037 374.424 20.7037 374.461 20.7407 374.498C20.7777 374.795 20.8518 375.128 20.9259 375.424C20.9629 375.498 20.9629 375.61 21 375.721C21.074 375.98 21.1481 376.239 21.1851 376.498C21.2222 376.61 21.2592 376.721 21.2592 376.795C21.3333 377.054 21.4074 377.313 21.5185 377.573C21.5555 377.647 21.5555 377.758 21.5926 377.832C21.7037 378.165 21.8148 378.461 21.9629 378.795C22 378.906 22.074 379.017 22.1111 379.128C22.1851 379.313 22.2963 379.535 22.3703 379.721C22.4444 379.869 22.5185 380.017 22.5926 380.165C22.6666 380.313 22.7407 380.461 22.8518 380.61C22.9259 380.758 23.037 380.943 23.1111 381.091C23.1851 381.239 23.2592 381.35 23.3333 381.461C23.4444 381.647 23.5555 381.795 23.6296 381.943C23.7037 382.017 23.7407 382.128 23.8148 382.202C24.1111 382.61 24.4074 383.017 24.7037 383.424L24.7407 383.461C24.8889 383.647 25.037 383.832 25.2222 384.017C25.2963 384.091 25.3333 384.128 25.4074 384.202C25.5555 384.387 25.7407 384.573 25.8889 384.721C25.9629 384.795 26 384.832 26.074 384.906C26.2592 385.091 26.4444 385.276 26.6296 385.424C26.6666 385.461 26.7037 385.498 26.7037 385.498C27.4444 386.165 28.2222 386.758 29.037 387.313C32.5926 390.35 34.7037 394.758 34.7037 399.498V400.017H44.5926V399.647C44.5926 394.869 46.7777 390.424 50.4074 387.387C50.5555 387.276 50.7037 387.165 50.8518 387.054C50.8889 387.017 50.9259 387.017 50.9629 386.98C51.1852 386.832 51.4074 386.647 51.5926 386.498C51.6296 386.461 51.6666 386.424 51.7037 386.424C52.5926 385.721 53.4074 384.906 54.1481 384.054C54.1851 383.98 54.2592 383.943 54.2963 383.869C54.4444 383.684 54.5926 383.498 54.7407 383.313C54.7777 383.239 54.8518 383.165 54.8889 383.091C55.037 382.906 55.1851 382.721 55.3333 382.498C55.3703 382.461 55.4074 382.387 55.4444 382.35C55.8889 381.684 56.3333 381.017 56.7037 380.276C56.7407 380.202 56.7777 380.091 56.8518 380.017C56.9629 379.832 57.037 379.61 57.1481 379.424C57.1852 379.313 57.2592 379.202 57.2963 379.091C57.3703 378.906 57.4814 378.684 57.5555 378.498C57.5926 378.387 57.6296 378.276 57.7037 378.128C57.7777 377.906 57.8518 377.721 57.9259 377.535C57.9629 377.461 57.9629 377.35 58 377.276C58.1111 376.906 58.2222 376.498 58.3333 376.091C58.3703 375.943 58.4074 375.758 58.4444 375.61C58.4814 375.424 58.5185 375.276 58.5555 375.091C58.5926 374.906 58.6296 374.721 58.6666 374.535C58.7037 374.35 58.7037 374.202 58.7407 374.017C58.7777 373.795 58.7777 373.61 58.8148 373.387C58.8518 373.239 58.8518 373.091 58.8518 372.943C58.8889 372.61 58.8889 372.313 58.8889 371.98C58.8889 371.943 58.8889 371.906 58.8889 371.869V371.498C58.8889 371.461 58.8889 371.387 58.8889 371.35V371.313C58.8889 371.128 58.8889 370.943 58.8889 370.795C58.8889 370.721 58.8889 370.647 58.8889 370.573C58.6296 364.239 55.2963 358.721 50.3703 355.387C48.9259 354.165 47.7407 352.758 46.8148 351.165C46.8148 351.165 46.8148 351.128 46.7777 351.128C46.6296 350.869 46.4814 350.61 46.3703 350.35C46.3703 350.313 46.3333 350.276 46.3333 350.276C46.2222 350.054 46.1111 349.795 46 349.535C46 349.498 45.9629 349.461 45.9629 349.387C45.8518 349.165 45.7777 348.906 45.6666 348.684C45.6666 348.647 45.6296 348.573 45.5926 348.535C45.5185 348.313 45.4074 348.054 45.3333 347.832C45.2963 347.758 45.2963 347.721 45.2963 347.647C45.2222 347.424 45.1481 347.165 45.1111 346.943C45.1111 346.869 45.074 346.832 45.074 346.758C45.037 346.535 44.9629 346.276 44.9259 346.054C44.9259 345.98 44.8889 345.943 44.8889 345.869C44.8518 345.61 44.8148 345.387 44.7777 345.128C44.7777 345.054 44.7777 345.017 44.7407 344.943C44.7037 344.684 44.6666 344.424 44.6666 344.128V344.017C44.9629 343.758 44.9259 343.424 44.9259 343.128Z" fill="#6E9BA2"/>
<path d="M99.222 342.943C99.222 342.906 99.222 342.832 99.222 342.795V342.758C99.222 342.535 99.222 342.276 99.1849 342.054C98.9627 335.647 95.5924 330.054 90.5924 326.758C87.0368 323.721 84.9257 319.276 84.9257 314.573V313.943C84.9257 309.165 87.1109 304.721 90.7405 301.684C95.7405 298.276 99.0738 292.61 99.222 286.165V285.795C99.222 285.758 99.222 285.684 99.222 285.647V285.61C99.222 285.387 99.222 285.128 99.1849 284.906C98.9627 278.498 95.5924 272.906 90.5924 269.61C87.0368 266.573 84.9257 262.128 84.9257 257.424V256.795C84.9257 252.017 87.1109 247.573 90.7405 244.535C95.7405 241.128 99.0738 235.461 99.222 229.017V228.647C99.222 228.61 99.222 228.535 99.222 228.498V228.461C99.222 228.239 99.222 227.98 99.1849 227.758C98.9627 221.35 95.5924 215.758 90.5924 212.461C87.0368 209.424 84.9257 204.98 84.9257 200.276V199.647C84.9257 194.869 87.1109 190.424 90.7405 187.387C95.7405 183.98 99.0738 178.313 99.222 171.869V171.498C99.222 171.461 99.222 171.387 99.222 171.35V171.313C99.222 171.091 99.222 170.832 99.1849 170.61C98.9627 164.202 95.5924 158.647 90.5924 155.313C87.0368 152.276 84.9257 147.832 84.9257 143.128V142.498C84.9257 137.721 87.1109 133.276 90.7405 130.239C95.7405 126.869 99.0738 121.165 99.222 114.721V114.35C99.222 114.313 99.222 114.239 99.222 114.202V114.165C99.222 113.943 99.222 113.721 99.1849 113.461C98.9627 107.091 95.5924 101.498 90.5924 98.1651C87.0368 95.1281 84.9257 90.6836 84.9257 85.9799V85.3503C84.9257 80.5725 87.1109 76.1281 90.7405 73.091C95.7405 69.7207 99.0738 64.017 99.222 57.5725V57.2021C99.222 57.1651 99.222 57.091 99.222 57.054V57.017C99.222 56.7947 99.222 56.5725 99.1849 56.3132C98.9627 49.9429 95.5924 44.3503 90.5924 41.017C87.0368 37.9799 84.9257 33.5355 84.9257 28.8318V28.2021C84.9257 23.1281 87.4072 18.3873 91.4812 15.3503C96.1849 11.8318 99.222 6.23915 99.222 -0.0941805H60.7775C60.7775 6.20212 63.8146 11.8318 68.5183 15.3133C72.5924 18.3873 75.1109 23.1281 75.1109 28.2021V28.8318C75.1109 33.6095 72.9257 38.054 69.2961 41.091C64.4812 44.3503 61.185 49.7577 60.8516 55.9429C60.8516 56.1651 60.8146 56.3873 60.8146 56.6095C60.8146 56.7207 60.8146 56.8688 60.8146 56.9799V57.1651C60.8146 57.3873 60.8146 57.6466 60.8516 57.8688C61.1109 64.2762 64.4442 69.8318 69.4442 73.1651C72.9998 76.2021 75.1109 80.6466 75.1109 85.3503V85.9799C75.1109 90.7577 72.9257 95.2021 69.2961 98.2392C66.8887 99.8688 64.8516 102.054 63.3701 104.573C61.8887 107.091 60.9998 109.98 60.8146 113.091C60.8146 113.313 60.7775 113.535 60.7775 113.758C60.7775 113.869 60.7775 114.017 60.7775 114.128V114.313C60.7775 114.535 60.7775 114.795 60.8146 115.017C61.0738 121.424 64.4072 126.98 69.4072 130.313C72.9627 133.35 75.0738 137.795 75.0738 142.498V143.128C75.0738 147.906 72.8887 152.35 69.259 155.387C66.8516 157.017 64.8146 159.202 63.3331 161.721C61.8516 164.239 60.9627 167.165 60.7775 170.239C60.7775 170.461 60.7405 170.684 60.7405 170.906C60.7405 171.017 60.7405 171.165 60.7405 171.276V171.461C60.7405 171.684 60.7405 171.943 60.7775 172.165C61.0368 178.573 64.3701 184.128 69.3701 187.461C72.9257 190.498 75.0368 194.943 75.0368 199.647V200.276C75.0368 205.054 72.8516 209.498 69.222 212.535C66.8146 214.165 64.7775 216.35 63.2961 218.869C61.8146 221.387 60.9257 224.276 60.7405 227.387C60.7405 227.61 60.7035 227.832 60.7035 228.054C60.7035 228.165 60.7035 228.313 60.7035 228.424V228.61C60.7035 228.832 60.7035 229.091 60.7405 229.313C60.9998 235.721 64.3331 241.313 69.3331 244.61C72.8887 247.647 74.9998 252.054 74.9998 256.795V257.424C74.9998 262.202 72.8146 266.647 69.185 269.684C66.7775 271.313 64.7405 273.498 63.259 276.017C61.7775 278.535 60.8887 281.461 60.7035 284.535C60.7035 284.758 60.6664 284.98 60.6664 285.202C60.6664 285.313 60.6664 285.461 60.6664 285.573V285.758C60.6664 285.98 60.6664 286.202 60.7035 286.461C60.9627 292.832 64.2961 298.461 69.2961 301.758C72.8516 304.795 74.9627 309.239 74.9627 313.943V314.573C74.9627 319.35 72.7775 323.795 69.1479 326.832C66.7405 328.461 64.7035 330.647 63.222 333.165C61.7405 335.684 60.8516 338.573 60.6664 341.684C60.6664 341.906 60.6294 342.128 60.6294 342.35C60.6294 342.461 60.6294 342.61 60.6294 342.721V342.906C60.6294 343.128 60.6294 343.35 60.6664 343.61C60.9257 349.98 64.259 355.573 69.259 358.906C72.8146 361.943 74.9257 366.387 74.9257 371.091V371.721C74.9257 376.795 72.4442 381.535 68.3701 384.573C63.6664 388.091 60.6294 393.684 60.6294 400.017H99.1109C99.1109 393.721 96.0738 388.091 91.3701 384.61C87.2961 381.535 84.8146 376.795 84.8146 371.684V371.054C84.8146 366.276 86.9998 361.832 90.6294 358.795C95.6294 355.387 98.9627 349.721 99.1109 343.276V342.943H99.222Z" fill="#6E9BA2"/>
<path d="M124.926 343.128V342.535C124.926 337.758 127.111 333.313 130.741 330.276C135.741 326.906 139.111 321.239 139.222 314.795V314.424C139.222 314.387 139.222 314.313 139.222 314.276V314.239C139.222 314.017 139.222 313.795 139.185 313.535C138.963 307.165 135.592 301.535 130.592 298.239C127.037 295.202 124.926 290.758 124.926 286.054V285.424C124.926 280.647 127.111 276.202 130.741 273.165C135.741 269.795 139.111 264.128 139.222 257.647V257.276C139.222 257.239 139.222 257.165 139.222 257.128V257.091C139.222 256.869 139.222 256.647 139.185 256.387C138.963 250.017 135.592 244.424 130.592 241.091C127.037 238.054 124.926 233.61 124.926 228.906V228.313C124.926 223.535 127.111 219.091 130.741 216.054C135.741 212.684 139.111 207.017 139.222 200.535V200.165C139.222 200.128 139.222 200.054 139.222 200.017V199.98C139.222 199.758 139.222 199.498 139.185 199.276C138.963 192.869 135.592 187.313 130.592 183.98C127.037 180.943 124.926 176.498 124.926 171.795V171.202C124.926 166.424 127.111 161.98 130.741 158.943C135.741 155.573 139.074 149.869 139.222 143.424V143.054C139.222 143.017 139.222 142.943 139.222 142.906V142.832C139.222 142.61 139.222 142.35 139.185 142.128C138.963 135.721 135.592 130.165 130.592 126.832C127.037 123.795 124.926 119.35 124.926 114.647V114.054C124.926 109.276 127.111 104.832 130.741 101.795C135.741 98.4244 139.111 92.7577 139.222 86.2762V85.9059C139.222 85.8688 139.222 85.7947 139.222 85.7577V85.6836C139.222 85.4614 139.222 85.2021 139.185 84.9799C138.963 78.5725 135.592 73.0169 130.592 69.6836C127.037 66.6466 124.926 62.2392 124.926 57.4984V56.9058C124.926 56.6095 124.926 56.2762 124.963 55.9799C124.963 55.9429 124.963 55.9429 124.963 55.9058C125 55.6096 125 55.3503 125.037 55.054C125.037 55.0169 125.037 54.9799 125.037 54.9429C125.074 54.6836 125.111 54.4243 125.148 54.1281C125.148 54.091 125.148 54.054 125.185 54.0169C125.222 53.7577 125.296 53.4984 125.37 53.2392C125.37 53.2021 125.37 53.1651 125.407 53.1281C125.481 52.8688 125.555 52.6095 125.629 52.3503C125.629 52.3132 125.629 52.3132 125.666 52.2762C125.741 52.0169 125.852 51.7577 125.926 51.4614C125.926 51.4244 125.926 51.4244 125.963 51.3873C126.074 51.1281 126.185 50.8318 126.296 50.5725C126.296 50.5725 126.296 50.5725 126.296 50.5355C127.333 48.2021 128.926 46.1281 130.926 44.4984C135.333 41.4243 138.444 36.5725 139.111 30.9799V30.9429C139.148 30.6095 139.185 30.2762 139.185 29.9058C139.185 29.7947 139.185 29.6836 139.185 29.5725C139.185 29.4244 139.222 29.2762 139.222 29.091V28.7207C139.222 28.6836 139.222 28.6466 139.222 28.6095V28.5725C139.222 28.3503 139.222 28.091 139.185 27.8688C139.148 27.091 139.074 26.3133 138.963 25.5355C138.963 25.4984 138.963 25.4614 138.926 25.4243C138.889 25.1281 138.815 24.7947 138.741 24.4984C138.704 24.4243 138.704 24.3133 138.666 24.2392C138.592 23.9799 138.555 23.7206 138.481 23.4614C138.444 23.3503 138.444 23.2762 138.407 23.1651C138.333 22.9058 138.259 22.6466 138.148 22.3873C138.111 22.3133 138.111 22.2021 138.074 22.1281C137.963 21.7947 137.815 21.4984 137.704 21.1651C137.666 21.054 137.592 20.9429 137.555 20.8318C137.481 20.6466 137.37 20.4243 137.259 20.2392C137.185 20.091 137.111 19.9429 137.037 19.7947C136.963 19.6466 136.889 19.4984 136.778 19.3503C136.704 19.2021 136.592 19.017 136.518 18.8688C136.444 18.7577 136.37 18.6096 136.296 18.4984C136.185 18.3503 136.074 18.1651 135.963 18.0169C135.889 17.9429 135.852 17.8318 135.778 17.7577C135.481 17.3503 135.185 16.9429 134.889 16.5355C134.889 16.5355 134.889 16.4984 134.852 16.4984C134.704 16.3132 134.518 16.1281 134.37 15.9429C134.296 15.8688 134.259 15.8318 134.185 15.7577C134.037 15.5725 133.852 15.3873 133.704 15.2392C133.629 15.1651 133.592 15.1281 133.518 15.054C133.333 14.8688 133.148 14.6836 132.963 14.5354C132.926 14.4984 132.889 14.4984 132.889 14.4614C132.148 13.7947 131.407 13.2021 130.555 12.6466C127 9.60953 124.889 5.16508 124.889 0.461375V0.128078H115V0.498448C115 5.27623 112.815 9.72066 109.185 12.7577C109.037 12.8688 108.889 12.9799 108.704 13.091C108.666 13.1281 108.666 13.1281 108.629 13.1651C108.407 13.3132 108.185 13.4984 107.963 13.6466C107.926 13.6836 107.889 13.7207 107.852 13.7207C107.629 13.9058 107.407 14.054 107.222 14.2392L107.185 14.2762C106.518 14.8688 105.926 15.4614 105.333 16.1281C105.296 16.1651 105.259 16.2022 105.259 16.2392C105.111 16.4244 104.963 16.6095 104.815 16.7577C104.741 16.8317 104.666 16.9058 104.629 17.017C104.518 17.1651 104.37 17.3503 104.259 17.5355C104.185 17.6466 104.111 17.7577 104.037 17.8318C103.926 17.9799 103.815 18.1651 103.704 18.3133C103.629 18.4244 103.555 18.5725 103.481 18.6836C103.37 18.8318 103.296 18.9799 103.185 19.1651C103.074 19.3503 102.963 19.5355 102.889 19.7206C102.815 19.9058 102.704 20.054 102.629 20.2392C102.518 20.4614 102.407 20.6836 102.296 20.9429C102.259 21.054 102.222 21.1651 102.148 21.2762C102.074 21.4984 101.963 21.7206 101.889 21.9058C101.852 22.0169 101.815 22.1281 101.778 22.2392C101.704 22.4614 101.629 22.6836 101.555 22.9429C101.518 23.054 101.481 23.1281 101.481 23.2392C101.407 23.4984 101.333 23.7947 101.259 24.054C101.259 24.1281 101.222 24.1651 101.222 24.2392C100.963 25.3133 100.815 26.4244 100.741 27.5725C100.741 27.7947 100.704 28.017 100.704 28.2392C100.704 28.3503 100.704 28.4984 100.704 28.6095C100.704 28.6466 100.704 28.7206 100.704 28.7577V28.7947C100.704 28.9799 100.704 29.1651 100.704 29.3132C100.704 29.3873 100.704 29.4614 100.704 29.5355C100.963 35.8688 104.259 41.4244 109.222 44.7207C110.629 45.9429 111.852 47.3503 112.778 48.9429C112.778 48.9429 112.778 48.9799 112.815 48.9799C112.963 49.2392 113.111 49.4984 113.222 49.7577C113.222 49.7947 113.259 49.8318 113.259 49.8318C113.37 50.054 113.481 50.3132 113.592 50.5725C113.592 50.6095 113.629 50.6466 113.629 50.7207C113.741 50.9429 113.815 51.2021 113.926 51.4244C113.963 51.4614 113.963 51.5355 114 51.5725C114.074 51.7947 114.185 52.054 114.222 52.2762C114.259 52.3503 114.259 52.3873 114.259 52.4614C114.333 52.6836 114.407 52.9429 114.444 53.1651C114.444 53.2392 114.481 53.2762 114.481 53.3503C114.555 53.5725 114.592 53.8318 114.629 54.054C114.629 54.1281 114.666 54.1651 114.666 54.2392C114.704 54.4984 114.741 54.7207 114.778 54.9799C114.778 55.054 114.815 55.091 114.815 55.1651C114.852 55.4244 114.852 55.6836 114.889 55.9799C114.889 56.0169 114.889 56.054 114.889 56.091C114.926 56.3873 114.926 56.7207 114.926 57.017V57.6466C114.926 62.4243 112.741 66.8688 109.111 69.9058C106.704 71.5355 104.666 73.7207 103.185 76.2392C101.704 78.7577 100.815 81.6466 100.629 84.7577C100.629 84.9799 100.592 85.2021 100.592 85.4244C100.592 85.5355 100.592 85.6836 100.592 85.7947C100.592 85.8318 100.592 85.9058 100.592 85.9429V85.9799C100.592 86.2021 100.592 86.4244 100.592 86.6836C100.852 93.054 104.185 98.6466 109.185 101.98C112.741 105.054 114.889 109.461 114.889 114.165V114.795C114.889 119.573 112.704 124.017 109.074 127.054C106.666 128.684 104.629 130.869 103.148 133.387C101.666 135.906 100.778 138.832 100.592 141.906C100.592 142.128 100.555 142.35 100.555 142.573C100.555 142.684 100.555 142.832 100.555 142.943C100.555 142.98 100.555 143.054 100.555 143.091V143.128C100.555 143.35 100.555 143.573 100.555 143.832C100.815 150.202 104.148 155.795 109.148 159.128C112.704 162.165 114.852 166.61 114.852 171.313V171.906C114.852 176.684 112.666 181.128 109.037 184.165C106.629 185.795 104.592 187.98 103.111 190.498C101.629 193.017 100.741 195.906 100.555 199.017C100.555 199.239 100.518 199.461 100.518 199.684C100.518 199.795 100.518 199.943 100.518 200.054C100.518 200.091 100.518 200.165 100.518 200.202V200.239C100.518 200.461 100.518 200.721 100.518 200.943C100.778 207.35 104.111 212.906 109.111 216.239C112.666 219.276 114.815 223.721 114.815 228.424V228.906C114.815 233.684 112.629 238.128 109 241.165C106.592 242.795 104.555 244.98 103.074 247.498C101.592 250.017 100.704 252.943 100.518 256.017C100.518 256.239 100.481 256.461 100.481 256.684C100.481 256.795 100.481 256.943 100.481 257.054C100.481 257.091 100.481 257.165 100.481 257.202V257.239C100.481 257.461 100.481 257.721 100.481 257.943C100.741 264.35 104.074 269.906 109.074 273.239C112.629 276.276 114.778 280.721 114.778 285.424V286.017C114.778 290.795 112.592 295.239 108.963 298.276C104.148 301.535 100.852 306.943 100.481 313.128C100.481 313.35 100.444 313.573 100.444 313.795C100.444 313.906 100.444 314.054 100.444 314.165C100.444 314.202 100.444 314.276 100.444 314.313V314.35C100.444 314.573 100.444 314.832 100.444 315.054C100.704 321.461 104.037 327.054 109.037 330.35C112.592 333.387 114.741 337.832 114.741 342.535V343.128C114.741 343.461 114.741 343.758 114.704 344.054C114.704 344.091 114.704 344.091 114.704 344.128C114.666 344.424 114.666 344.684 114.629 344.98C114.629 345.017 114.629 345.054 114.629 345.091C114.592 345.35 114.555 345.61 114.518 345.906C114.518 345.943 114.518 345.98 114.481 346.017C114.444 346.276 114.37 346.535 114.296 346.795C114.296 346.832 114.296 346.869 114.259 346.906C114.185 347.165 114.111 347.424 114.037 347.684C114.037 347.721 114.037 347.758 114 347.758C113.926 348.017 113.815 348.276 113.741 348.535C113.741 348.573 113.741 348.573 113.704 348.61C113.592 348.869 113.481 349.165 113.37 349.424C113.37 349.424 113.37 349.424 113.37 349.461C112.333 351.795 110.741 353.869 108.741 355.498C104.074 358.721 100.926 363.943 100.481 369.943C100.481 370.054 100.481 370.128 100.444 370.239C100.444 370.461 100.407 370.647 100.407 370.869C100.407 370.98 100.407 371.128 100.407 371.239V371.35V371.387C100.407 371.61 100.407 371.869 100.407 372.091C100.444 372.869 100.518 373.647 100.629 374.387C100.629 374.424 100.629 374.461 100.666 374.498C100.704 374.795 100.778 375.128 100.852 375.424C100.889 375.498 100.889 375.61 100.926 375.721C101 375.98 101.074 376.239 101.111 376.498C101.148 376.61 101.148 376.721 101.185 376.795C101.259 377.054 101.333 377.313 101.444 377.573C101.481 377.647 101.481 377.758 101.518 377.832C101.629 378.165 101.741 378.461 101.889 378.795C101.926 378.906 102 379.017 102.037 379.128C102.111 379.313 102.222 379.535 102.296 379.721C102.37 379.869 102.444 380.017 102.518 380.165C102.592 380.313 102.666 380.461 102.778 380.61C102.852 380.758 102.963 380.943 103.037 381.091C103.111 381.239 103.185 381.35 103.259 381.461C103.37 381.647 103.481 381.795 103.592 381.943C103.666 382.017 103.704 382.128 103.778 382.202C104.074 382.61 104.37 383.017 104.666 383.424L104.704 383.461C104.852 383.647 105.037 383.832 105.185 384.017C105.259 384.091 105.296 384.128 105.37 384.202C105.518 384.387 105.704 384.573 105.852 384.721C105.889 384.795 105.963 384.832 106.037 384.906C106.222 385.091 106.407 385.276 106.592 385.424C106.629 385.461 106.666 385.498 106.666 385.498C107.407 386.165 108.148 386.758 109 387.313C112.555 390.35 114.704 394.758 114.704 399.498V400.017H124.592V399.647C124.592 394.869 126.778 390.424 130.407 387.387C130.555 387.276 130.704 387.165 130.852 387.054C130.889 387.017 130.926 387.017 130.963 386.98C131.185 386.832 131.407 386.647 131.592 386.498C131.629 386.461 131.666 386.424 131.704 386.424C132.592 385.721 133.407 384.906 134.148 384.054C134.185 383.98 134.259 383.943 134.296 383.869C134.444 383.684 134.592 383.498 134.741 383.313C134.778 383.239 134.852 383.165 134.889 383.091C135.037 382.906 135.185 382.721 135.333 382.498C135.37 382.461 135.407 382.387 135.444 382.35C135.889 381.684 136.333 381.017 136.704 380.276C136.741 380.202 136.778 380.091 136.852 380.017C136.963 379.832 137.037 379.61 137.148 379.424C137.185 379.313 137.259 379.202 137.296 379.091C137.37 378.906 137.481 378.684 137.555 378.498C137.592 378.387 137.629 378.276 137.704 378.128C137.778 377.906 137.852 377.721 137.926 377.535C137.963 377.461 137.963 377.35 138 377.276C138.111 376.906 138.222 376.498 138.333 376.091C138.37 375.943 138.407 375.758 138.444 375.61C138.481 375.424 138.518 375.276 138.555 375.091C138.592 374.906 138.629 374.721 138.666 374.535C138.704 374.35 138.704 374.202 138.741 374.017C138.778 373.795 138.778 373.61 138.815 373.387C138.815 373.239 138.852 373.091 138.852 372.943C138.889 372.61 138.889 372.313 138.889 371.98C138.889 371.943 138.889 371.906 138.889 371.869V371.498C138.889 371.461 138.889 371.387 138.889 371.35V371.313C138.889 371.128 138.889 370.943 138.889 370.795C138.889 370.721 138.889 370.647 138.889 370.573C138.629 364.239 135.296 358.721 130.37 355.387C128.926 354.165 127.741 352.758 126.815 351.165V351.128C126.666 350.869 126.518 350.61 126.407 350.35C126.407 350.313 126.37 350.276 126.37 350.276C126.259 350.054 126.148 349.795 126.037 349.535C126.037 349.498 126 349.461 126 349.387C125.889 349.165 125.815 348.906 125.704 348.684C125.666 348.647 125.666 348.573 125.629 348.535C125.555 348.313 125.444 348.054 125.407 347.832C125.37 347.758 125.37 347.721 125.37 347.647C125.296 347.424 125.222 347.165 125.185 346.943C125.185 346.869 125.148 346.832 125.148 346.758C125.111 346.535 125.037 346.276 125 346.054C125 345.98 124.963 345.943 124.963 345.869C124.926 345.61 124.889 345.387 124.852 345.128C124.852 345.054 124.852 345.017 124.815 344.943C124.778 344.684 124.741 344.424 124.741 344.128V344.017C124.963 343.758 124.926 343.424 124.926 343.128Z" fill="#6E9BA2"/>
<path d="M179.222 342.943C179.222 342.906 179.222 342.832 179.222 342.795V342.758C179.222 342.535 179.222 342.276 179.185 342.054C178.963 335.647 175.593 330.054 170.593 326.758C167.037 323.721 164.926 319.276 164.926 314.573V313.943C164.926 309.165 167.111 304.721 170.741 301.684C175.741 298.276 179.074 292.61 179.222 286.165V285.795C179.222 285.758 179.222 285.684 179.222 285.647V285.61C179.222 285.387 179.222 285.128 179.185 284.906C178.963 278.498 175.593 272.906 170.593 269.61C167.037 266.573 164.926 262.128 164.926 257.424V256.795C164.926 252.017 167.111 247.573 170.741 244.535C175.741 241.128 179.074 235.461 179.222 229.017V228.647C179.222 228.61 179.222 228.535 179.222 228.498V228.461C179.222 228.239 179.222 227.98 179.185 227.758C178.963 221.35 175.593 215.758 170.593 212.461C167.037 209.424 164.926 204.98 164.926 200.276V199.647C164.926 194.869 167.111 190.424 170.741 187.387C175.741 183.98 179.074 178.313 179.222 171.869V171.498C179.222 171.461 179.222 171.387 179.222 171.35V171.313C179.222 171.091 179.222 170.832 179.185 170.61C178.963 164.202 175.593 158.647 170.593 155.313C167.037 152.276 164.926 147.832 164.926 143.128V142.498C164.926 137.721 167.111 133.276 170.741 130.239C175.741 126.869 179.074 121.165 179.222 114.721V114.35C179.222 114.313 179.222 114.239 179.222 114.202V114.165C179.222 113.943 179.222 113.721 179.185 113.461C178.963 107.091 175.593 101.498 170.593 98.1651C167.037 95.1281 164.926 90.6836 164.926 85.9799V85.3503C164.926 80.5725 167.111 76.1281 170.741 73.091C175.741 69.7207 179.074 64.017 179.222 57.5725V57.2021C179.222 57.1651 179.222 57.091 179.222 57.054V57.017C179.222 56.7947 179.222 56.5725 179.185 56.3132C178.963 49.9429 175.593 44.3503 170.593 41.017C167.037 37.9799 164.926 33.5355 164.926 28.8318V28.2021C164.926 23.1281 167.407 18.3873 171.482 15.3503C176.185 11.8318 179.222 6.23915 179.222 -0.0941805H140.778C140.778 6.20212 143.815 11.8318 148.519 15.3133C152.593 18.3873 155.111 23.1281 155.111 28.2021V28.8318C155.111 33.6095 152.926 38.054 149.296 41.091C144.482 44.3503 141.185 49.7577 140.815 55.9429C140.815 56.1651 140.778 56.3873 140.778 56.6095C140.778 56.7207 140.778 56.8688 140.778 56.9799V57.1651C140.778 57.3873 140.778 57.6466 140.815 57.8688C141.037 64.2762 144.407 69.8318 149.407 73.1651C152.963 76.2021 155.111 80.6466 155.111 85.3503V85.9799C155.111 90.7577 152.926 95.2021 149.296 98.2392C146.889 99.8688 144.852 102.054 143.37 104.573C141.889 107.091 141 109.98 140.815 113.091C140.815 113.313 140.778 113.535 140.778 113.758C140.778 113.869 140.778 114.017 140.778 114.128V114.313C140.778 114.535 140.778 114.795 140.815 115.017C141.037 121.424 144.407 126.98 149.407 130.313C152.963 133.35 155.111 137.795 155.111 142.498V143.128C155.111 147.906 152.926 152.35 149.296 155.387C146.889 157.017 144.852 159.202 143.37 161.721C141.889 164.239 141 167.165 140.815 170.239C140.815 170.461 140.778 170.684 140.778 170.906C140.778 171.017 140.778 171.165 140.778 171.276V171.461C140.778 171.684 140.778 171.943 140.815 172.165C141.037 178.573 144.407 184.128 149.407 187.461C152.963 190.498 155.111 194.943 155.111 199.647V200.276C155.111 205.054 152.926 209.498 149.296 212.535C146.889 214.165 144.852 216.35 143.37 218.869C141.889 221.387 141 224.276 140.815 227.387C140.815 227.61 140.778 227.832 140.778 228.054C140.778 228.165 140.778 228.313 140.778 228.424V228.61C140.778 228.832 140.778 229.091 140.815 229.313C141.037 235.721 144.407 241.313 149.407 244.61C152.963 247.647 155.111 252.054 155.111 256.795V257.424C155.111 262.202 152.926 266.647 149.296 269.684C146.889 271.313 144.852 273.498 143.37 276.017C141.889 278.535 141 281.461 140.815 284.535C140.815 284.758 140.778 284.98 140.778 285.202C140.778 285.313 140.778 285.461 140.778 285.573V285.758C140.778 285.98 140.778 286.202 140.815 286.461C141.037 292.832 144.407 298.461 149.407 301.758C152.963 304.795 155.111 309.239 155.111 313.943V314.573C155.111 319.35 152.926 323.795 149.296 326.832C146.889 328.461 144.852 330.647 143.37 333.165C141.889 335.684 141 338.573 140.815 341.684C140.815 341.906 140.778 342.128 140.778 342.35C140.778 342.461 140.778 342.61 140.778 342.721V342.906C140.778 343.128 140.778 343.35 140.815 343.61C141.037 349.98 144.407 355.573 149.407 358.906C152.963 361.943 155.111 366.387 155.111 371.091V371.721C155.111 376.795 152.63 381.535 148.556 384.573C143.852 388.091 140.815 393.684 140.815 400.017H179.296C179.296 393.721 176.259 388.091 171.556 384.61C167.482 381.535 165 376.795 165 371.684V371.054C165 366.276 167.185 361.832 170.815 358.795C175.815 355.387 179.148 349.721 179.296 343.276V342.943H179.222Z" fill="#6E9BA2"/>
<path d="M204.926 343.128V342.535C204.926 337.758 207.111 333.313 210.741 330.276C215.741 326.906 219.111 321.239 219.222 314.795V314.424C219.222 314.387 219.222 314.313 219.222 314.276V314.239C219.222 314.017 219.222 313.795 219.222 313.535C218.963 307.165 215.63 301.535 210.63 298.239C207.074 295.202 204.963 290.758 204.963 286.054V285.424C204.963 280.647 207.148 276.202 210.778 273.165C215.778 269.795 219.148 264.128 219.259 257.647V257.276C219.259 257.239 219.259 257.165 219.259 257.128V257.091C219.259 256.869 219.259 256.647 219.259 256.387C219 250.017 215.667 244.424 210.667 241.091C207.111 238.054 205 233.61 205 228.906V228.313C205 223.535 207.185 219.091 210.815 216.054C215.815 212.684 219.185 207.017 219.296 200.535V200.165C219.296 200.128 219.296 200.054 219.296 200.017V199.98C219.296 199.758 219.296 199.498 219.296 199.276C219.037 192.869 215.704 187.313 210.704 183.98C207.148 180.943 205.037 176.498 205.037 171.795V171.202C205.037 166.424 207.222 161.98 210.852 158.943C215.852 155.573 219.185 149.869 219.333 143.424V143.054C219.333 143.017 219.333 142.943 219.333 142.906V142.832C219.333 142.61 219.333 142.35 219.333 142.128C219.074 135.721 215.741 130.165 210.741 126.832C207.185 123.795 205.074 119.35 205.074 114.647V114.054C205.074 109.276 207.259 104.832 210.889 101.795C215.889 98.4244 219.259 92.7577 219.37 86.2762V85.9059C219.37 85.8688 219.37 85.7947 219.37 85.7577V85.6836C219.37 85.4614 219.37 85.2021 219.37 84.9799C219.111 78.5725 215.778 73.0169 210.778 69.6836C207.222 66.6466 205.111 62.2392 205.111 57.4984V56.9058C205.111 56.6095 205.111 56.2762 205.148 55.9799C205.148 55.9429 205.148 55.9429 205.148 55.9058C205.148 55.6096 205.185 55.3503 205.222 55.054C205.222 55.0169 205.222 54.9799 205.222 54.9429C205.259 54.6836 205.296 54.4243 205.333 54.1281C205.333 54.091 205.333 54.054 205.37 54.0169C205.407 53.7577 205.482 53.4984 205.556 53.2392C205.556 53.2021 205.593 53.1651 205.593 53.1281C205.667 52.8688 205.741 52.6095 205.815 52.3503C205.815 52.3132 205.815 52.3132 205.852 52.2762C205.926 52.0169 206.037 51.7577 206.111 51.4614C206.111 51.4244 206.111 51.4244 206.148 51.3873C206.259 51.1281 206.37 50.8318 206.482 50.5725C206.482 50.5725 206.482 50.5725 206.482 50.5355C207.519 48.2021 209.111 46.1281 211.111 44.4984C215.519 41.4243 218.63 36.5725 219.296 30.9799V30.9429C219.333 30.6095 219.37 30.2762 219.37 29.9058C219.37 29.7947 219.37 29.6836 219.37 29.5725C219.37 29.4244 219.407 29.2762 219.407 29.091V28.7207C219.407 28.6836 219.407 28.6466 219.407 28.6095V28.5725C219.407 28.3503 219.407 28.091 219.407 27.8688C219.37 27.091 219.296 26.3133 219.185 25.5355C219.185 25.4984 219.185 25.4614 219.148 25.4243C219.111 25.1281 219.037 24.7947 218.963 24.4984C218.963 24.4243 218.926 24.3133 218.889 24.2392C218.815 23.9799 218.778 23.7206 218.704 23.4614C218.667 23.3503 218.63 23.2762 218.63 23.1651C218.556 22.9058 218.482 22.6466 218.37 22.3873C218.333 22.3133 218.296 22.2021 218.296 22.1281C218.185 21.7947 218.037 21.4984 217.926 21.1651C217.889 21.054 217.815 20.9429 217.778 20.8318C217.704 20.6466 217.593 20.4243 217.482 20.2392C217.407 20.091 217.333 19.9429 217.259 19.7947C217.185 19.6466 217.111 19.4984 217 19.3503C216.926 19.2021 216.815 19.017 216.741 18.8688C216.667 18.7577 216.593 18.6096 216.519 18.4984C216.407 18.3503 216.296 18.1651 216.222 18.0169C216.148 17.9429 216.111 17.8318 216.037 17.7577C215.741 17.3503 215.444 16.9429 215.148 16.5355C215.148 16.5355 215.148 16.4984 215.111 16.4984C214.963 16.3132 214.778 16.1281 214.63 15.9429C214.556 15.8688 214.519 15.8318 214.444 15.7577C214.296 15.5725 214.111 15.3873 213.963 15.2392C213.889 15.1651 213.852 15.1281 213.778 15.054C213.593 14.8688 213.407 14.6836 213.222 14.5354C213.185 14.4984 213.148 14.4984 213.148 14.4614C212.407 13.7947 211.667 13.2021 210.815 12.6466C207.259 9.60953 205.148 5.16508 205.148 0.461375V0.128078H195.259V0.498448C195.259 5.27623 193.074 9.72066 189.444 12.7577C189.296 12.8688 189.148 12.9799 188.963 13.091C188.926 13.1281 188.926 13.1281 188.889 13.1651C188.667 13.3132 188.444 13.4984 188.222 13.6466C188.185 13.6836 188.148 13.7207 188.111 13.7207C187.889 13.9058 187.667 14.054 187.482 14.2392L187.444 14.2762C186.778 14.8688 186.185 15.4614 185.593 16.1281C185.556 16.1651 185.519 16.2022 185.519 16.2392C185.37 16.4244 185.222 16.6095 185.074 16.7577C185 16.8317 184.926 16.9058 184.889 17.017C184.778 17.1651 184.63 17.3503 184.519 17.5355C184.444 17.6466 184.37 17.7577 184.296 17.8318C184.185 17.9799 184.074 18.1651 183.963 18.3133C183.889 18.4244 183.815 18.5725 183.741 18.6836C183.63 18.8318 183.556 18.9799 183.444 19.1651C183.333 19.3503 183.222 19.5355 183.148 19.7206C183.074 19.9058 182.963 20.054 182.889 20.2392C182.778 20.4614 182.667 20.6836 182.556 20.9429C182.519 21.054 182.482 21.1651 182.407 21.2762C182.333 21.4984 182.222 21.7206 182.148 21.9058C182.111 22.0169 182.074 22.1281 182.037 22.2392C181.963 22.4614 181.889 22.6836 181.815 22.9429C181.778 23.054 181.741 23.1281 181.741 23.2392C181.667 23.4984 181.593 23.7947 181.519 24.054C181.519 24.1281 181.482 24.1651 181.482 24.2392C181.222 25.3133 181.074 26.4244 181 27.5725C181 27.7947 180.963 28.017 180.963 28.2392C180.963 28.3503 180.963 28.4984 180.963 28.6095C180.963 28.6466 180.963 28.7206 180.963 28.7577V28.7947C180.963 28.9799 180.963 29.1651 180.963 29.3132C180.963 29.3873 180.963 29.4614 180.963 29.5355C181.222 35.8688 184.519 41.4244 189.482 44.7207C190.889 45.9429 192.111 47.3503 193.037 48.9429V48.9799C193.185 49.2392 193.333 49.4984 193.444 49.7577C193.444 49.7947 193.482 49.8318 193.482 49.8318C193.593 50.054 193.704 50.3132 193.815 50.5725C193.815 50.6095 193.852 50.6466 193.889 50.7207C194 50.9429 194.074 51.2021 194.185 51.4244C194.222 51.4614 194.222 51.5355 194.259 51.5725C194.333 51.7947 194.407 52.054 194.482 52.2762C194.482 52.3503 194.519 52.3873 194.556 52.4614C194.63 52.6836 194.704 52.9429 194.741 53.1651C194.741 53.2392 194.778 53.2762 194.778 53.3503C194.852 53.5725 194.889 53.8318 194.926 54.054C194.926 54.1281 194.963 54.1651 194.963 54.2392C195 54.4984 195.037 54.7207 195.074 54.9799C195.074 55.054 195.074 55.091 195.111 55.1651C195.148 55.4244 195.148 55.6836 195.185 55.9799C195.185 56.0169 195.185 56.054 195.185 56.091C195.185 56.3873 195.222 56.7207 195.222 57.017V57.6466C195.222 62.4243 193.037 66.8688 189.407 69.9058C187 71.5355 184.963 73.7207 183.482 76.2392C182 78.7577 181.111 81.6466 180.926 84.7577C180.926 84.9799 180.889 85.2021 180.889 85.4244C180.889 85.5355 180.889 85.6836 180.889 85.7947C180.889 85.8318 180.889 85.9058 180.889 85.9429V85.9799C180.889 86.2021 180.889 86.4244 180.889 86.6836C181.148 93.054 184.482 98.6466 189.482 101.98C193.037 105.054 195.148 109.461 195.148 114.165V114.795C195.148 119.573 192.963 124.017 189.333 127.054C186.926 128.684 184.889 130.869 183.407 133.387C181.926 135.906 181.037 138.832 180.852 141.906C180.852 142.128 180.815 142.35 180.815 142.573C180.815 142.684 180.815 142.832 180.815 142.943C180.815 142.98 180.815 143.054 180.815 143.091V143.128C180.815 143.35 180.815 143.573 180.815 143.832C181.074 150.202 184.407 155.795 189.407 159.128C192.963 162.165 195.074 166.61 195.074 171.313V171.906C195.074 176.684 192.889 181.128 189.259 184.165C186.852 185.795 184.815 187.98 183.333 190.498C181.852 193.017 180.963 195.906 180.778 199.017C180.778 199.239 180.741 199.461 180.741 199.684C180.741 199.795 180.741 199.943 180.741 200.054C180.741 200.091 180.741 200.165 180.741 200.202V200.239C180.741 200.461 180.741 200.721 180.741 200.943C181 207.35 184.333 212.906 189.333 216.239C192.889 219.276 195 223.721 195 228.424V228.906C195 233.684 192.815 238.128 189.185 241.165C186.778 242.795 184.741 244.98 183.259 247.498C181.778 250.017 180.889 252.943 180.704 256.017C180.704 256.239 180.667 256.461 180.667 256.684C180.667 256.795 180.667 256.943 180.667 257.054C180.667 257.091 180.667 257.165 180.667 257.202V257.239C180.667 257.461 180.667 257.721 180.667 257.943C180.926 264.35 184.259 269.906 189.259 273.239C192.815 276.276 194.926 280.721 194.926 285.424V286.017C194.926 290.795 192.741 295.239 189.111 298.276C184.296 301.535 181 306.943 180.63 313.128C180.63 313.35 180.593 313.573 180.593 313.795C180.593 313.906 180.593 314.054 180.593 314.165C180.593 314.202 180.593 314.276 180.593 314.313V314.35C180.593 314.573 180.593 314.832 180.593 315.054C180.852 321.461 184.185 327.054 189.185 330.35C192.741 333.387 194.852 337.832 194.852 342.535V343.128C194.852 343.461 194.852 343.758 194.815 344.054C194.815 344.091 194.815 344.091 194.815 344.128C194.815 344.424 194.778 344.684 194.741 344.98C194.741 345.017 194.741 345.054 194.741 345.091C194.704 345.35 194.667 345.61 194.63 345.906C194.63 345.943 194.63 345.98 194.593 346.017C194.556 346.276 194.482 346.535 194.407 346.795C194.407 346.832 194.407 346.869 194.37 346.906C194.296 347.165 194.222 347.424 194.148 347.684C194.148 347.721 194.148 347.758 194.111 347.758C194.037 348.017 193.926 348.276 193.852 348.535C193.852 348.573 193.852 348.573 193.815 348.61C193.704 348.869 193.593 349.165 193.482 349.424C193.482 349.424 193.482 349.424 193.482 349.461C192.444 351.795 190.852 353.869 188.852 355.498C184.185 358.721 181.037 363.943 180.593 369.943C180.593 370.054 180.593 370.128 180.556 370.239C180.556 370.461 180.519 370.647 180.519 370.869C180.519 370.98 180.519 371.128 180.519 371.239V371.35V371.387C180.519 371.61 180.519 371.869 180.519 372.091C180.556 372.869 180.63 373.647 180.741 374.387C180.741 374.424 180.741 374.461 180.778 374.498C180.815 374.795 180.889 375.128 180.963 375.424C181 375.498 181 375.61 181.037 375.721C181.111 375.98 181.185 376.239 181.222 376.498C181.259 376.61 181.259 376.721 181.296 376.795C181.37 377.054 181.444 377.313 181.556 377.573C181.593 377.647 181.593 377.758 181.63 377.832C181.741 378.165 181.852 378.461 182 378.795C182.037 378.906 182.111 379.017 182.148 379.128C182.222 379.313 182.333 379.535 182.407 379.721C182.482 379.869 182.556 380.017 182.63 380.165C182.704 380.313 182.778 380.461 182.889 380.61C182.963 380.758 183.074 380.943 183.148 381.091C183.222 381.239 183.296 381.35 183.37 381.461C183.482 381.647 183.593 381.795 183.704 381.943C183.778 382.017 183.815 382.128 183.889 382.202C184.185 382.61 184.482 383.017 184.778 383.424L184.815 383.461C184.963 383.647 185.148 383.832 185.296 384.017C185.37 384.091 185.407 384.128 185.482 384.202C185.63 384.387 185.815 384.573 185.963 384.721C186 384.795 186.074 384.832 186.148 384.906C186.333 385.091 186.519 385.276 186.704 385.424C186.741 385.461 186.778 385.498 186.778 385.498C187.519 386.165 188.259 386.758 189.111 387.313C192.667 390.35 194.778 394.758 194.778 399.498V400.017H204.667V399.647C204.667 394.869 206.852 390.424 210.482 387.387C210.63 387.276 210.778 387.165 210.926 387.054C210.963 387.017 211 387.017 211.037 386.98C211.259 386.832 211.482 386.647 211.667 386.498C211.704 386.461 211.741 386.424 211.778 386.424C212.667 385.721 213.482 384.906 214.222 384.054C214.259 383.98 214.333 383.943 214.37 383.869C214.519 383.684 214.667 383.498 214.815 383.313C214.852 383.239 214.926 383.165 214.963 383.091C215.111 382.906 215.259 382.721 215.407 382.498C215.444 382.461 215.482 382.387 215.519 382.35C215.963 381.684 216.407 381.017 216.778 380.276C216.815 380.202 216.852 380.091 216.926 380.017C217.037 379.832 217.111 379.61 217.222 379.424C217.259 379.313 217.333 379.202 217.37 379.091C217.444 378.906 217.556 378.684 217.63 378.498C217.667 378.387 217.704 378.276 217.778 378.128C217.852 377.906 217.926 377.721 218 377.535C218.037 377.461 218.037 377.35 218.074 377.276C218.185 376.906 218.296 376.498 218.407 376.091C218.444 375.943 218.482 375.758 218.519 375.61C218.556 375.424 218.593 375.276 218.63 375.091C218.667 374.906 218.704 374.721 218.741 374.535C218.778 374.35 218.778 374.202 218.815 374.017C218.852 373.795 218.852 373.61 218.889 373.387C218.926 373.239 218.926 373.091 218.926 372.943C218.963 372.61 218.963 372.313 218.963 371.98C218.963 371.943 218.963 371.906 218.963 371.869V371.498C218.963 371.461 218.963 371.387 218.963 371.35V371.313C218.963 371.128 218.963 370.943 218.963 370.795C218.963 370.721 218.963 370.647 218.963 370.573C218.704 364.239 215.37 358.721 210.444 355.387C209 354.165 207.815 352.758 206.889 351.165V351.128C206.741 350.869 206.593 350.61 206.482 350.35C206.482 350.313 206.444 350.276 206.444 350.276C206.333 350.054 206.222 349.795 206.111 349.535C206.111 349.498 206.074 349.461 206.037 349.387C205.926 349.165 205.852 348.906 205.741 348.684C205.741 348.647 205.704 348.573 205.667 348.535C205.593 348.313 205.519 348.054 205.444 347.832C205.444 347.758 205.407 347.721 205.407 347.647C205.333 347.424 205.259 347.165 205.222 346.943C205.222 346.869 205.185 346.832 205.185 346.758C205.111 346.535 205.074 346.276 205.037 346.054C205.037 345.98 205 345.943 205 345.869C204.963 345.61 204.926 345.387 204.889 345.128C204.889 345.054 204.889 345.017 204.852 344.943C204.815 344.684 204.778 344.424 204.778 344.128V344.017C204.963 343.758 204.926 343.424 204.926 343.128Z" fill="#6E9BA2"/>
<path d="M259.222 342.943C259.222 342.906 259.222 342.832 259.222 342.795V342.758C259.222 342.535 259.222 342.276 259.222 342.054C258.963 335.647 255.629 330.054 250.629 326.758C247.074 323.721 244.963 319.276 244.963 314.573V313.943C244.963 309.165 247.148 304.721 250.778 301.684C255.778 298.276 259.111 292.61 259.259 286.165V285.795C259.259 285.758 259.259 285.684 259.259 285.647V285.61C259.259 285.387 259.259 285.128 259.259 284.906C259 278.498 255.666 272.906 250.666 269.61C247.111 266.573 245 262.128 245 257.424V256.795C245 252.017 247.185 247.573 250.815 244.535C255.815 241.128 259.148 235.461 259.296 229.017V228.647C259.296 228.61 259.296 228.535 259.296 228.498V228.461C259.296 228.239 259.296 227.98 259.296 227.758C259.037 221.35 255.704 215.758 250.704 212.461C247.148 209.424 245.037 204.98 245.037 200.276V199.647C245.037 194.869 247.222 190.424 250.852 187.387C255.852 183.98 259.185 178.313 259.333 171.869V171.498C259.333 171.461 259.333 171.387 259.333 171.35V171.313C259.333 171.091 259.333 170.832 259.333 170.61C259.074 164.202 255.741 158.647 250.741 155.313C247.185 152.276 245.074 147.832 245.074 143.128V142.498C245.074 137.721 247.259 133.276 250.889 130.239C255.889 126.869 259.222 121.165 259.37 114.721V114.35C259.37 114.313 259.37 114.239 259.37 114.202V114.165C259.37 113.943 259.37 113.721 259.37 113.461C259.111 107.091 255.778 101.498 250.778 98.1651C247.222 95.1281 245.111 90.6836 245.111 85.9799V85.3503C245.111 80.5725 247.296 76.1281 250.926 73.091C255.926 69.7207 259.259 64.017 259.407 57.5725V57.2021C259.407 57.1651 259.407 57.091 259.407 57.054V57.017C259.407 56.7947 259.407 56.5725 259.407 56.3132C259.148 49.9429 255.815 44.3503 250.815 41.017C247.259 37.9799 245.148 33.5355 245.148 28.8318V28.2021C245.148 23.1281 247.629 18.3873 251.704 15.3503C256.407 11.8318 259.444 6.23915 259.444 -0.0941805H220.778C220.778 6.20212 223.815 11.8318 228.518 15.3133C232.592 18.3873 235.111 23.1281 235.111 28.2021V28.8318C235.111 33.6095 232.926 38.054 229.296 41.091C224.481 44.3503 221.185 49.7577 220.852 55.9429C220.852 56.1651 220.815 56.3873 220.815 56.6095C220.815 56.7207 220.815 56.8688 220.815 56.9799V57.1651C220.815 57.3873 220.815 57.6466 220.815 57.8688C221.074 64.2762 224.407 69.8318 229.407 73.1651C232.963 76.2021 235.074 80.6466 235.074 85.3503V85.9799C235.074 90.7577 232.889 95.2021 229.259 98.2392C226.852 99.8688 224.815 102.054 223.333 104.573C221.852 107.091 220.963 109.98 220.778 113.091C220.778 113.313 220.741 113.535 220.741 113.758C220.741 113.869 220.741 114.017 220.741 114.128V114.313C220.741 114.535 220.741 114.795 220.741 115.017C221 121.424 224.333 126.98 229.333 130.313C232.889 133.35 235 137.795 235 142.498V143.128C235 147.906 232.815 152.35 229.185 155.387C226.778 157.017 224.741 159.202 223.259 161.721C221.778 164.239 220.889 167.165 220.704 170.239C220.704 170.461 220.666 170.684 220.666 170.906C220.666 171.017 220.666 171.165 220.666 171.276V171.461C220.666 171.684 220.666 171.943 220.666 172.165C220.926 178.573 224.259 184.128 229.259 187.461C232.815 190.498 234.926 194.943 234.926 199.647V200.276C234.926 205.054 232.741 209.498 229.111 212.535C226.704 214.165 224.666 216.35 223.185 218.869C221.704 221.387 220.815 224.276 220.629 227.387C220.629 227.61 220.592 227.832 220.592 228.054C220.592 228.165 220.592 228.313 220.592 228.424V228.61C220.592 228.832 220.592 229.091 220.592 229.313C220.852 235.721 224.185 241.313 229.185 244.61C232.741 247.647 234.852 252.054 234.852 256.795V257.424C234.852 262.202 232.667 266.647 229.037 269.684C226.629 271.313 224.592 273.498 223.111 276.017C221.629 278.535 220.741 281.461 220.555 284.535C220.555 284.758 220.518 284.98 220.518 285.202C220.518 285.313 220.518 285.461 220.518 285.573V285.758C220.518 285.98 220.518 286.202 220.518 286.461C220.778 292.832 224.111 298.461 229.111 301.758C232.666 304.795 234.778 309.239 234.778 313.943V314.573C234.778 319.35 232.592 323.795 228.963 326.832C226.555 328.461 224.518 330.647 223.037 333.165C221.555 335.684 220.666 338.573 220.481 341.684C220.481 341.906 220.444 342.128 220.444 342.35C220.444 342.461 220.444 342.61 220.444 342.721V342.906C220.444 343.128 220.444 343.35 220.444 343.61C220.704 349.98 224.037 355.573 229.037 358.906C232.592 361.943 234.704 366.387 234.704 371.091V371.721C234.704 376.795 232.222 381.535 228.148 384.573C223.444 388.091 220.407 393.684 220.407 400.017H258.889C258.889 393.721 255.852 388.091 251.148 384.61C247.074 381.535 244.592 376.795 244.592 371.684V371.054C244.592 366.276 246.778 361.832 250.407 358.795C255.407 355.387 258.741 349.721 258.889 343.276V342.943H259.222Z" fill="#6E9BA2"/>
<path d="M284.926 343.128V342.535C284.926 337.758 287.111 333.313 290.741 330.276C295.741 326.906 299.111 321.239 299.222 314.795V314.424C299.222 314.387 299.222 314.313 299.222 314.276V314.239C299.222 314.017 299.222 313.795 299.222 313.535C298.963 307.165 295.63 301.535 290.63 298.239C287.074 295.202 284.963 290.758 284.963 286.054V285.424C284.963 280.647 287.148 276.202 290.778 273.165C295.778 269.795 299.148 264.128 299.259 257.647V257.276C299.259 257.239 299.259 257.165 299.259 257.128V257.091C299.259 256.869 299.259 256.647 299.259 256.387C299 250.017 295.667 244.424 290.667 241.091C287.111 238.054 285 233.61 285 228.906V228.313C285 223.535 287.185 219.091 290.815 216.054C295.815 212.684 299.185 207.017 299.296 200.535V200.165C299.296 200.128 299.296 200.054 299.296 200.017V199.98C299.296 199.758 299.296 199.498 299.296 199.276C299.037 192.869 295.704 187.313 290.704 183.98C287.148 180.943 285.037 176.498 285.037 171.795V171.202C285.037 166.424 287.222 161.98 290.852 158.943C295.852 155.573 299.185 149.869 299.333 143.424V143.054C299.333 143.017 299.333 142.943 299.333 142.906V142.832C299.333 142.61 299.333 142.35 299.333 142.128C299.074 135.721 295.741 130.165 290.741 126.832C287.185 123.795 285.074 119.35 285.074 114.647V114.054C285.074 109.276 287.259 104.832 290.889 101.795C295.889 98.4244 299.259 92.7577 299.37 86.2762V85.9059C299.37 85.8688 299.37 85.7947 299.37 85.7577V85.6836C299.37 85.4614 299.37 85.2021 299.37 84.9799C299.111 78.5725 295.778 73.0169 290.778 69.6836C287.222 66.6466 285.111 62.2392 285.111 57.4984V56.9058C285.111 56.6095 285.111 56.2762 285.148 55.9799C285.148 55.9429 285.148 55.9429 285.148 55.9058C285.148 55.6096 285.185 55.3503 285.222 55.054C285.222 55.0169 285.222 54.9799 285.222 54.9429C285.259 54.6836 285.296 54.4243 285.333 54.1281C285.333 54.091 285.333 54.054 285.37 54.0169C285.408 53.7577 285.482 53.4984 285.556 53.2392C285.556 53.2021 285.593 53.1651 285.593 53.1281C285.667 52.8688 285.741 52.6095 285.815 52.3503C285.815 52.3132 285.815 52.3132 285.852 52.2762C285.926 52.0169 286.037 51.7577 286.111 51.4614C286.111 51.4244 286.111 51.4244 286.148 51.3873C286.259 51.1281 286.37 50.8318 286.482 50.5725C286.482 50.5725 286.482 50.5725 286.482 50.5355C287.519 48.2021 289.111 46.1281 291.111 44.4984C295.519 41.4243 298.63 36.5725 299.296 30.9799V30.9429C299.333 30.6095 299.37 30.2762 299.37 29.9058C299.37 29.7947 299.37 29.6836 299.37 29.5725C299.37 29.4244 299.408 29.2762 299.408 29.091V28.7207C299.408 28.6836 299.408 28.6466 299.408 28.6095V28.5725C299.408 28.3503 299.408 28.091 299.408 27.8688C299.37 27.091 299.296 26.3133 299.185 25.5355C299.185 25.4984 299.185 25.4614 299.148 25.4243C299.111 25.1281 299.037 24.7947 298.963 24.4984C298.963 24.4243 298.926 24.3133 298.889 24.2392C298.815 23.9799 298.778 23.7206 298.704 23.4614C298.667 23.3503 298.63 23.2762 298.63 23.1651C298.556 22.9058 298.482 22.6466 298.37 22.3873C298.333 22.3133 298.296 22.2021 298.296 22.1281C298.185 21.7947 298.037 21.4984 297.926 21.1651C297.889 21.054 297.815 20.9429 297.778 20.8318C297.704 20.6466 297.593 20.4243 297.482 20.2392C297.408 20.091 297.333 19.9429 297.259 19.7947C297.185 19.6466 297.111 19.4984 297 19.3503C296.926 19.2021 296.815 19.017 296.741 18.8688C296.667 18.7577 296.593 18.6096 296.519 18.4984C296.408 18.3503 296.296 18.1651 296.222 18.0169C296.148 17.9429 296.111 17.8318 296.037 17.7577C295.741 17.3503 295.445 16.9429 295.148 16.5355C295.148 16.5355 295.148 16.4984 295.111 16.4984C294.963 16.3132 294.778 16.1281 294.63 15.9429C294.556 15.8688 294.519 15.8318 294.445 15.7577C294.296 15.5725 294.111 15.3873 293.963 15.2392C293.889 15.1651 293.852 15.1281 293.778 15.054C293.593 14.8688 293.408 14.6836 293.222 14.5354C293.185 14.4984 293.148 14.4984 293.148 14.4614C292.408 13.7947 291.667 13.2021 290.815 12.6466C287.259 9.60953 285.148 5.16508 285.148 0.461375V0.128078H275.259V0.498448C275.259 5.27623 273.074 9.72066 269.445 12.7577C269.296 12.8688 269.148 12.9799 268.963 13.091C268.926 13.1281 268.926 13.1281 268.889 13.1651C268.667 13.3132 268.445 13.4984 268.222 13.6466C268.185 13.6836 268.148 13.7207 268.111 13.7207C267.889 13.9058 267.667 14.054 267.482 14.2392L267.445 14.2762C266.778 14.8688 266.185 15.4614 265.593 16.1281C265.556 16.1651 265.519 16.2022 265.519 16.2392C265.37 16.4244 265.222 16.6095 265.074 16.7577C265 16.8317 264.926 16.9058 264.889 17.017C264.741 17.1651 264.63 17.3503 264.519 17.5355C264.445 17.6466 264.37 17.7577 264.296 17.8318C264.185 17.9799 264.074 18.1651 263.963 18.3133C263.889 18.4244 263.815 18.5725 263.741 18.6836C263.63 18.8318 263.556 18.9799 263.445 19.1651C263.333 19.3503 263.222 19.5355 263.148 19.7206C263.074 19.9058 262.963 20.054 262.889 20.2392C262.778 20.4614 262.667 20.6836 262.556 20.9429C262.519 21.054 262.482 21.1651 262.408 21.2762C262.333 21.4984 262.222 21.7206 262.148 21.9058C262.111 22.0169 262.074 22.1281 262.037 22.2392C261.963 22.4614 261.889 22.6836 261.815 22.9429C261.778 23.054 261.741 23.1281 261.741 23.2392C261.667 23.4984 261.593 23.7947 261.519 24.054C261.519 24.1281 261.482 24.1651 261.482 24.2392C261.222 25.3133 261.074 26.4244 261 27.5725C261 27.7947 260.963 28.017 260.963 28.2392C260.963 28.3503 260.963 28.4984 260.963 28.6095C260.963 28.6466 260.963 28.7206 260.963 28.7577V28.7947C260.963 28.9799 260.963 29.1651 260.963 29.3132C260.963 29.3873 260.963 29.4614 260.963 29.5355C261.222 35.8688 264.556 41.4244 269.482 44.7207C270.889 45.9429 272.111 47.3503 273.037 48.9429V48.9799C273.185 49.2392 273.333 49.4984 273.445 49.7577C273.445 49.7947 273.482 49.8318 273.482 49.8318C273.593 50.054 273.704 50.3132 273.815 50.5725C273.815 50.6095 273.852 50.6466 273.889 50.7207C274 50.9429 274.074 51.2021 274.185 51.4244C274.222 51.4614 274.222 51.5355 274.259 51.5725C274.333 51.7947 274.408 52.054 274.482 52.2762C274.482 52.3503 274.519 52.3873 274.556 52.4614C274.63 52.6836 274.704 52.9429 274.741 53.1651C274.741 53.2392 274.778 53.2762 274.778 53.3503C274.852 53.5725 274.889 53.8318 274.926 54.054C274.926 54.1281 274.963 54.1651 274.963 54.2392C275 54.4984 275.037 54.7207 275.074 54.9799C275.074 55.054 275.074 55.091 275.111 55.1651C275.148 55.4244 275.148 55.6836 275.185 55.9799C275.185 56.0169 275.185 56.054 275.185 56.091C275.185 56.3873 275.222 56.7207 275.222 57.017V57.6466C275.222 62.4243 273.037 66.8688 269.408 69.9058C267 71.5355 264.963 73.7207 263.482 76.2392C262 78.7577 261.111 81.6466 260.926 84.7577C260.926 84.9799 260.889 85.2021 260.889 85.4244C260.889 85.5355 260.889 85.6836 260.889 85.7947C260.889 85.8318 260.889 85.9058 260.889 85.9429V85.9799C260.889 86.2021 260.889 86.4244 260.889 86.6836C261.148 93.054 264.482 98.6466 269.482 101.98C273.037 105.054 275.148 109.461 275.148 114.165V114.795C275.148 119.573 272.963 124.017 269.333 127.054C266.926 128.684 264.889 130.869 263.408 133.387C261.926 135.906 261.037 138.832 260.852 141.906C260.852 142.128 260.815 142.35 260.815 142.573C260.815 142.684 260.815 142.832 260.815 142.943C260.815 142.98 260.815 143.054 260.815 143.091V143.128C260.815 143.35 260.815 143.573 260.815 143.832C261.074 150.202 264.408 155.795 269.408 159.128C272.963 162.165 275.074 166.61 275.074 171.313V171.906C275.074 176.684 272.889 181.128 269.259 184.165C266.852 185.795 264.815 187.98 263.333 190.498C261.852 193.017 260.963 195.906 260.778 199.017C260.778 199.239 260.741 199.461 260.741 199.684C260.741 199.795 260.741 199.943 260.741 200.054C260.741 200.091 260.741 200.165 260.741 200.202V200.239C260.741 200.461 260.741 200.721 260.741 200.943C261 207.35 264.333 212.906 269.333 216.239C272.889 219.276 275 223.721 275 228.424V228.906C275 233.684 272.815 238.128 269.185 241.165C266.778 242.795 264.741 244.98 263.259 247.498C261.778 250.017 260.889 252.943 260.704 256.017C260.704 256.239 260.667 256.461 260.667 256.684C260.667 256.795 260.667 256.943 260.667 257.054C260.667 257.091 260.667 257.165 260.667 257.202V257.239C260.667 257.461 260.667 257.721 260.667 257.943C260.926 264.35 264.259 269.906 269.259 273.239C272.815 276.276 274.926 280.721 274.926 285.424V286.017C274.926 290.795 272.741 295.239 269.111 298.276C264.296 301.535 261 306.943 260.667 313.128C260.667 313.35 260.63 313.573 260.63 313.795C260.63 313.906 260.63 314.054 260.63 314.165C260.63 314.202 260.63 314.276 260.63 314.313V314.35C260.63 314.573 260.63 314.832 260.63 315.054C260.889 321.461 264.222 327.054 269.222 330.35C272.778 333.387 274.889 337.832 274.889 342.535V343.128C274.889 343.461 274.889 343.758 274.852 344.054C274.852 344.091 274.852 344.091 274.852 344.128C274.852 344.424 274.815 344.684 274.778 344.98C274.778 345.017 274.778 345.054 274.778 345.091C274.741 345.35 274.704 345.61 274.667 345.906C274.667 345.943 274.667 345.98 274.63 346.017C274.593 346.276 274.519 346.535 274.445 346.795C274.445 346.832 274.445 346.869 274.408 346.906C274.333 347.165 274.259 347.424 274.185 347.684C274.185 347.721 274.185 347.758 274.148 347.758C274.074 348.017 273.963 348.276 273.889 348.535C273.889 348.573 273.889 348.573 273.852 348.61C273.741 348.869 273.63 349.165 273.519 349.424C273.519 349.424 273.519 349.424 273.519 349.461C272.482 351.795 270.889 353.869 268.889 355.498C264.222 358.721 261.037 363.943 260.63 369.943C260.63 370.054 260.593 370.128 260.593 370.239C260.593 370.461 260.556 370.647 260.556 370.869C260.556 370.98 260.556 371.128 260.556 371.239V371.35V371.387C260.556 371.61 260.556 371.869 260.556 372.091C260.593 372.869 260.667 373.647 260.778 374.387C260.778 374.424 260.815 374.461 260.815 374.498C260.852 374.795 260.926 375.128 261 375.424C261.037 375.498 261.037 375.61 261.074 375.721C261.148 375.98 261.185 376.239 261.259 376.498C261.296 376.61 261.333 376.721 261.333 376.795C261.408 377.054 261.482 377.313 261.593 377.573C261.63 377.647 261.667 377.758 261.667 377.832C261.778 378.165 261.889 378.461 262.037 378.795C262.074 378.906 262.148 379.017 262.185 379.128C262.259 379.313 262.37 379.535 262.445 379.721C262.519 379.869 262.593 380.017 262.667 380.165C262.741 380.313 262.815 380.461 262.926 380.61C263 380.758 263.111 380.943 263.185 381.091C263.259 381.239 263.333 381.35 263.408 381.461C263.519 381.647 263.63 381.795 263.704 381.943C263.778 382.017 263.815 382.128 263.889 382.202C264.185 382.61 264.482 383.017 264.778 383.424L264.815 383.461C264.963 383.647 265.148 383.832 265.296 384.017C265.333 384.091 265.408 384.128 265.482 384.202C265.63 384.387 265.815 384.573 265.963 384.721C266.037 384.795 266.074 384.832 266.148 384.906C266.333 385.091 266.519 385.276 266.704 385.424C266.741 385.461 266.778 385.498 266.778 385.498C267.519 386.165 268.259 386.758 269.111 387.313C272.667 390.35 274.778 394.758 274.778 399.498V400.017H284.667V399.647C284.667 394.869 286.852 390.424 290.482 387.387C290.63 387.276 290.778 387.165 290.926 387.054C290.963 387.017 291 387.017 291.037 386.98C291.259 386.832 291.482 386.647 291.667 386.498C291.704 386.461 291.741 386.424 291.778 386.424C292.667 385.721 293.482 384.906 294.222 384.054C294.259 383.98 294.333 383.943 294.37 383.869C294.519 383.684 294.667 383.498 294.815 383.313C294.852 383.239 294.926 383.165 294.963 383.091C295.111 382.906 295.259 382.721 295.408 382.498C295.445 382.461 295.482 382.387 295.519 382.35C295.963 381.684 296.408 381.017 296.778 380.276C296.815 380.202 296.852 380.091 296.926 380.017C297.037 379.832 297.111 379.61 297.222 379.424C297.259 379.313 297.333 379.202 297.37 379.091C297.445 378.906 297.556 378.684 297.63 378.498C297.667 378.387 297.704 378.276 297.778 378.128C297.852 377.906 297.926 377.721 298 377.535C298.037 377.461 298.037 377.35 298.074 377.276C298.185 376.906 298.296 376.498 298.408 376.091C298.445 375.943 298.482 375.758 298.519 375.61C298.556 375.424 298.593 375.276 298.63 375.091C298.667 374.906 298.704 374.721 298.741 374.535C298.778 374.35 298.778 374.202 298.815 374.017C298.852 373.795 298.852 373.61 298.889 373.387C298.926 373.239 298.926 373.091 298.926 372.943C298.963 372.61 298.963 372.313 298.963 371.98C298.963 371.943 298.963 371.906 298.963 371.869V371.498C298.963 371.461 298.963 371.387 298.963 371.35V371.313C298.963 371.128 298.963 370.943 298.963 370.795C298.963 370.721 298.963 370.647 298.963 370.573C298.704 364.239 295.37 358.721 290.445 355.387C289 354.165 287.815 352.758 286.889 351.165V351.128C286.741 350.869 286.593 350.61 286.482 350.35C286.482 350.313 286.445 350.276 286.445 350.276C286.333 350.054 286.222 349.795 286.111 349.535C286.111 349.498 286.074 349.461 286.037 349.387C285.926 349.165 285.852 348.906 285.741 348.684C285.741 348.647 285.704 348.573 285.667 348.535C285.593 348.313 285.519 348.054 285.445 347.832C285.445 347.758 285.408 347.721 285.408 347.647C285.333 347.424 285.259 347.165 285.222 346.943C285.222 346.869 285.185 346.832 285.185 346.758C285.111 346.535 285.074 346.276 285.037 346.054C285.037 345.98 285 345.943 285 345.869C284.963 345.61 284.926 345.387 284.889 345.128C284.889 345.054 284.889 345.017 284.852 344.943C284.815 344.684 284.778 344.424 284.778 344.128V344.017C284.963 343.758 284.926 343.424 284.926 343.128Z" fill="#6E9BA2"/>
<path d="M339.222 342.943C339.222 342.906 339.222 342.832 339.222 342.795V342.758C339.222 342.535 339.222 342.276 339.222 342.054C338.963 335.647 335.629 330.054 330.629 326.758C327.074 323.721 324.963 319.276 324.963 314.573V313.943C324.963 309.165 327.148 304.721 330.778 301.684C335.778 298.276 339.111 292.61 339.259 286.165V285.795C339.259 285.758 339.259 285.684 339.259 285.647V285.61C339.259 285.387 339.259 285.128 339.259 284.906C339 278.498 335.666 272.906 330.666 269.61C327.111 266.573 325 262.128 325 257.424V256.795C325 252.017 327.185 247.573 330.815 244.535C335.815 241.128 339.148 235.461 339.296 229.017V228.647C339.296 228.61 339.296 228.535 339.296 228.498V228.461C339.296 228.239 339.296 227.98 339.296 227.758C339.037 221.35 335.704 215.758 330.704 212.461C327.148 209.424 325.037 204.98 325.037 200.276V199.647C325.037 194.869 327.222 190.424 330.852 187.387C335.852 183.98 339.185 178.313 339.333 171.869V171.498C339.333 171.461 339.333 171.387 339.333 171.35V171.313C339.333 171.091 339.333 170.832 339.333 170.61C339.074 164.202 335.741 158.647 330.741 155.313C327.185 152.276 325.074 147.832 325.074 143.128V142.498C325.074 137.721 327.259 133.276 330.889 130.239C335.889 126.869 339.222 121.165 339.37 114.721V114.35C339.37 114.313 339.37 114.239 339.37 114.202V114.165C339.37 113.943 339.37 113.721 339.37 113.461C339.111 107.091 335.778 101.498 330.778 98.1651C327.222 95.1281 325.111 90.6836 325.111 85.9799V85.3503C325.111 80.5725 327.296 76.1281 330.926 73.091C335.926 69.7207 339.259 64.017 339.407 57.5725V57.2021C339.407 57.1651 339.407 57.091 339.407 57.054V57.017C339.407 56.7947 339.407 56.5725 339.407 56.3132C339.148 49.9429 335.815 44.3503 330.815 41.017C327.259 37.9799 325.148 33.5355 325.148 28.8318V28.2021C325.148 23.1281 327.629 18.3873 331.704 15.3503C336.407 11.8318 339.444 6.23915 339.444 -0.0941805H300.778C300.778 6.20212 303.815 11.8318 308.518 15.3133C312.592 18.3873 315.111 23.1281 315.111 28.2021V28.8318C315.111 33.6095 312.926 38.054 309.296 41.091C304.481 44.3503 301.185 49.7577 300.852 55.9429C300.852 56.1651 300.815 56.3873 300.815 56.6095C300.815 56.7207 300.815 56.8688 300.815 56.9799V57.1651C300.815 57.3873 300.815 57.6466 300.815 57.8688C301.074 64.2762 304.407 69.8318 309.407 73.1651C312.963 76.2021 315.074 80.6466 315.074 85.3503V85.9799C315.074 90.7577 312.889 95.2021 309.259 98.2392C306.852 99.8688 304.815 102.054 303.333 104.573C301.852 107.091 300.963 109.98 300.778 113.091C300.778 113.313 300.741 113.535 300.741 113.758C300.741 113.869 300.741 114.017 300.741 114.128V114.313C300.741 114.535 300.741 114.795 300.741 115.017C301 121.424 304.333 126.98 309.333 130.313C312.889 133.35 315 137.795 315 142.498V143.128C315 147.906 312.815 152.35 309.185 155.387C306.778 157.017 304.741 159.202 303.259 161.721C301.778 164.239 300.889 167.165 300.704 170.239C300.704 170.461 300.666 170.684 300.666 170.906C300.666 171.017 300.666 171.165 300.666 171.276V171.461C300.666 171.684 300.666 171.943 300.666 172.165C300.926 178.573 304.259 184.128 309.259 187.461C312.815 190.498 314.926 194.943 314.926 199.647V200.276C314.926 205.054 312.741 209.498 309.111 212.535C306.704 214.165 304.666 216.35 303.185 218.869C301.704 221.387 300.815 224.276 300.629 227.387C300.629 227.61 300.592 227.832 300.592 228.054C300.592 228.165 300.592 228.313 300.592 228.424V228.61C300.592 228.832 300.592 229.091 300.592 229.313C300.852 235.721 304.185 241.313 309.185 244.61C312.741 247.647 314.852 252.054 314.852 256.795V257.424C314.852 262.202 312.667 266.647 309.037 269.684C306.629 271.313 304.592 273.498 303.111 276.017C301.629 278.535 300.741 281.461 300.555 284.535C300.555 284.758 300.518 284.98 300.518 285.202C300.518 285.313 300.518 285.461 300.518 285.573V285.758C300.518 285.98 300.518 286.202 300.518 286.461C300.778 292.832 304.111 298.461 309.111 301.758C312.666 304.795 314.778 309.239 314.778 313.943V314.573C314.778 319.35 312.592 323.795 308.963 326.832C306.555 328.461 304.518 330.647 303.037 333.165C301.555 335.684 300.666 338.573 300.481 341.684C300.481 341.906 300.444 342.128 300.444 342.35C300.444 342.461 300.444 342.61 300.444 342.721V342.906C300.444 343.128 300.444 343.35 300.444 343.61C300.704 349.98 304.037 355.573 309.037 358.906C312.592 361.943 314.704 366.387 314.704 371.091V371.721C314.704 376.795 312.222 381.535 308.148 384.573C303.444 388.091 300.407 393.684 300.407 400.017H338.889C338.889 393.721 335.852 388.091 331.148 384.61C327.074 381.535 324.592 376.795 324.592 371.684V371.054C324.592 366.276 326.778 361.832 330.407 358.795C335.407 355.387 338.741 349.721 338.889 343.276V342.943H339.222Z" fill="#6E9BA2"/>
<path d="M364.926 343.128V342.535C364.926 337.758 367.111 333.313 370.741 330.276C375.741 326.906 379.111 321.239 379.222 314.795V314.424C379.222 314.387 379.222 314.313 379.222 314.276V314.239C379.222 314.017 379.222 313.795 379.222 313.535C378.963 307.165 375.63 301.535 370.63 298.239C367.074 295.202 364.963 290.758 364.963 286.054V285.424C364.963 280.647 367.148 276.202 370.778 273.165C375.778 269.795 379.148 264.128 379.259 257.647V257.276C379.259 257.239 379.259 257.165 379.259 257.128V257.091C379.259 256.869 379.259 256.647 379.259 256.387C379 250.017 375.667 244.424 370.667 241.091C367.111 238.054 365 233.61 365 228.906V228.313C365 223.535 367.185 219.091 370.815 216.054C375.815 212.684 379.185 207.017 379.296 200.535V200.165C379.296 200.128 379.296 200.054 379.296 200.017V199.98C379.296 199.758 379.296 199.498 379.296 199.276C379.037 192.869 375.704 187.313 370.704 183.98C367.148 180.943 365.037 176.498 365.037 171.795V171.202C365.037 166.424 367.222 161.98 370.852 158.943C375.852 155.573 379.185 149.869 379.333 143.424V143.054C379.333 143.017 379.333 142.943 379.333 142.906V142.832C379.333 142.61 379.333 142.35 379.333 142.128C379.074 135.721 375.741 130.165 370.741 126.832C367.185 123.795 365.074 119.35 365.074 114.647V114.054C365.074 109.276 367.259 104.832 370.889 101.795C375.889 98.4244 379.259 92.7577 379.37 86.2762V85.9059C379.37 85.8688 379.37 85.7947 379.37 85.7577V85.6836C379.37 85.4614 379.37 85.2021 379.37 84.9799C379.111 78.5725 375.778 73.0169 370.778 69.6836C367.222 66.6466 365.111 62.2392 365.111 57.4984V56.9058C365.111 56.6095 365.111 56.2762 365.148 55.9799C365.148 55.9429 365.148 55.9429 365.148 55.9058C365.148 55.6096 365.185 55.3503 365.222 55.054C365.222 55.0169 365.222 54.9799 365.222 54.9429C365.259 54.6836 365.296 54.4243 365.333 54.1281C365.333 54.091 365.333 54.054 365.37 54.0169C365.408 53.7577 365.482 53.4984 365.556 53.2392C365.556 53.2021 365.593 53.1651 365.593 53.1281C365.667 52.8688 365.741 52.6095 365.815 52.3503C365.815 52.3132 365.815 52.3132 365.852 52.2762C365.926 52.0169 366.037 51.7577 366.111 51.4614C366.111 51.4244 366.111 51.4244 366.148 51.3873C366.259 51.1281 366.37 50.8318 366.482 50.5725C366.482 50.5725 366.482 50.5725 366.482 50.5355C367.519 48.2021 369.111 46.1281 371.111 44.4984C375.519 41.4243 378.63 36.5725 379.296 30.9799V30.9429C379.333 30.6095 379.37 30.2762 379.37 29.9058C379.37 29.7947 379.37 29.6836 379.37 29.5725C379.37 29.4244 379.408 29.2762 379.408 29.091V28.7207C379.408 28.6836 379.408 28.6466 379.408 28.6095V28.5725C379.408 28.3503 379.408 28.091 379.408 27.8688C379.37 27.091 379.296 26.3133 379.185 25.5355C379.185 25.4984 379.185 25.4614 379.148 25.4243C379.111 25.1281 379.037 24.7947 378.963 24.4984C378.963 24.4243 378.926 24.3133 378.889 24.2392C378.815 23.9799 378.778 23.7206 378.704 23.4614C378.667 23.3503 378.63 23.2762 378.63 23.1651C378.556 22.9058 378.482 22.6466 378.37 22.3873C378.333 22.3133 378.296 22.2021 378.296 22.1281C378.185 21.7947 378.037 21.4984 377.926 21.1651C377.889 21.054 377.815 20.9429 377.778 20.8318C377.704 20.6466 377.593 20.4243 377.482 20.2392C377.407 20.091 377.333 19.9429 377.259 19.7947C377.185 19.6466 377.111 19.4984 377 19.3503C376.926 19.2021 376.815 19.017 376.741 18.8688C376.667 18.7577 376.593 18.6096 376.519 18.4984C376.407 18.3503 376.296 18.1651 376.222 18.0169C376.148 17.9429 376.111 17.8318 376.037 17.7577C375.741 17.3503 375.445 16.9429 375.148 16.5355C375.148 16.5355 375.148 16.4984 375.111 16.4984C374.963 16.3132 374.778 16.1281 374.63 15.9429C374.556 15.8688 374.519 15.8318 374.445 15.7577C374.296 15.5725 374.111 15.3873 373.963 15.2392C373.889 15.1651 373.852 15.1281 373.778 15.054C373.593 14.8688 373.408 14.6836 373.222 14.5354C373.185 14.4984 373.148 14.4984 373.148 14.4614C372.407 13.7947 371.667 13.2021 370.815 12.6466C367.259 9.60953 365.148 5.16508 365.148 0.461375V0.128078H355.259V0.498448C355.259 5.27623 353.074 9.72066 349.445 12.7577C349.296 12.8688 349.148 12.9799 348.963 13.091C348.926 13.1281 348.926 13.1281 348.889 13.1651C348.667 13.3132 348.445 13.4984 348.222 13.6466C348.185 13.6836 348.148 13.7207 348.111 13.7207C347.889 13.9058 347.667 14.054 347.482 14.2392L347.445 14.2762C346.778 14.8688 346.185 15.4614 345.593 16.1281C345.556 16.1651 345.519 16.2022 345.519 16.2392C345.37 16.4244 345.222 16.6095 345.074 16.7577C345 16.8317 344.926 16.9058 344.889 17.017C344.741 17.1651 344.63 17.3503 344.519 17.5355C344.445 17.6466 344.37 17.7577 344.296 17.8318C344.185 17.9799 344.074 18.1651 343.963 18.3133C343.889 18.4244 343.815 18.5725 343.741 18.6836C343.63 18.8318 343.556 18.9799 343.445 19.1651C343.333 19.3503 343.222 19.5355 343.148 19.7206C343.074 19.9058 342.963 20.054 342.889 20.2392C342.778 20.4614 342.667 20.6836 342.556 20.9429C342.519 21.054 342.482 21.1651 342.408 21.2762C342.333 21.4984 342.222 21.7206 342.148 21.9058C342.111 22.0169 342.074 22.1281 342.037 22.2392C341.963 22.4614 341.889 22.6836 341.815 22.9429C341.778 23.054 341.741 23.1281 341.741 23.2392C341.667 23.4984 341.593 23.7947 341.519 24.054C341.519 24.1281 341.482 24.1651 341.482 24.2392C341.222 25.3133 341.074 26.4244 341 27.5725C341 27.7947 340.963 28.017 340.963 28.2392C340.963 28.3503 340.963 28.4984 340.963 28.6095C340.963 28.6466 340.963 28.7206 340.963 28.7577V28.7947C340.963 28.9799 340.963 29.1651 340.963 29.3132C340.963 29.3873 340.963 29.4614 340.963 29.5355C341.222 35.8688 344.556 41.4244 349.482 44.7207C350.889 45.9429 352.111 47.3503 353.037 48.9429V48.9799C353.185 49.2392 353.333 49.4984 353.445 49.7577C353.445 49.7947 353.482 49.8318 353.482 49.8318C353.593 50.054 353.704 50.3132 353.815 50.5725C353.815 50.6095 353.852 50.6466 353.889 50.7207C354 50.9429 354.074 51.2021 354.185 51.4244C354.222 51.4614 354.222 51.5355 354.259 51.5725C354.333 51.7947 354.407 52.054 354.482 52.2762C354.482 52.3503 354.519 52.3873 354.556 52.4614C354.63 52.6836 354.704 52.9429 354.741 53.1651C354.741 53.2392 354.778 53.2762 354.778 53.3503C354.852 53.5725 354.889 53.8318 354.926 54.054C354.926 54.1281 354.963 54.1651 354.963 54.2392C355 54.4984 355.037 54.7207 355.074 54.9799C355.074 55.054 355.074 55.091 355.111 55.1651C355.148 55.4244 355.148 55.6836 355.185 55.9799C355.185 56.0169 355.185 56.054 355.185 56.091C355.185 56.3873 355.222 56.7207 355.222 57.017V57.6466C355.222 62.4243 353.037 66.8688 349.408 69.9058C347 71.5355 344.963 73.7207 343.482 76.2392C342 78.7577 341.111 81.6466 340.926 84.7577C340.926 84.9799 340.889 85.2021 340.889 85.4244C340.889 85.5355 340.889 85.6836 340.889 85.7947C340.889 85.8318 340.889 85.9058 340.889 85.9429V85.9799C340.889 86.2021 340.889 86.4244 340.889 86.6836C341.148 93.054 344.482 98.6466 349.482 101.98C353.037 105.054 355.148 109.461 355.148 114.165V114.795C355.148 119.573 352.963 124.017 349.333 127.054C346.926 128.684 344.889 130.869 343.408 133.387C341.926 135.906 341.037 138.832 340.852 141.906C340.852 142.128 340.815 142.35 340.815 142.573C340.815 142.684 340.815 142.832 340.815 142.943C340.815 142.98 340.815 143.054 340.815 143.091V143.128C340.815 143.35 340.815 143.573 340.815 143.832C341.074 150.202 344.408 155.795 349.408 159.128C352.963 162.165 355.074 166.61 355.074 171.313V171.906C355.074 176.684 352.889 181.128 349.259 184.165C346.852 185.795 344.815 187.98 343.333 190.498C341.852 193.017 340.963 195.906 340.778 199.017C340.778 199.239 340.741 199.461 340.741 199.684C340.741 199.795 340.741 199.943 340.741 200.054C340.741 200.091 340.741 200.165 340.741 200.202V200.239C340.741 200.461 340.741 200.721 340.741 200.943C341 207.35 344.333 212.906 349.333 216.239C352.889 219.276 355 223.721 355 228.424V228.906C355 233.684 352.815 238.128 349.185 241.165C346.778 242.795 344.741 244.98 343.259 247.498C341.778 250.017 340.889 252.943 340.704 256.017C340.704 256.239 340.667 256.461 340.667 256.684C340.667 256.795 340.667 256.943 340.667 257.054C340.667 257.091 340.667 257.165 340.667 257.202V257.239C340.667 257.461 340.667 257.721 340.667 257.943C340.926 264.35 344.259 269.906 349.259 273.239C352.815 276.276 354.926 280.721 354.926 285.424V286.017C354.926 290.795 352.741 295.239 349.111 298.276C344.296 301.535 341 306.943 340.667 313.128C340.667 313.35 340.63 313.573 340.63 313.795C340.63 313.906 340.63 314.054 340.63 314.165C340.63 314.202 340.63 314.276 340.63 314.313V314.35C340.63 314.573 340.63 314.832 340.63 315.054C340.889 321.461 344.222 327.054 349.222 330.35C352.778 333.387 354.889 337.832 354.889 342.535V343.128C354.889 343.461 354.889 343.758 354.852 344.054C354.852 344.091 354.852 344.091 354.852 344.128C354.852 344.424 354.815 344.684 354.778 344.98C354.778 345.017 354.778 345.054 354.778 345.091C354.741 345.35 354.704 345.61 354.667 345.906C354.667 345.943 354.667 345.98 354.63 346.017C354.593 346.276 354.519 346.535 354.445 346.795C354.445 346.832 354.445 346.869 354.408 346.906C354.333 347.165 354.259 347.424 354.185 347.684C354.185 347.721 354.185 347.758 354.148 347.758C354.074 348.017 353.963 348.276 353.889 348.535C353.889 348.573 353.889 348.573 353.852 348.61C353.741 348.869 353.63 349.165 353.519 349.424C353.519 349.424 353.519 349.424 353.519 349.461C352.482 351.795 350.889 353.869 348.889 355.498C344.222 358.721 341.037 363.943 340.63 369.943C340.63 370.054 340.593 370.128 340.593 370.239C340.593 370.461 340.556 370.647 340.556 370.869C340.556 370.98 340.556 371.128 340.556 371.239V371.35V371.387C340.556 371.61 340.556 371.869 340.556 372.091C340.593 372.869 340.667 373.647 340.778 374.387C340.778 374.424 340.815 374.461 340.815 374.498C340.852 374.795 340.926 375.128 341 375.424C341.037 375.498 341.037 375.61 341.074 375.721C341.148 375.98 341.185 376.239 341.259 376.498C341.296 376.61 341.333 376.721 341.333 376.795C341.408 377.054 341.482 377.313 341.593 377.573C341.63 377.647 341.667 377.758 341.667 377.832C341.778 378.165 341.889 378.461 342.037 378.795C342.074 378.906 342.148 379.017 342.185 379.128C342.259 379.313 342.37 379.535 342.445 379.721C342.519 379.869 342.593 380.017 342.667 380.165C342.741 380.313 342.815 380.461 342.926 380.61C343 380.758 343.111 380.943 343.185 381.091C343.259 381.239 343.333 381.35 343.408 381.461C343.519 381.647 343.63 381.795 343.704 381.943C343.778 382.017 343.815 382.128 343.889 382.202C344.185 382.61 344.482 383.017 344.778 383.424L344.815 383.461C344.963 383.647 345.148 383.832 345.296 384.017C345.333 384.091 345.408 384.128 345.482 384.202C345.63 384.387 345.815 384.573 345.963 384.721C346.037 384.795 346.074 384.832 346.148 384.906C346.333 385.091 346.519 385.276 346.704 385.424C346.741 385.461 346.778 385.498 346.778 385.498C347.519 386.165 348.259 386.758 349.111 387.313C352.667 390.35 354.778 394.758 354.778 399.498V400.017H364.667V399.647C364.667 394.869 366.852 390.424 370.482 387.387C370.63 387.276 370.778 387.165 370.926 387.054C370.963 387.017 371 387.017 371.037 386.98C371.259 386.832 371.482 386.647 371.667 386.498C371.704 386.461 371.741 386.424 371.778 386.424C372.667 385.721 373.482 384.906 374.222 384.054C374.259 383.98 374.333 383.943 374.37 383.869C374.519 383.684 374.667 383.498 374.815 383.313C374.852 383.239 374.926 383.165 374.963 383.091C375.111 382.906 375.259 382.721 375.407 382.498C375.445 382.461 375.482 382.387 375.519 382.35C375.963 381.684 376.407 381.017 376.778 380.276C376.815 380.202 376.852 380.091 376.926 380.017C377.037 379.832 377.111 379.61 377.222 379.424C377.259 379.313 377.333 379.202 377.37 379.091C377.445 378.906 377.556 378.684 377.63 378.498C377.667 378.387 377.704 378.276 377.778 378.128C377.852 377.906 377.926 377.721 378 377.535C378.037 377.461 378.037 377.35 378.074 377.276C378.185 376.906 378.296 376.498 378.407 376.091C378.445 375.943 378.482 375.758 378.519 375.61C378.556 375.424 378.593 375.276 378.63 375.091C378.667 374.906 378.704 374.721 378.741 374.535C378.778 374.35 378.778 374.202 378.815 374.017C378.852 373.795 378.852 373.61 378.889 373.387C378.926 373.239 378.926 373.091 378.926 372.943C378.963 372.61 378.963 372.313 378.963 371.98C378.963 371.943 378.963 371.906 378.963 371.869V371.498C378.963 371.461 378.963 371.387 378.963 371.35V371.313C378.963 371.128 378.963 370.943 378.963 370.795C378.963 370.721 378.963 370.647 378.963 370.573C378.704 364.239 375.37 358.721 370.445 355.387C369 354.165 367.815 352.758 366.889 351.165V351.128C366.741 350.869 366.593 350.61 366.482 350.35C366.482 350.313 366.445 350.276 366.445 350.276C366.333 350.054 366.222 349.795 366.111 349.535C366.111 349.498 366.074 349.461 366.037 349.387C365.926 349.165 365.852 348.906 365.741 348.684C365.741 348.647 365.704 348.573 365.667 348.535C365.593 348.313 365.519 348.054 365.445 347.832C365.445 347.758 365.407 347.721 365.407 347.647C365.333 347.424 365.259 347.165 365.222 346.943C365.222 346.869 365.185 346.832 365.185 346.758C365.111 346.535 365.074 346.276 365.037 346.054C365.037 345.98 365 345.943 365 345.869C364.963 345.61 364.926 345.387 364.889 345.128C364.889 345.054 364.889 345.017 364.852 344.943C364.815 344.684 364.778 344.424 364.778 344.128V344.017C364.963 343.758 364.926 343.424 364.926 343.128Z" fill="#6E9BA2"/>
<path d="M400 400.017V0.0169357H380.778C380.778 6.31323 383.815 11.9429 388.518 15.4243C392.592 18.4984 395.111 23.2392 395.111 28.3133V28.9429C395.111 33.7207 392.926 38.1651 389.296 41.2021C384.481 44.4614 381.185 49.8688 380.852 56.054C380.852 56.2762 380.815 56.4984 380.815 56.7207C380.815 56.8318 380.815 56.9799 380.815 57.091V57.2762C380.815 57.4984 380.815 57.7577 380.815 57.9799C381.074 64.3873 384.407 69.9429 389.407 73.2762C392.963 76.3132 395.074 80.7577 395.074 85.4614V86.091C395.074 90.8688 392.889 95.3133 389.259 98.3503C386.852 99.9799 384.815 102.165 383.333 104.684C381.889 107.202 380.963 110.091 380.778 113.202C380.778 113.424 380.741 113.647 380.741 113.869C380.741 113.98 380.741 114.128 380.741 114.239V114.424C380.741 114.647 380.741 114.906 380.741 115.128C381 121.535 384.333 127.091 389.333 130.424C392.889 133.461 395 137.906 395 142.61V143.239C395 148.017 392.815 152.461 389.185 155.498C386.778 157.128 384.741 159.313 383.259 161.832C381.815 164.35 380.889 167.276 380.704 170.35C380.704 170.573 380.667 170.795 380.667 171.017C380.667 171.128 380.667 171.276 380.667 171.387V171.573C380.667 171.795 380.667 172.054 380.667 172.276C380.926 178.684 384.259 184.239 389.259 187.573C392.815 190.61 394.926 195.054 394.926 199.758V200.387C394.926 205.165 392.741 209.61 389.111 212.647C386.704 214.276 384.666 216.461 383.185 218.98C381.741 221.498 380.815 224.387 380.629 227.498C380.629 227.721 380.592 227.943 380.592 228.165C380.592 228.276 380.592 228.424 380.592 228.535V228.721C380.592 228.943 380.592 229.202 380.592 229.424C380.852 235.832 384.185 241.424 389.185 244.721C392.741 247.758 394.852 252.165 394.852 256.906V257.535C394.852 262.313 392.666 266.758 389.037 269.795C386.629 271.424 384.592 273.61 383.111 276.128C381.667 278.647 380.741 281.573 380.555 284.647C380.555 284.869 380.518 285.091 380.518 285.313C380.518 285.424 380.518 285.572 380.518 285.684V285.869C380.518 286.091 380.518 286.313 380.518 286.573C380.778 292.943 384.111 298.573 389.111 301.869C392.666 304.906 394.778 309.35 394.778 314.054V314.684C394.778 319.461 392.592 323.906 388.963 326.943C386.555 328.572 384.518 330.758 383.037 333.276C381.592 335.795 380.667 338.684 380.481 341.795C380.481 342.017 380.444 342.239 380.444 342.461C380.444 342.572 380.444 342.721 380.444 342.832V343.017C380.444 343.239 380.444 343.461 380.444 343.721C380.704 350.091 384.037 355.684 389.037 359.017C392.592 362.054 394.704 366.498 394.704 371.202V371.832C394.704 376.906 392.222 381.647 388.148 384.684C383.444 388.202 380.407 393.795 380.407 400.128H400V400.017Z" fill="#6E9BA2"/>
</g>
<defs>
<clipPath id="clip0_2262_3535">
<rect width="400" height="400" rx="200" transform="matrix(1 0 0 -1 0 400)" fill="white"/>
</clipPath>
</defs>
</svg>
