<svg width="512" height="512" viewBox="0 0 512 512" fill="none" xmlns="http://www.w3.org/2000/svg">
<rect width="512" height="512" transform="matrix(-1 0 0 1 512 0)" fill="#F6F6F6"/>
<path fill-rule="evenodd" clip-rule="evenodd" d="M392.067 179.944C389.668 176.901 388.236 173.059 388.236 168.882C388.236 159.006 396.242 151 406.118 151C415.994 151 424 159.006 424 168.882C424 175.987 419.856 182.124 413.854 185.009L402.237 216.441C405.74 219.902 407.985 223.966 408.869 228.031C411.162 238.576 412.079 255.541 412.079 280.76C412.079 298.811 409.142 316.985 407.21 326.085C415.905 335.147 421.249 347.449 421.249 361H87.4498C87.4498 341.035 99.0498 323.78 115.878 315.606V297.266C115.878 240.289 162.067 194.1 219.044 194.1C275.719 194.1 321.72 239.801 322.206 296.362C324.78 291.562 327.661 285.167 330.004 277.55C334.387 263.306 335.57 254.589 337.26 242.131C337.692 238.949 338.157 235.523 338.716 231.699C339.818 224.171 342.978 218.849 347.608 215.114L336.378 184.726C330.681 181.736 326.795 175.763 326.795 168.882C326.795 159.006 334.801 151 344.677 151C354.553 151 362.559 159.006 362.559 168.882C362.559 173.242 360.999 177.237 358.406 180.34L367.899 207.666C370.6 207.308 373.416 207.077 376.314 206.939C378.492 206.939 380.571 207.08 382.548 207.347L392.067 179.944ZM285.528 310.563H262.603V295.432C262.603 271.375 243.101 251.873 219.044 251.873C194.987 251.873 175.485 271.375 175.485 295.432V310.563H152.559V295.432C152.559 258.714 182.325 228.948 219.044 228.948C255.762 228.948 285.528 258.714 285.528 295.432V310.563Z" fill="#8BB2B7"/>
</svg>
