<svg width="400" height="400" viewBox="0 0 400 400" fill="none" xmlns="http://www.w3.org/2000/svg">
<g clip-path="url(#clip0_2262_2405)">
<rect width="400" height="400" rx="200" fill="white"/>
<path d="M-155.361 -0.0285645H554.87C555.183 0.469125 555.367 0.924155 555.424 1.50716C555.751 5.13318 556.007 24.5715 555.325 27.2733C555.254 27.5861 555.111 27.8705 554.955 28.1407C555.68 29.5768 555.908 49.5555 555.296 51.7169C555.225 51.9444 555.126 52.1719 555.026 52.3852C555.837 54.3049 555.837 104.572 555.183 106.193C555.111 106.377 555.083 106.42 554.998 106.576C555.239 107.103 555.41 107.615 555.439 108.198C555.709 112.918 555.936 149.093 555.239 151.056C555.154 151.297 555.026 151.525 554.87 151.738C555.268 152.378 555.396 152.876 555.439 153.629C556.022 164.195 555.495 175.073 555.495 185.652C555.495 189.122 556.064 200.697 555.296 203.484C555.239 203.711 555.126 203.939 555.026 204.152C555.709 205.745 555.922 236.957 555.183 238.848C555.111 239.019 555.083 239.076 554.998 239.232C555.239 239.758 555.41 240.256 555.439 240.839C555.666 244.593 555.936 273.672 555.254 275.819C555.183 276.018 555.111 276.161 555.012 276.36C555.894 278.407 555.894 306.832 555.183 308.624C555.111 308.795 555.083 308.852 554.998 309.008C555.581 310.515 555.652 311.653 554.998 313.189C555.794 315.009 555.922 327.593 555.197 329.499C555.097 329.74 554.983 329.968 554.856 330.195C555.965 332.001 555.794 337.703 555.311 339.822C555.239 340.107 555.111 340.391 554.983 340.661C555.766 342.367 555.894 367.878 555.183 369.769C555.111 369.954 555.083 369.996 555.012 370.153C555.865 372.129 555.851 390.615 555.225 392.378C555.183 392.478 555.14 392.591 555.097 392.691C555.467 393.957 555.595 394.867 555.069 396.146C555.453 397.398 555.495 398.35 555.396 399.659V400H-155.361V-0.0285645Z" fill="#E9A32A"/>
<path d="M320.956 301.785C326.8 303.235 332.588 307.757 337.906 310.629C349.538 316.914 361.71 323.114 374.493 326.655C387.675 330.309 401.226 331.091 414.834 331.433C424.532 331.674 434.287 331.589 443.814 333.679C461.532 337.59 479.136 348.383 495.162 356.786C507.988 363.512 520.828 369.741 532.915 377.775C538.859 381.728 544.12 386.164 549.438 390.885C551.187 392.435 553.875 394.184 555.098 396.104C555.481 397.355 555.524 398.308 555.425 399.616V399.957H515.851V399.673C504.305 389.762 494.067 383.05 480.885 375.414C471.23 369.826 461.646 364.65 450.938 361.294C441.496 358.336 431.756 356.9 421.973 355.563C405.606 353.331 388.4 351.482 373.469 343.932C361.184 337.732 350.519 328.404 340.608 318.976C335.29 313.914 327.454 304.828 320.97 301.742L320.956 301.785Z" fill="#312319"/>
<path d="M-69.3749 -0.0285645H10.298C18.1189 6.79689 26.3094 13.1673 34.2013 19.8932C44.6244 28.7663 55.0332 38.7912 66.864 45.7304C74.4004 50.1527 83.0318 52.4563 91.0517 55.8406C105.712 62.012 118.851 70.9419 131.009 81.1232C133.341 83.0429 135.616 85.0479 137.834 87.1097C140.053 89.1716 142.2 91.2903 144.29 93.4801C146.381 95.67 148.4 97.9167 150.348 100.234C152.296 102.552 154.187 104.913 155.993 107.33C167.454 122.474 175.886 139.31 192.211 150.089C200.031 155.25 208.208 159.346 217.251 161.877C235.723 167.053 254.72 166.783 271.997 176.296C286.715 184.387 292.061 199.644 303.892 210.181C314.144 219.31 327.155 225.325 338.076 233.701C351.841 244.252 363.586 257.135 377.906 267.017C393.746 277.952 412.004 283.384 430.646 287.181C438.78 288.83 447.127 290.139 454.891 293.125C471.201 299.396 492.616 315.62 506.693 326.185C515.126 332.513 523.686 338.741 531.564 345.766C537.578 351.127 543.181 357.028 548.57 363.014C550.163 364.778 554.088 368.176 555.012 370.124C555.865 372.101 555.851 390.586 555.225 392.35C555.183 392.449 555.14 392.563 555.097 392.663C554.045 389.847 548.983 384.045 546.921 381.401C526.53 355.137 493.668 331.76 462.641 319.858C446.857 313.814 430.049 311.525 414.137 305.937C401.297 301.429 388.883 295.869 376.142 291.148C366.772 287.678 357.173 284.92 347.575 282.19C323.814 275.407 303.082 263.917 286.189 245.602C280.344 239.26 275.154 232.335 269.679 225.681C261.048 215.215 252.061 205.147 240.828 197.369C230.59 190.274 219.768 184.628 208.236 179.936C200.927 176.964 193.291 174.575 186.366 170.764C179.029 166.726 172.346 161.308 165.734 156.203C154.742 147.743 143.778 138.869 132.075 131.404C117.088 121.834 99.7257 116.658 85.1363 106.292C62.5838 90.2523 49.4306 69.5911 30.0776 50.949C28.2859 49.2569 26.4658 47.6216 24.5888 46.0148C22.726 44.4222 20.8206 42.858 18.8725 41.365C16.9244 39.8577 14.9479 38.4073 12.9429 36.9995C10.9237 35.5918 8.87605 34.2267 6.79997 32.9185C-6.08307 24.8843 -20.8005 19.2533 -35.1197 14.3191C-47.5619 10.0248 -58.0134 7.33724 -69.3892 -0.000125064L-69.3749 -0.0285645Z" fill="#312319"/>
<path d="M-144.938 -0.0285645H-123.153C-111.124 7.79227 -99.2501 12.7265 -85.2864 16.0397C-77.0958 17.9736 -68.9195 19.5804 -61.0418 22.6092C-47.917 27.6714 -36.3422 36.2317 -25.4499 45.0052C-7.19182 59.7084 -0.0819741 71.8093 10.3695 92.1435C16.0574 103.221 21.9443 114.284 30.4619 123.512C45.1651 139.424 66.2245 145.098 84.966 154.44C88.3645 156.161 91.6777 158.038 94.8914 160.071C98.105 162.119 101.205 164.308 104.205 166.655C117.941 177.362 127.071 192.563 137.849 206.015C138.901 207.323 139.982 208.603 141.077 209.854C142.172 211.12 143.295 212.357 144.447 213.58C145.599 214.803 146.765 215.997 147.959 217.163C149.154 218.343 150.362 219.495 151.599 220.618C152.837 221.742 154.088 222.851 155.368 223.932C156.647 225.012 157.941 226.065 159.25 227.103C160.572 228.141 161.895 229.136 163.26 230.131C164.611 231.113 165.99 232.065 167.369 233.004C188.087 246.64 205.151 247.437 227.234 254.973C258.091 265.51 285.165 287.778 307.206 311.255C316.989 321.664 325.99 332.712 336 342.922C344.404 351.482 353.164 358.564 363.7 364.365C369.9 367.778 376.612 370.75 383.281 373.139C396.079 377.732 409.26 381.116 422.129 385.453C430.505 388.283 438.638 391.738 446.701 395.364C448.791 396.303 452.915 397.739 454.422 399.332L454.977 399.943H374.607V399.588C368.507 394.07 363.245 388.141 356.647 383.078C342.257 372.016 326.004 363.541 310.206 354.724C293.711 345.51 277.33 335.94 259.84 328.745C243.302 321.948 225.286 317.767 209.431 309.492C202.549 305.894 195.965 300.946 190.249 295.698C184.646 290.565 179.484 285.105 173.242 280.697C160.302 271.553 145.684 265.24 132.886 255.94C117.828 244.991 105.016 231.696 92.6446 217.846C84.838 209.1 77.1025 199.602 68.073 192.065C58.1477 183.789 47.0563 178.457 35.9365 172.129C22.9255 164.735 11.7772 155.535 2.20739 144.031C-0.849841 140.32 -3.7222 136.495 -6.43816 132.527C-9.1399 128.56 -11.671 124.493 -14.0173 120.298C-24.099 102.609 -32.6877 82.2182 -47.8033 68.1407C-61.0702 55.798 -79.0866 48.2615 -95.3539 40.6398C-105.009 36.1179 -114.693 31.4538 -122.969 24.6284C-131.387 17.7176 -138.241 8.50325 -144.938 -0.0285645Z" fill="#312319"/>
<path d="M454.408 399.36L454.962 399.972H374.593V399.616C383.096 399.261 452.019 400.455 454.408 399.36Z" fill="#312319"/>
<path d="M-155.361 -0.0285645H-144.938C-138.255 8.50325 -131.387 17.7176 -122.997 24.6426C-114.721 31.4823 -105.038 36.1321 -95.3827 40.654C-79.1153 48.2757 -61.099 55.8122 -47.832 68.1549C-32.7165 82.2324 -24.1278 102.623 -14.046 120.313C-11.6997 124.508 -9.18286 128.574 -6.4669 132.542C-3.76516 136.509 -0.878555 140.334 2.17868 144.045C11.7485 155.535 22.911 164.749 35.9078 172.144C47.0276 178.471 58.119 183.804 68.0443 192.08C77.0738 199.602 84.8093 209.101 92.6159 217.86C104.973 231.71 117.799 245.005 132.858 255.954C145.655 265.254 160.287 271.568 173.213 280.711C179.456 285.119 184.617 290.579 190.22 295.713C195.936 300.96 202.506 305.908 209.402 309.506C225.257 317.782 243.274 321.962 259.811 328.759C277.316 335.954 293.697 345.524 310.177 354.739C325.975 363.555 342.228 372.044 356.619 383.093C363.217 388.169 368.478 394.084 374.564 399.602V399.957H358.794H220.835L220.778 399.659C220.693 399.516 220.593 399.388 220.522 399.246C219.171 396.729 218.29 393.729 217.166 391.084C213.37 382.097 208.876 373.338 201.567 366.683C191.741 357.739 177.593 355.492 165.734 350.288C156.278 346.136 147.746 340.661 139.441 334.575C126.956 325.446 117.003 313.331 106.395 302.211C100.778 296.281 95.0333 290.494 89.1179 284.863C83.2167 279.232 77.1734 273.743 70.9878 268.425C63.622 262.183 56.0571 256.182 48.2931 250.437C40.5292 244.692 32.5804 239.204 24.4609 233.985C8.96147 224.074 -7.07835 215.016 -22.1086 204.394C-39.5277 192.094 -55.4537 178.628 -68.7065 161.834C-75.8306 152.805 -81.4047 142.552 -87.704 132.94C-105.066 106.449 -126.41 85.3038 -155.361 71.7951V-0.0285645Z" fill="#E9A32A"/>
<path d="M311.514 374.006C317.486 375.286 323.516 377.945 329.104 380.434C335.531 383.278 356.107 393.345 358.396 399.289L358.823 399.986H342.997V399.659C335.631 391.895 321.07 379.04 311.514 374.021V374.006Z" fill="#312319"/>
<path d="M358.397 399.275L358.823 399.972H342.997V399.645C345.627 399.645 356.676 400.185 358.382 399.275H358.397Z" fill="#312319"/>
<path d="M-155.361 38.3647C-148.522 39.9574 -142.109 42.0476 -135.795 45.1902C-119.314 53.395 -95.5391 72.62 -85.7986 88.2474C-80.8644 96.1678 -79.3855 105.055 -76.4562 113.743C-70.5409 131.305 -57.9138 151.866 -44.7748 164.892C-33.9251 175.67 -12.4392 189.293 1.68097 195.592C8.66284 198.706 15.9149 201.081 22.9963 203.925C36.4197 209.285 49.2174 215.656 61.1193 223.889C77.9412 235.521 87.3973 248.39 100.039 263.861C109.424 275.336 120.06 287.622 131.208 297.391C136.953 302.424 142.911 307.231 149.367 311.312C153.377 313.8 157.458 316.146 161.638 318.351C165.819 320.54 170.056 322.588 174.379 324.479C187.39 330.196 201.055 335.116 212.886 343.121C224.831 351.198 234.799 361.777 245.364 371.49C254.521 379.908 267.874 390.259 278.553 396.687C279.832 397.455 282.89 398.635 283.473 399.986H220.878L220.821 399.687C220.735 399.545 220.636 399.417 220.565 399.275C219.214 396.758 218.332 393.758 217.209 391.113C213.412 382.126 208.919 373.367 201.61 366.712C191.784 357.768 177.635 355.521 165.776 350.316C156.32 346.164 147.788 340.69 139.484 334.604C126.999 325.475 117.045 313.359 106.437 302.24C100.821 296.31 95.0759 290.523 89.1605 284.892C83.2594 279.261 77.216 273.772 71.0304 268.454C63.6646 262.211 56.0997 256.21 48.3358 250.466C40.5718 244.721 32.623 239.232 24.5036 234.014C9.00412 224.102 -7.0357 215.044 -22.0659 204.422C-39.485 192.122 -55.4111 178.656 -68.6639 161.863C-75.7879 152.833 -81.362 142.581 -87.6614 132.968C-105.066 106.449 -126.41 85.304 -155.361 71.7952V38.3647Z" fill="#312319"/>
<path d="M220.807 399.673C227.078 399.63 280.757 398.962 282.833 399.972H220.864L220.807 399.673Z" fill="#312319"/>
<path d="M-155.361 71.7952C-126.41 85.3039 -105.066 106.449 -87.6898 132.94C-81.3905 142.552 -75.8164 152.805 -68.6923 161.834C-55.4395 178.642 -39.5135 192.094 -22.0944 204.394C-7.06414 215.016 8.97567 224.074 24.4751 233.985C32.5946 239.204 40.5434 244.692 48.3074 250.437C56.0713 256.182 63.6362 262.183 71.002 268.425C77.1875 273.757 83.2309 279.232 89.1321 284.863C95.0333 290.494 100.792 296.281 106.409 302.211C117.017 313.331 126.985 325.446 139.456 334.575C147.76 340.647 156.292 346.136 165.748 350.288C177.621 355.492 191.756 357.739 201.581 366.683C208.89 373.338 213.384 382.097 217.18 391.084C218.304 393.729 219.185 396.744 220.536 399.246C220.607 399.388 220.707 399.531 220.792 399.659L220.849 399.957H-155.361V71.7952Z" fill="#E9A32A"/>
<path d="M50.8384 326.257C90.9095 332.385 117.074 346.605 145.2 375.812C150.063 380.86 154.628 386.207 159.278 391.44C161.738 394.198 164.184 397.241 167.013 399.63L167.127 399.986H116.775V399.644L116.59 399.374C111.855 391.639 109.623 382.296 105.769 374.092C97.4506 356.417 82.2213 343.477 65.4989 333.978C60.7069 331.248 55.5594 329.072 50.8242 326.271L50.8384 326.257Z" fill="#312319"/>
<path d="M167.014 399.616L167.127 399.971H116.775V399.63C133.512 399.403 150.263 399.744 166.999 399.63L167.014 399.616Z" fill="#312319"/>
<path d="M-155.361 101.33C-154.593 101.728 -153.84 102.126 -153.086 102.538C-152.332 102.951 -151.579 103.363 -150.839 103.79C-150.086 104.216 -149.346 104.643 -148.607 105.084C-147.867 105.524 -147.128 105.965 -146.403 106.406C-145.678 106.861 -144.938 107.316 -144.213 107.771C-143.488 108.24 -142.763 108.695 -142.052 109.179C-141.341 109.648 -140.63 110.132 -139.919 110.629C-139.208 111.113 -138.511 111.61 -137.814 112.108C-137.117 112.606 -136.421 113.118 -135.738 113.63C-135.055 114.141 -134.359 114.653 -133.69 115.18C-133.008 115.706 -132.34 116.232 -131.657 116.772C-130.989 117.312 -130.32 117.853 -129.652 118.393C-128.984 118.934 -128.33 119.488 -127.675 120.057C-127.021 120.611 -126.381 121.18 -125.742 121.749C-125.102 122.318 -124.462 122.901 -123.836 123.484C-123.21 124.067 -122.585 124.65 -121.959 125.247C-121.333 125.844 -120.722 126.442 -120.111 127.039C-119.499 127.636 -118.888 128.247 -118.29 128.873C-117.693 129.485 -117.096 130.11 -116.513 130.736C-115.93 131.362 -115.347 131.987 -114.764 132.627C-114.181 133.267 -113.612 133.907 -113.043 134.547C-112.475 135.187 -111.92 135.841 -111.365 136.495C-110.811 137.149 -110.256 137.817 -109.716 138.471C-109.176 139.14 -108.635 139.808 -108.109 140.476C-107.583 141.145 -107.057 141.827 -106.531 142.51C-106.005 143.192 -105.493 143.875 -104.995 144.572C-104.483 145.268 -103.985 145.965 -103.488 146.662C-102.99 147.359 -102.507 148.07 -102.023 148.781C-101.54 149.492 -101.07 150.203 -100.587 150.928C-100.118 151.653 -99.6484 152.364 -99.1934 153.089C-98.7384 153.814 -98.2834 154.554 -97.8425 155.279C-97.4017 156.018 -96.9609 156.758 -96.5343 157.497C-89.8369 168.973 -84.0921 180.732 -75.8447 191.226C-71.9485 196.189 -67.3697 200.882 -62.4497 204.835C-56.5486 209.584 -50.4767 213.608 -45.1728 219.125C-35.4323 229.25 -28.2798 241.493 -18.1838 251.276C-4.1632 264.87 9.48769 263.462 25.172 271.454C41.937 280 56.242 291.973 70.2342 304.401C75.8794 309.421 81.61 314.426 86.8713 319.858C79.4201 315.663 71.9264 311.795 63.9349 308.724C47.241 302.296 29.7081 298.827 12.6871 293.523C-5.61361 287.821 -22.5919 280.384 -38.6602 269.876C-56.8756 257.959 -65.2937 242.901 -79.2858 227.458C-95.9798 209.044 -116.541 193.53 -137.188 179.822C-143.104 175.898 -149.105 171.802 -155.39 168.489V101.287L-155.361 101.33Z" fill="#312319"/>
<path d="M-155.361 221.187C-148.138 224.557 -140.871 228.155 -134.473 232.933C-127.761 237.938 -121.774 244.394 -115.66 250.124C-107.199 258.045 -97.3165 265.78 -87.2916 271.596C-76.8828 277.639 -66.4171 282.417 -54.5152 284.82C-44.5188 286.84 -33.9251 287.863 -24.3553 291.504C-18.9234 293.566 -13.8469 297.035 -8.96956 300.178C5.16481 309.293 18.2612 319.687 31.1158 330.494C44.1126 341.415 56.7397 352.62 68.0159 365.318C70.3763 367.977 72.6515 370.679 74.884 373.438C77.1022 376.196 79.2494 379.026 81.3397 381.898C83.4158 384.771 85.435 387.686 87.3689 390.658C89.3027 393.63 91.1655 396.644 92.9572 399.701L93.1421 399.957H-155.361V221.173V221.187Z" fill="#312319"/>
<path d="M32.4527 399.645C44.966 399.502 57.4794 399.602 69.9785 399.602C77.6002 399.602 85.35 399.317 92.9575 399.701L93.1424 399.957H32.4385V399.63L32.4527 399.645Z" fill="#312319"/>
<path d="M-155.361 270.8C-147.54 274.184 -139.819 277.668 -131.728 280.356C-120.054 284.238 -108.081 287.124 -96.4918 291.333C-81.8597 296.651 -67.9813 303.875 -53.2355 308.838C-42.3858 312.492 -30.8537 313.502 -20.3311 317.967C-1.41891 326.001 27.0205 343.363 42.4062 356.943C48.7197 362.517 54.3934 368.916 59.9249 375.258C64.4041 380.391 69.58 386.122 72.1396 392.506C72.3387 393.018 72.5377 393.53 72.7226 394.042C67.2907 389.62 62.3564 384.472 56.4837 380.619C45.6767 373.523 33.6326 368.546 22.1431 362.702C1.56724 352.222 -19.0229 338.941 -41.7317 333.637C-53.5057 330.878 -65.9621 332.357 -77.9351 330.992C-80.8075 330.665 -83.6514 330.224 -86.4953 329.655C-89.3251 329.101 -92.1406 328.418 -94.9134 327.636C-113.072 322.361 -139.037 309.762 -155.361 300.135V270.771L-155.361 270.8Z" fill="#E9A32A"/>
<path d="M-155.361 301.969C-148.607 306.335 -142.165 311.497 -136.264 316.957C-126.325 326.171 -117.75 335.414 -105.493 341.742C-92.2259 348.596 -78.0915 351.852 -63.4737 354.255C-53.2213 355.947 -42.9546 357.412 -33.072 360.768C-16.2643 366.47 1.24016 375.955 15.5452 386.42C19.285 389.207 22.9536 392.065 26.5512 395.023C28.4424 396.545 30.3763 398.407 32.4524 399.659V399.986H-155.361V301.984V301.969Z" fill="#E9A32A"/>
<path d="M10.2983 -0.0285645H554.87C555.183 0.469125 555.368 0.924155 555.425 1.50716C555.752 5.13318 556.008 24.5715 555.325 27.2733C555.254 27.5861 555.112 27.8705 554.955 28.1407C555.68 29.5768 555.908 49.5555 555.297 51.7169C555.225 51.9444 555.126 52.1719 555.026 52.3852C555.837 54.3049 555.837 104.572 555.183 106.193C555.112 106.377 555.083 106.42 554.998 106.576C555.24 107.103 555.41 107.615 555.439 108.198C555.709 112.918 555.936 149.093 555.24 151.056C555.154 151.297 555.026 151.525 554.87 151.738C555.268 152.378 555.396 152.876 555.439 153.629C556.022 164.195 555.496 175.073 555.496 185.652C555.496 189.122 556.064 200.697 555.297 203.484C555.24 203.711 555.126 203.939 555.026 204.152C555.709 205.745 555.922 236.957 555.183 238.848C555.112 239.019 555.083 239.076 554.998 239.232C555.24 239.758 555.41 240.256 555.439 240.839C555.666 244.593 555.936 273.672 555.254 275.819C555.183 276.018 555.112 276.161 555.012 276.36C555.894 278.407 555.894 306.832 555.183 308.624C555.112 308.795 555.083 308.852 554.998 309.008C555.581 310.515 555.652 311.653 554.998 313.189C555.794 315.009 555.922 327.593 555.197 329.499C555.097 329.74 554.984 329.968 554.856 330.195C555.965 332.001 555.794 337.703 555.311 339.822C555.24 340.107 555.112 340.391 554.984 340.661C555.766 342.367 555.894 367.878 555.183 369.769C555.112 369.954 555.083 369.996 555.012 370.153C554.088 368.219 550.163 364.82 548.571 363.043C543.181 357.056 537.579 351.155 531.564 345.794C523.686 338.77 515.112 332.542 506.694 326.214C492.616 315.649 471.201 299.424 454.891 293.153C447.127 290.167 438.766 288.859 430.647 287.209C412.005 283.413 393.747 277.981 377.906 267.046C363.587 257.163 351.841 244.28 338.077 233.729C327.156 225.354 314.145 219.339 303.892 210.21C292.062 199.659 286.701 184.401 271.998 176.324C254.706 166.825 235.709 167.096 217.252 161.905C208.208 159.374 200.032 155.279 192.211 150.117C175.887 139.339 167.454 122.503 155.993 107.359C154.187 104.941 152.296 102.567 150.348 100.263C148.4 97.9451 146.381 95.6984 144.291 93.5086C142.2 91.3188 140.053 89.1858 137.835 87.1382C135.616 85.0763 133.341 83.0856 131.009 81.1517C118.851 70.9846 105.698 62.0404 91.052 55.8691C83.0321 52.499 74.4007 50.1812 66.8643 45.7589C55.0335 38.8196 44.6105 28.7805 34.2016 19.9217C26.2955 13.1958 18.1192 6.82533 10.2983 -0.000125062V-0.0285645Z" fill="#312319"/>
<path d="M120.473 -0.0285645H160.274C165.279 15.1012 180.394 24.8986 193.96 31.7098C205.023 37.2555 216.569 41.4645 228.13 45.83C242.065 51.1055 255.801 56.2814 270.178 60.2629C286.829 64.8701 307.547 65.0976 322.449 73.9565C328.208 77.3835 333.583 81.8058 338.987 85.7731C361.141 101.998 371.009 110.586 386.025 134.234C393.292 145.666 399.548 157.725 408.265 168.162C416.271 177.746 426.281 185.524 435.851 193.459C457.024 211.02 481.212 223.519 504.134 238.45C518.482 247.792 531.507 258.656 545.101 268.965C547.078 270.458 554.273 274.995 555.026 276.331C555.908 278.379 555.908 306.804 555.197 308.596C555.126 308.766 555.098 308.823 555.012 308.98C553.192 307.273 550.519 306.093 548.514 304.486C532.986 291.944 517.259 280.043 498.887 271.895C483.629 265.126 467.519 262.481 454.55 251.02C444.497 242.133 437.358 230.231 428.045 220.562C419.399 211.603 408.265 205.318 400.686 195.336C393.007 185.211 386.651 173.807 379.939 163.029C364.07 137.49 347.575 120.384 322.094 104.23C309.14 96.0255 295.375 89.1858 281.539 82.6163C266.097 75.1936 250.384 68.3397 234.429 62.0973C228.059 59.5946 221.688 57.0493 215.218 54.8026C204.34 51.0201 193.32 47.6074 182.684 43.1709C178.105 41.2086 173.597 39.1183 169.161 36.8715C164.724 34.6248 160.359 32.2359 156.065 29.719C147.362 24.671 138.83 18.9121 131.479 12.044C127.497 8.3184 123.999 4.13781 120.473 -0.000125062V-0.0285645Z" fill="#E9A32A"/>
<path d="M160.273 -0.0285645H256.484L256.683 0.156292C259.228 2.48832 261.447 5.31804 263.907 7.77805C269.154 13.0393 275.339 18.0731 281.567 22.1257C291.891 28.8374 303.082 33.9138 314.5 38.4215C321.084 41.0237 327.767 43.3557 334.18 46.3419C351.13 54.248 366.175 67.1879 379.299 80.3269C390.405 91.4467 393.988 105.24 399.349 119.502C406.914 139.609 418.603 159.161 435.766 172.527C450.355 183.889 466.111 192.151 483.288 198.834C492.815 202.531 502.527 205.716 511.756 210.153C523.715 215.898 534.394 223.164 544.731 231.44C547.917 233.985 552.225 236.317 554.998 239.218C555.24 239.744 555.41 240.242 555.439 240.825C555.666 244.579 555.936 273.658 555.254 275.805C555.183 276.004 555.112 276.146 555.012 276.345C554.259 275.009 547.078 270.473 545.087 268.98C531.479 258.67 518.468 247.806 504.12 238.464C481.198 223.533 457.01 211.034 435.837 193.473C426.267 185.538 416.256 177.746 408.251 168.176C399.534 157.739 393.277 145.681 386.011 134.248C370.995 110.615 361.127 102.012 338.972 85.7873C333.555 81.82 328.194 77.3977 322.435 73.9707C307.533 65.1119 286.829 64.8843 270.163 60.2772C255.787 56.2956 242.051 51.1197 228.116 45.8442C216.555 41.4787 205.023 37.2697 193.946 31.724C180.38 24.9128 165.265 15.1154 160.259 -0.0143448L160.273 -0.0285645Z" fill="#312319"/>
<path d="M191.77 -0.0285645H224.39C231.102 10.0674 241.454 19.2818 251.422 25.9793C259.939 31.6956 269.338 36.7009 278.468 41.4076C280.814 42.6163 291.464 47.2519 292.46 48.7592C286.871 47.1239 280.856 46.4698 275.169 44.9483C244.312 36.6867 213.242 24.8559 191.77 -0.0143448V-0.0285645Z" fill="#E9A32A"/>
<path d="M10.2983 -0.0285049H29.8646C40.4441 5.80157 50.8814 11.9303 61.5603 17.5755C70.4619 22.2822 79.6762 26.477 88.3787 31.5108C102.271 39.5449 115.069 50.0817 130.085 56.0398C140.593 60.2061 150.917 61.4859 162.094 62.2822C168.094 62.7088 174.223 62.9221 180.039 64.6C189.85 67.4297 198.866 73.4731 207.725 78.3931C216.1 83.043 225.058 87.5364 233.96 91.0629C246.843 96.1393 259.982 99.4667 273.505 102.254C279.179 103.42 285.222 104.031 290.753 105.638C297.749 107.671 304.817 111.639 311.244 115.066C336.271 128.404 352.595 141.202 366.502 166.555C369.118 171.333 372.559 175.642 375.986 179.865C376.512 180.519 377.494 181.472 377.721 182.254C377.806 182.538 377.849 182.808 377.892 183.107C377.892 183.178 377.92 183.263 377.934 183.334C376.768 181.088 369.004 175.898 366.487 173.864C340.963 153.146 315.794 135.172 283.999 125.204C275.752 122.616 266.893 120.867 258.318 119.957C252.673 119.36 246.985 119.161 241.34 118.493C224.987 116.545 206.587 110.459 192.595 101.742C187.902 98.8126 183.651 95.343 179.47 91.7312C190.078 113.004 215.417 132.072 237.7 139.552C244.113 141.699 250.867 142.979 257.422 144.657C264.603 146.548 271.699 148.766 278.667 151.312C282.037 152.506 285.378 153.758 288.692 155.094C292.005 156.431 295.289 157.839 298.56 159.303C301.816 160.782 305.044 162.318 308.229 163.939C311.415 165.546 314.571 167.238 317.7 168.973C327.426 174.49 336.768 181.23 345.812 187.814C362.577 200.028 378.29 212.456 392.68 227.458C411.934 247.536 421.802 263.391 447.071 277.767C454.081 281.763 461.532 285.29 469.182 287.878C479.918 291.518 491.066 294.077 502.001 297.064C516.363 301.017 530.64 305.24 544.845 309.691C546.864 310.316 553.704 311.937 555.041 313.146C555.837 314.966 555.965 327.551 555.24 329.456C555.14 329.698 555.026 329.925 554.898 330.153C556.008 331.959 555.837 337.661 555.353 339.78C555.282 340.064 555.154 340.348 555.026 340.619C555.808 342.325 555.937 367.835 555.226 369.726C555.154 369.911 555.126 369.954 555.055 370.11C554.131 368.176 550.206 364.778 548.613 363C543.224 357.014 537.622 351.113 531.607 345.752C523.729 338.727 515.154 332.499 506.736 326.171C492.659 315.606 471.244 299.381 454.934 293.111C447.17 290.124 438.809 288.816 430.689 287.167C412.047 283.37 393.789 277.938 377.949 267.003C363.629 257.12 351.884 244.237 338.119 233.686C327.198 225.311 314.187 219.296 303.935 210.167C292.104 199.616 286.743 184.358 272.04 176.281C254.749 166.783 235.752 167.053 217.294 161.863C208.251 159.332 200.074 155.236 192.254 150.075C175.929 139.296 167.497 122.46 156.036 107.316C154.23 104.899 152.339 102.524 150.391 100.22C148.443 97.9025 146.423 95.6558 144.333 93.466C142.243 91.2762 140.096 89.1432 137.877 87.0956C135.659 85.0337 133.384 83.0429 131.052 81.1091C118.894 70.942 105.741 61.9978 91.0946 55.8265C83.0747 52.4564 74.4434 50.1386 66.9069 45.7163C55.0762 38.777 44.6531 28.7379 34.2443 19.8791C26.3382 13.1532 18.1618 6.78273 10.341 -0.0427246L10.2983 -0.0285049Z" fill="#E9A32A"/>
<path d="M256.484 -0.0285645H554.87C555.183 0.469125 555.368 0.924155 555.425 1.50716C555.752 5.13318 556.007 24.5715 555.325 27.2732C555.254 27.5861 555.112 27.8705 554.955 28.1406C555.68 29.5768 555.908 49.5555 555.297 51.7169C555.225 51.9444 555.126 52.1719 555.026 52.3852C555.837 54.3049 555.837 104.572 555.183 106.193C555.112 106.377 555.083 106.42 554.998 106.576C555.24 107.103 555.41 107.615 555.439 108.198C555.709 112.918 555.936 149.093 555.24 151.056C555.154 151.297 555.026 151.525 554.87 151.738C555.268 152.378 555.396 152.876 555.439 153.629C556.022 164.195 555.496 175.073 555.496 185.652C555.496 189.122 556.064 200.697 555.297 203.484C555.24 203.711 555.126 203.939 555.026 204.152C555.709 205.745 555.922 236.957 555.183 238.848C555.112 239.019 555.083 239.076 554.998 239.232C552.239 236.331 547.916 233.999 544.731 231.454C534.394 223.178 523.715 215.912 511.756 210.167C502.527 205.73 492.801 202.545 483.288 198.848C466.096 192.165 450.341 183.903 435.766 172.542C418.603 159.175 406.914 139.623 399.349 119.516C393.988 105.254 390.419 91.4609 379.299 80.3411C366.175 67.2021 351.13 54.248 334.18 46.3561C327.767 43.3699 321.084 41.0379 314.5 38.4357C303.082 33.9281 291.891 28.8374 281.567 22.1399C275.339 18.1015 269.154 13.0536 263.907 7.79227C261.447 5.33226 259.228 2.50254 256.683 0.170511L256.484 -0.0143448V-0.0285645Z" fill="#E9A32A"/>
<path d="M323.146 -0.0285645H345.698C355.538 7.28036 365.805 13.1958 378.005 15.4567C383.238 16.4236 388.528 16.7649 393.647 18.2722C411.194 23.4339 427.632 32.2786 442.264 43.2135C451.336 49.9821 459.669 57.1915 466.366 66.4201C471.4 73.3593 475.282 81.2228 479.164 88.8587C491.819 113.8 501.588 127.38 527.127 140.476C535.744 144.899 545.442 149.506 554.87 151.738C555.268 152.378 555.396 152.876 555.438 153.629C556.021 164.195 555.495 175.073 555.495 185.652C555.495 189.122 556.064 200.697 555.296 203.484C555.239 203.711 555.126 203.939 555.026 204.152C554.372 202.645 551.428 200.611 550.106 199.488C546.551 196.417 542.882 193.501 539.072 190.757C535.261 188.013 531.336 185.439 527.298 183.05C519.434 178.414 511.215 174.433 503.48 169.612C500.565 167.806 497.706 165.901 494.934 163.896C492.161 161.877 489.459 159.772 486.843 157.554C475.282 147.657 465.968 135.371 458.545 122.119C447.81 102.936 441.098 84.8346 423.992 69.7617C411.763 58.9832 397.074 51.1197 382.129 44.7777C370.739 39.943 358.624 35.4922 348.599 28.098C341.503 22.8651 335.645 16.3383 330.383 9.31377C328.165 6.35608 325.989 2.73006 323.359 0.198951L323.16 0.0140946L323.146 -0.0285645Z" fill="#312319"/>
<path d="M345.712 -0.0285645H554.87C555.183 0.469125 555.368 0.924155 555.425 1.50716C555.752 5.13318 556.008 24.5715 555.325 27.2733C555.254 27.5861 555.112 27.8705 554.955 28.1407C555.68 29.5768 555.908 49.5555 555.297 51.7169C555.225 51.9444 555.126 52.1719 555.026 52.3852C555.837 54.3049 555.837 104.572 555.183 106.193C555.112 106.377 555.083 106.42 554.998 106.576C555.24 107.103 555.41 107.615 555.439 108.198C555.709 112.918 555.936 149.093 555.24 151.056C555.154 151.297 555.026 151.525 554.87 151.738C545.442 149.506 535.744 144.884 527.127 140.476C501.575 127.394 491.82 113.8 479.164 88.8587C475.297 81.2228 471.415 73.3735 466.367 66.4201C459.669 57.1915 451.336 49.9963 442.264 43.2135C427.632 32.2786 411.18 23.4339 393.647 18.2722C388.528 16.7649 383.224 16.4236 378.005 15.4567C365.805 13.21 355.538 7.28036 345.698 -0.0285645L345.712 -0.0285645Z" fill="#E9A32A"/>
<path d="M396.52 -0.0285645H554.87C555.183 0.469125 555.368 0.924155 555.425 1.50716C555.752 5.13318 556.008 24.5715 555.325 27.2733C555.254 27.5861 555.112 27.8705 554.955 28.1407C555.681 29.5768 555.908 49.5555 555.297 51.7169C555.226 51.9444 555.126 52.1719 555.026 52.3852C555.837 54.3049 555.837 104.572 555.183 106.193C555.112 106.377 555.083 106.42 554.998 106.576C554.145 105.24 546.935 99.5377 545.044 97.7461C540.579 93.5228 536.313 89.1005 532.232 84.4791C522.506 73.3024 513.036 61.8982 502.129 51.8307C484.369 35.4211 462.385 24.6853 439.804 16.6369C424.93 11.333 410.569 7.56475 396.52 -0.0285645Z" fill="#312319"/>
</g>
<defs>
<clipPath id="clip0_2262_2405">
<rect width="400" height="400" rx="200" fill="white"/>
</clipPath>
</defs>
</svg>
