<svg width="512" height="512" viewBox="0 0 512 512" fill="none" xmlns="http://www.w3.org/2000/svg">
<g clip-path="url(#clip0_2001_1250)">
<path d="M509.5 256C509.5 396.004 396.004 509.5 256 509.5C115.996 509.5 2.5 396.004 2.5 256C2.5 115.996 115.996 2.5 256 2.5C396.004 2.5 509.5 115.996 509.5 256Z" fill="#253E1D" stroke="#D5F6CA" stroke-width="5"/>
<path d="M316.534 70.9576C318.717 61.8262 313.085 52.6536 303.954 50.47C294.822 48.2864 285.65 53.9187 283.466 63.0501L275.573 96.0583C218.617 97.8673 173 144.609 173 202.004C173 241.769 205.235 273.004 245 273.004C248.543 273.004 252.04 272.753 255.531 272.503C259.012 272.253 262.487 272.004 266 272.004C286.987 272.004 304 288.017 304 309.004C304 348.768 271.765 381.004 232 381.004C211.013 381.004 194 363.991 194 343.004C194 341.765 194.133 340.557 194.384 339.394C196.459 351.108 206.691 360.004 219 360.004C235.569 360.004 249 346.573 249 330.004C249 309.017 231.987 292.004 211 292.004C182.833 292.004 160 314.837 160 343.004C160 372.068 177.221 397.109 202.015 408.482L194.466 440.05C192.283 449.182 197.915 458.354 207.046 460.538C216.178 462.721 225.35 457.089 227.534 447.958L235.427 414.95C292.383 413.141 338 366.399 338 309.004C338 269.239 305.764 238.004 266 238.004C262.447 238.004 258.942 238.255 255.447 238.506C251.969 238.755 248.499 239.004 245 239.004C224.013 239.004 207 222.991 207 202.004C207 162.24 239.235 130.004 279 130.004C299.987 130.004 317 147.017 317 168.004C317 169.243 316.867 170.451 316.616 171.614C314.541 159.9 304.309 151.004 292 151.004C275.431 151.004 262 164.435 262 181.004C262 201.991 279.013 219.004 300 219.004C328.167 219.004 351 196.171 351 168.004C351 138.94 333.779 113.898 308.985 102.526L316.534 70.9576Z" fill="#D5F6CA"/>
</g>
<defs>
<clipPath id="clip0_2001_1250">
<rect width="512" height="512" fill="white"/>
</clipPath>
</defs>
</svg>
