<svg width="512" height="512" viewBox="0 0 512 512" fill="none" xmlns="http://www.w3.org/2000/svg">
<g clip-path="url(#clip0_2001_1253)">
<path d="M509.5 256C509.5 396.004 396.004 509.5 256 509.5C115.996 509.5 2.5 396.004 2.5 256C2.5 115.996 115.996 2.5 256 2.5C396.004 2.5 509.5 115.996 509.5 256Z" fill="#D5F6CA" stroke="#253E1D" stroke-width="5"/>
<path d="M322.215 72.9305C324.68 63.871 319.334 54.5285 310.275 52.0634C301.215 49.5983 291.873 54.9441 289.408 64.0035L280.497 96.7517C223.513 96.7974 176.471 142.105 174.695 199.473C173.465 239.219 204.718 271.436 244.464 272.667C248.005 272.776 251.508 272.633 255.005 272.492C258.492 272.349 261.973 272.208 265.484 272.317C286.461 272.966 302.971 289.498 302.321 310.475C301.091 350.22 267.874 381.443 228.128 380.213C207.151 379.563 190.673 362.032 191.322 341.055C191.36 339.816 191.531 338.613 191.817 337.458C193.529 349.231 203.481 358.439 215.784 358.82C232.345 359.333 246.185 346.324 246.698 329.763C247.347 308.786 230.869 291.255 209.892 290.605C181.738 289.734 158.21 311.849 157.338 340.003C156.439 369.053 172.877 394.615 197.307 406.75L188.785 438.069C186.32 447.129 191.666 456.471 200.725 458.936C209.785 461.401 219.127 456.055 221.592 446.996L230.503 414.248C287.488 414.203 334.529 368.895 336.305 311.527C337.536 271.781 306.281 239.564 266.537 238.333C262.985 238.223 259.474 238.366 255.973 238.508C252.489 238.65 249.013 238.791 245.516 238.683C224.539 238.033 208.029 221.502 208.679 200.525C209.909 160.78 243.126 129.557 282.872 130.787C303.849 131.436 320.328 148.968 319.678 169.945C319.64 171.183 319.469 172.386 319.183 173.541C317.471 161.769 307.519 152.56 295.216 152.179C278.655 151.667 264.815 164.676 264.302 181.237C263.653 202.214 280.131 219.745 301.108 220.394C329.262 221.266 352.79 199.15 353.662 170.997C354.561 141.947 338.123 116.384 313.693 104.25L322.215 72.9305Z" fill="#253E1D"/>
</g>
<defs>
<clipPath id="clip0_2001_1253">
<rect width="512" height="512" fill="white"/>
</clipPath>
</defs>
</svg>
